<?xml version="1.0" encoding="utf-8"?>
<!-- Generator: Adobe Illustrator 25.3.1, SVG Export Plug-In . SVG Version: 6.00 Build 0)  -->
<svg version="1.2" baseProfile="tiny" id="Layer_2" xmlns="http://www.w3.org/2000/svg" xmlns:xlink="http://www.w3.org/1999/xlink"
	 x="0px" y="0px" viewBox="0 0 59.9 42" overflow="visible" xml:space="preserve">
<path fill-rule="evenodd" fill="#D9DCF0" d="M59.9,28H16V17h43.9L56,22.5L59.9,28z"/>
<g>
	<g>
		<polygon fill="#D9DCF0" points="16,42 8,42 8,10 0,10 0,2 16,2 		"/>
	</g>
	<g>
		<polygon fill="#D9DCF0" points="36,42 28,42 28,10 20,10 20,2 36,2 		"/>
	</g>
</g>
<g>
	<g>
		<polygon fill="#0D6EB2" points="16,40 8,40 8,8 0,8 0,0 16,0 		"/>
	</g>
	<g>
		<polygon fill="#0D6EB2" points="36,40 28,40 28,8 20,8 20,0 36,0 		"/>
	</g>
</g>
<path fill-rule="evenodd" fill="#084FA8" d="M28,25h8v2h-8V25z"/>
<path fill-rule="evenodd" fill="#8CC71D" d="M59.9,26H16V15h43.9L56,20.5L59.9,26z"/>
<polygon fill="none" points="59.9,26 16,26 16,15 59.9,15 56,20.5 "/>
<g>
	<path fill="#FFFFFF" d="M23.4,20.1l1.5-3.2h1.6l-2.3,4.5V24h-1.5v-2.6l-2.3-4.5h1.6L23.4,20.1z"/>
	<path fill="#FFFFFF" d="M32,20.9h-2.8v1.9h3.3V24h-4.8v-7.1h4.7v1.2h-3.3v1.7H32V20.9z"/>
	<path fill="#FFFFFF" d="M37.9,22.5h-2.6L34.9,24h-1.6l2.6-7.1h1.4L40,24h-1.6L37.9,22.5z M35.8,21.3h1.8l-0.9-2.7L35.8,21.3z"/>
	<path fill="#FFFFFF" d="M43.9,21.4h-1.2V24h-1.5v-7.1h2.6c0.8,0,1.5,0.2,1.9,0.6s0.7,0.9,0.7,1.6c0,0.5-0.1,0.9-0.3,1.2
		c-0.2,0.3-0.5,0.6-1,0.8l1.5,2.9V24h-1.6L43.9,21.4z M42.7,20.2h1.2c0.4,0,0.7-0.1,0.9-0.3c0.2-0.2,0.3-0.4,0.3-0.8
		c0-0.3-0.1-0.6-0.3-0.8s-0.5-0.3-0.9-0.3h-1.2V20.2z"/>
	<path fill="#FFFFFF" d="M51.9,22.1c0-0.3-0.1-0.5-0.3-0.6c-0.2-0.1-0.5-0.3-1.1-0.5c-0.5-0.2-0.9-0.3-1.2-0.5
		c-0.8-0.4-1.2-1-1.2-1.8c0-0.4,0.1-0.7,0.3-1c0.2-0.3,0.5-0.5,0.9-0.7s0.9-0.3,1.4-0.3c0.5,0,1,0.1,1.4,0.3
		c0.4,0.2,0.7,0.4,0.9,0.8s0.3,0.7,0.3,1.1h-1.5c0-0.3-0.1-0.6-0.3-0.8c-0.2-0.2-0.5-0.3-0.9-0.3c-0.4,0-0.6,0.1-0.8,0.2
		c-0.2,0.2-0.3,0.4-0.3,0.6c0,0.2,0.1,0.4,0.3,0.6c0.2,0.2,0.6,0.3,1,0.4c0.8,0.3,1.4,0.6,1.8,0.9s0.6,0.8,0.6,1.4
		c0,0.6-0.2,1.1-0.7,1.4c-0.5,0.4-1.1,0.5-1.9,0.5c-0.5,0-1-0.1-1.5-0.3c-0.4-0.2-0.8-0.5-1-0.8s-0.4-0.8-0.4-1.2h1.5
		c0,0.8,0.5,1.2,1.4,1.2c0.3,0,0.6-0.1,0.8-0.2C51.8,22.6,51.9,22.4,51.9,22.1z"/>
</g>
</svg>
