<svg xmlns="http://www.w3.org/2000/svg" viewBox="0 0 80 80"><g fill="none" stroke="#1378BF" stroke-width="2" stroke-miterlimit="10" stroke-linecap="round" stroke-linejoin="round"><path d="M13 36.6l8.2 1M40 71V59M16.4 16.4l10.2 10.2M62.5 25l-6.7 4.5M42.7 21.2l.6-4.3M71 43.7l-12-1.5M63.2 61.6L54 53M19 59.3l7-6.4M31 33h6v14h-6zM43 35h6v10h-6zM46 35v-4M34 33v-4M46 49v-4M34 51v-4"/><circle cx="8" cy="36" r="5"/><circle cx="10" cy="10" r="9"/><circle cx="69" cy="67" r="8"/><circle cx="70" cy="20" r="9"/><circle cx="44" cy="12" r="5"/><circle cx="40" cy="75" r="4"/><circle cx="14" cy="64" r="7"/><circle cx="74" cy="44" r="3"/></g></svg>