<svg xmlns="http://www.w3.org/2000/svg" viewBox="0 0 80 80"><g fill="none" stroke="#fff" stroke-width="2" stroke-miterlimit="10" stroke-linecap="round" stroke-linejoin="round"><path d="M8 21h38v58H8zM6 79h42M6 21h42M6 50h42M20 17h-4c-1.1 0-2 .9-2 2v2h8v-2c0-1.1-.9-2-2-2zM62.1 49.5c.4.4.8.9 1.1 1.4.6.1 1.2.1 1.8.1 0-3-.7-6.3-2.9-8.5S58.8 40 56 40c0 2.4.2 5 1.6 7 2.3.2 2.7.7 4.5 2.5zM67.9 49.5c1.8-1.8 2.2-2.3 4.5-2.4 1.4-2.1 1.6-4.6 1.6-7-2.8 0-3.9.3-6.1 2.5C65.7 44.7 65 48 65 51c.6 0 1.2 0 1.8-.1.3-.5.6-1 1.1-1.4z"/><path d="M62.1 42.5c.4.4.8.9 1.1 1.4.6.1 1.2.1 1.8.1 0-3-.7-6.3-2.9-8.5S58.8 33 56 33c0 2.4.2 5 1.6 7 2.3.2 2.7.7 4.5 2.5zM67.9 42.5c1.8-1.8 2.2-2.3 4.5-2.4 1.4-2.1 1.6-4.6 1.6-7-2.8 0-3.9.3-6.1 2.5C65.7 37.7 65 41 65 44c.6 0 1.2 0 1.8-.1.3-.5.6-1 1.1-1.4z"/><path d="M62.1 35.5c.4.4.8.9 1.1 1.4.6.1 1.2.1 1.8.1 0-3-.7-6.3-2.9-8.5S58.8 26 56 26c0 2.4.2 5 1.6 7 2.3.2 2.7.7 4.5 2.5zM67.9 35.5c1.8-1.8 2.2-2.3 4.5-2.4 1.4-2.1 1.6-4.6 1.6-7-2.8 0-3.9.3-6.1 2.5C65.7 30.7 65 34 65 37c.6 0 1.2 0 1.8-.1.3-.5.6-1 1.1-1.4z"/><path d="M62.1 28.5c.4.4.8.9 1.1 1.4.6.1 1.2.1 1.8.1 0-3-.7-6.3-2.9-8.5S58.8 19 56 19c0 2.4.2 5 1.6 7 2.3.2 2.7.7 4.5 2.5zM67.9 28.5c1.8-1.8 2.2-2.3 4.5-2.4 1.4-2.1 1.6-4.6 1.6-7-2.8 0-3.9.3-6.1 2.5C65.7 23.7 65 27 65 30c.6 0 1.2 0 1.8-.1.3-.5.6-1 1.1-1.4zM65 21v58M71.5 55.1C69.3 57.3 68 58 65 58c0-3 .7-6.3 2.9-8.5S71.2 47 74 47c0 2.8-.3 5.9-2.5 8.1zM58.5 55.1C60.7 57.3 62 58 65 58c0-3-.7-6.3-2.9-8.5S58.8 47 56 47c0 2.8.3 5.9 2.5 8.1zM62.1 14.5c1.1 1.1 1.8 2.4 2.2 3.8.2.3.4.5.7.7l.7-.7c.4-1.4 1.1-2.7 2.2-3.8.2-.2.3-.3.5-.4.4-1.1.7-2.2.7-3.3 0-3.2-2-5.6-4-7.7-2 2.1-4 4.5-4 7.7 0 1.2.3 2.3.7 3.3 0 .1.2.2.3.4z"/><path d="M62.1 21.5c.4.4.8.9 1.1 1.4.6.1 1.2.1 1.8.1 0-3-.7-6.3-2.9-8.5S58.8 12 56 12c0 2.4.2 5 1.6 7 2.3.2 2.7.7 4.5 2.5zM67.9 21.5c1.8-1.8 2.2-2.3 4.5-2.4 1.4-2.1 1.6-4.6 1.6-7-2.8 0-3.9.3-6.1 2.5C65.7 16.7 65 20 65 23c.6 0 1.2 0 1.8-.1.3-.5.6-1 1.1-1.4z"/></g></svg>