<svg xmlns="http://www.w3.org/2000/svg" viewBox="0 0 80 80"><g fill="none" stroke="#1378BF" stroke-width="2" stroke-miterlimit="10" stroke-linecap="round" stroke-linejoin="round"><path d="M71 11H5c-2.2 0-4 1.8-4 4s1.8 4 4 4h66c2.2 0 4 1.8 4 4v-8c0-2.2-1.8-4-4-4zm-8 40h14c1 0 2-1 2-2V39c0-1-1-2-2-2H63c-1 0-2 1-2 2v10c0 1 1 2 2 2z"/><path d="M68 45c-.6 0-1-.4-1-1s.4-1 1-1 1 .4 1 1-.4 1-1 1zM14 35v18M48 42v10M24 43h7M45 43h6M45 46h6M24 46h7M37 38c-1.2-1.4-2.7-2-4.5-2S29 37 28 38.3c-1.3 1.5-2 3.5-2 5.7s.7 4.2 2 5.7c1 1.4 2.7 2.3 4.5 2.3s3.3-.6 4.5-2M42 36l6 6 6-6M19 40.5c0-2-1.6-3.5-3.5-3.5h-3c-2 0-3.5 1.6-3.5 3.5 0 2 1.6 3.5 3.5 3.5h3M9 47.5c0 2 1.6 3.5 3.5 3.5h3c2 0 3.5-1.6 3.5-3.5 0-2-1.6-3.5-3.5-3.5h-3"/><path d="M63 51c-1 0-2-1-2-2V39c0-1 1-2 2-2h12V23c0-2.2-1.8-4-4-4H5c-2.2 0-4-1.8-4-4v50c0 2.2 1.8 4 4 4h66c2.2 0 4-1.8 4-4V51H63z"/></g></svg>