<svg id="Layer_1" data-name="Layer 1" xmlns="http://www.w3.org/2000/svg" viewBox="0 0 59.53 59.53"><defs><style>.cls-1{fill:#fff;}.cls-2{fill:#ed1c24;}</style></defs><path class="cls-1" d="M140.75,67a29.59,29.59,0,1,1-29.59-29.58A29.58,29.58,0,0,1,140.75,67" transform="translate(-81.4 -37.2)"/><path class="cls-2" d="M111.16,37.2A29.77,29.77,0,1,0,140.93,67,29.8,29.8,0,0,0,111.16,37.2m0,58.55A28.79,28.79,0,1,1,140,67a28.81,28.81,0,0,1-28.79,28.78m0-56.26A27.48,27.48,0,1,0,138.64,67a27.51,27.51,0,0,0-27.47-27.48m0,50.33A22.85,22.85,0,1,1,134,67a22.88,22.88,0,0,1-22.85,22.85m3.69-42.3L114,48.75a2.87,2.87,0,0,0-.45,1.53v.27h-5.36v-.27a2.87,2.87,0,0,0-.45-1.53L107,47.52l2.37,1.06,1.58-1.4,1.58,1.4Zm-5,22.1V64.94h2.63v.72h-1.57v1.15h1.34v.72h-1.34V68.9h1.57v.72Zm12.72-1.39A18.91,18.91,0,0,0,130,69.85c1.85,0,3-.9,3-1.5a.36.36,0,0,0-.29-.36c-1.29-.38-6.2-1.76-7.69-2.21-.56-.16-1.16-.52-.12-.54.87,0,3.6,0,4.91-.61,1.51-.74,1.64-1.67,1.64-2a.12.12,0,0,0-.13-.12c-3.52.18-6.41.1-6.61.09s-.46-.13-.14-.42,2.56-2.15,3.07-2.65a2.51,2.51,0,0,0,.89-1.86,2.09,2.09,0,0,0-.36-1.33.12.12,0,0,0-.18,0,24.67,24.67,0,0,1-5,3.66c-.28.15-.4,0-.09-.59.17-.32.41-.61.8-1.31a5.83,5.83,0,0,0,.66-3.1A2.27,2.27,0,0,0,123,52.82a.2.2,0,0,0-.25.06,2.84,2.84,0,0,0-.38.73,3.56,3.56,0,0,1-1.66,2.56c-.74.43-1.78,1.18-1.78,1.86,0,.28.08.54.08.88s-.14.41-.43.39-.57-.13-.88.17c-.86.85-2,2.27-3.17,2.27-.48,0-.74-.62-.86-1.4a9.94,9.94,0,0,1-.09-1.34,11.62,11.62,0,0,1,.08-1.49,2.07,2.07,0,0,0,.76,0,1.29,1.29,0,0,0,1.06-1.33.6.6,0,0,0-.06-.28,1.46,1.46,0,0,1-.92.4c-.54,0-.71-.65-.71-1.07a2,2,0,0,1,1-1.75,1,1,0,0,0,.55-1,2.94,2.94,0,0,0-.07-.67,1.23,1.23,0,0,1-1.27.83c-.94,0-2.18-.14-2.63-.69-.08-.09-.21-.16-.56-.16a11.58,11.58,0,0,0-5.76,1.39.35.35,0,0,0-.21.43l.2.55a4.7,4.7,0,0,1,2-.81c.39,0,.5.22.71,1.26a7.7,7.7,0,0,1-2,.18c-1.6,0-1.64-.56-1.64-.91,0,0,0,0,0,0s-.54.12-.54.72c0,.43.33,1,2.11,1a6.28,6.28,0,0,0,2.26-.47c.14.64.18.85-1,.85a3.35,3.35,0,0,1-1-.13,1.76,1.76,0,0,0-.08.42c0,.15.07.22.31.32a4.09,4.09,0,0,0,1.85.36,3.72,3.72,0,0,0,.75-.12c.26,0,.45.82.45,1.07s-.25.21-.89.21-.52.07-.53.1.71.75.84.75.63-.5.65-.52a6.38,6.38,0,0,1,.05.91c0,1.28-.58,2.37-1.38,2.37-1.17,0-2.31-1.42-3.17-2.27-.3-.3-.53-.2-.88-.17s-.43-.1-.43-.39.08-.6.08-.88c0-.68-1-1.43-1.78-1.86A3.56,3.56,0,0,1,100,53.61a2.84,2.84,0,0,0-.38-.73.2.2,0,0,0-.25-.06A2.27,2.27,0,0,0,98.07,55a5.83,5.83,0,0,0,.66,3.1c.39.7.63,1,.8,1.31.31.55.19.74-.09.59a24.67,24.67,0,0,1-5-3.66.12.12,0,0,0-.18,0,2.16,2.16,0,0,0-.36,1.33,2.51,2.51,0,0,0,.89,1.86c.52.5,2.7,2.33,3.07,2.65s.18.41-.14.42-3.09.09-6.61-.09a.12.12,0,0,0-.13.12c0,.33.14,1.26,1.64,2,1.31.65,4,.59,4.92.61s.43.39-.13.54c-1.49.45-6.4,1.83-7.69,2.21a.36.36,0,0,0-.29.36c0,.6,1.12,1.5,3,1.5a18.91,18.91,0,0,0,7.39-1.62c.76-.32.89,0,.14.5-1.36,1-5.49,3.76-7.6,5.14a.37.37,0,0,0-.09.53c1.53,1.93,4.74-.12,5.85-.74s3.21-2.17,4.27-2.77c.75-.43.71,0,.38.57a14.74,14.74,0,0,1-1.88,2.42l.69.56s-.64.81-1.29,1.53c-.27.29-1,1.17-1.38,1.17s-.8-.68-1.2-.88-.73.2-.73.2a1.6,1.6,0,0,0-.75-.17,1.06,1.06,0,0,0-.77.26,1.14,1.14,0,0,0-.27,1,.62.62,0,0,1,.62-.53c.76,0,1,.53,1.4.79a3.4,3.4,0,0,0,.82.34c-.37.32-1.24.46-1.6.78a.65.65,0,0,0-.11.42c-.51.19-.73.35-.73.7a2,2,0,0,0,.31,1,.94.94,0,0,1,.76-1,.5.5,0,0,0,.28.11,3.88,3.88,0,0,0,1.51-.9.55.55,0,0,1-.07.46,3,3,0,0,0-.4,1.22.69.69,0,0,0,.06.37c.07.1.26.08.26.08a2.53,2.53,0,0,0,1.23,1.56,3.82,3.82,0,0,1-.35-1.44,1.42,1.42,0,0,1,0-.15.69.69,0,0,0,.36,0c.12-.08.23-.26.23-.67s-.22-.67-.22-.92a1,1,0,0,1,.16-.54c.21.35.78,1.37,1.15,1.37a.73.73,0,0,0,.36-.12,3.13,3.13,0,0,1,.8,1.14,1.82,1.82,0,0,0,.16-.77,1.1,1.1,0,0,0-.47-.81,1.12,1.12,0,0,0,.16-.43c0-.49-1.47-.93-1.47-1.64a3.24,3.24,0,0,1,.78-1.25c.9-1.08,1.26-1.47,1.26-1.47l.65.53c1-1.48,2.11-3.26,3.34-3.26a.74.74,0,0,1,.79.81c0,.88-1.42,2.54-2.06,3.24-.92,1-2.32,2-2.32,3.51a7.76,7.76,0,0,0,.3,1.75c.27-1,.37-1.36.49-1.36s.2.65,1,2a4.81,4.81,0,0,0,.3.48c0-1.84,0-2.66.14-2.66s.16.26.4.67a9.84,9.84,0,0,0,.64,1c0-3.09,1.38-4.64,2.22-4.64.58,0,.73.65.73,1.3,0,1.79-1.44,2.84-1.44,4.62a2.89,2.89,0,0,0,1.16,2.4,9.15,9.15,0,0,1,.47-2.13c.1-.18.21-.27.32-.27s.27.16.72,1a6.88,6.88,0,0,0,1,1.32,7.37,7.37,0,0,0,.94-1.32c.45-.82.55-1,.72-1s.22.09.32.27a9.15,9.15,0,0,1,.47,2.13,2.89,2.89,0,0,0,1.16-2.4c0-1.78-1.44-2.83-1.44-4.62,0-.65.15-1.3.73-1.3.84,0,2.22,1.55,2.22,4.64a10.94,10.94,0,0,0,.65-1c.23-.41.31-.67.39-.67s.19.82.14,2.66a4.81,4.81,0,0,0,.3-.48c.79-1.37.84-2,1-2s.22.36.5,1.36a7.76,7.76,0,0,0,.3-1.75c0-1.49-1.41-2.5-2.33-3.51-.64-.7-2.06-2.36-2.06-3.24a.74.74,0,0,1,.79-.81c1.23,0,2.34,1.78,3.34,3.26l.65-.53s.36.39,1.26,1.47a3.24,3.24,0,0,1,.78,1.25c0,.71-1.47,1.15-1.47,1.64a1.12,1.12,0,0,0,.16.43,1.1,1.1,0,0,0-.47.81,1.74,1.74,0,0,0,.17.77,3.06,3.06,0,0,1,.79-1.14.73.73,0,0,0,.36.12c.37,0,.94-1,1.15-1.37a1,1,0,0,1,.16.54c0,.25-.22.53-.22.92s.11.59.24.67a.63.63,0,0,0,.35,0,1.42,1.42,0,0,1,0,.15,3.64,3.64,0,0,1-.35,1.44,2.53,2.53,0,0,0,1.23-1.56s.19,0,.26-.08a.69.69,0,0,0,.06-.37,3,3,0,0,0-.4-1.22.55.55,0,0,1-.07-.46,3.88,3.88,0,0,0,1.51.9.5.5,0,0,0,.28-.11.94.94,0,0,1,.76,1,2,2,0,0,0,.31-1c0-.35-.22-.51-.73-.7a.59.59,0,0,0-.11-.42c-.36-.32-1.23-.46-1.59-.78a3.42,3.42,0,0,0,.81-.34c.42-.26.64-.79,1.4-.79a.62.62,0,0,1,.62.53,1.16,1.16,0,0,0-.26-1,1.1,1.1,0,0,0-.78-.26,1.6,1.6,0,0,0-.75.17s-.44-.33-.72-.2-.83.88-1.21.88-1.11-.88-1.38-1.17c-.65-.72-1.29-1.53-1.29-1.53l.69-.56a14.74,14.74,0,0,1-1.88-2.42c-.32-.59-.37-1,.38-.57,1.06.6,3.23,2.19,4.27,2.77s4.32,2.67,5.85.74a.37.37,0,0,0-.09-.53c-2.11-1.38-6.24-4.17-7.6-5.14-.75-.53-.63-.81.14-.5m-15.45-1.67c-1.07,0-3-.79-4.81-4.07a3.26,3.26,0,0,1-.74.48,2.3,2.3,0,0,1-1.36.25,2.28,2.28,0,0,1,1.07-.87,2.87,2.87,0,0,1,.85-.27,2.46,2.46,0,0,1-.84-1,2.26,2.26,0,0,1-.21-1.53,2.18,2.18,0,0,1,1,1.14,2.42,2.42,0,0,1,.26,1.32,2.86,2.86,0,0,1,.75-.49,2.3,2.3,0,0,1,1.36-.25,2.34,2.34,0,0,1-1.07.87,3.1,3.1,0,0,1-.8.26c1.63,2.84,3.38,3.43,4.5,3.55Zm2-13.29a2.5,2.5,0,0,1,1.64-.16l-1.38,1.12Zm2,19.73c-2.3-2.57-2.74-7.48-2.74-9.17h5.47c0,1.69-.44,6.6-2.73,9.17m9.59-10a3.26,3.26,0,0,1-.74-.48c-1.77,3.28-3.74,4.07-4.81,4.07v-.65c1.12-.12,2.87-.71,4.5-3.55a3.22,3.22,0,0,1-.8-.26,2.34,2.34,0,0,1-1.07-.87,2.29,2.29,0,0,1,1.36.25A2.86,2.86,0,0,1,120,62a2.42,2.42,0,0,1,.26-1.32,2.22,2.22,0,0,1,1-1.14A2.26,2.26,0,0,1,121,61a2.39,2.39,0,0,1-.84,1,2.87,2.87,0,0,1,.85.27,2.23,2.23,0,0,1,1.07.87,2.3,2.3,0,0,1-1.36-.25" transform="translate(-81.4 -37.2)"/></svg>