<svg xmlns="http://www.w3.org/2000/svg" width="60" height="59.997" viewBox="0 0 60 59.997">
  <g id="logo" transform="translate(37.56 37.79)">
    <path id="Контур_338" data-name="Контур 338" d="M-7.576,22.207A30.04,30.04,0,0,1-37.56-7.827,30.031,30.031,0,0,1-7.53-37.79,30.007,30.007,0,0,1,22.44-7.743,30.015,30.015,0,0,1-7.576,22.207ZM21.47-7.785A29.061,29.061,0,0,0-7.523-36.819,29.056,29.056,0,0,0-36.59-7.81,29.06,29.06,0,0,0-7.559,21.239,29.067,29.067,0,0,0,21.47-7.785Z" transform="translate(0 0)" fill="#e21f25"/>
    <path id="Контур_339" data-name="Контур 339" d="M-15.42,11.989a27.7,27.7,0,1,1,27.672,27.7A27.728,27.728,0,0,1-15.42,11.989Zm4.646.009A23.046,23.046,0,1,0,12.293-11.048,23.081,23.081,0,0,0-10.774,12Z" transform="translate(-19.833 -19.788)" fill="#e21f25"/>
    <path id="Контур_340" data-name="Контур 340" d="M66.634,134.376l-.031-.495a8.343,8.343,0,0,0-.492-2.364A3.171,3.171,0,0,0,65,130.068a1.479,1.479,0,0,0-.421-.212.559.559,0,0,0-.705.273,1.56,1.56,0,0,0-.224.735,3.329,3.329,0,0,0,.033.769,5.51,5.51,0,0,0,.61,1.736,9.2,9.2,0,0,1,.5.981,3.273,3.273,0,0,1-.463,3.5,2.509,2.509,0,0,1-.245.249.808.808,0,0,1-.122.078c-.055-.341-.1-.66-.162-.974a8.258,8.258,0,0,0-.24-.942,1.118,1.118,0,0,0-.274-.406.23.23,0,0,0-.383.045c-.088.121-.153.257-.233.385-.317.5-.634,1-.957,1.493a2.9,2.9,0,0,1-.254.295,2.964,2.964,0,0,1-.243-.281q-.453-.688-.9-1.383c-.1-.162-.187-.336-.294-.494s-.262-.193-.4-.052a1.089,1.089,0,0,0-.28.43c-.123.448-.212.907-.306,1.363-.033.162-.049.326-.08.534a2.457,2.457,0,0,1-.207-.164,3.119,3.119,0,0,1-.9-1.931,3.426,3.426,0,0,1,.378-1.96c.155-.295.3-.6.457-.889a5.649,5.649,0,0,0,.59-1.821,2.026,2.026,0,0,0-.192-1.218.574.574,0,0,0-.827-.317,2.1,2.1,0,0,0-.6.4,3.486,3.486,0,0,0-1.024,1.74,9.776,9.776,0,0,0-.343,2.39,1.12,1.12,0,0,1-.134-.144c-.257-.428-.512-.859-.767-1.288-.036-.061-.077-.122-.152-.238a1.565,1.565,0,0,0-.1.295c-.025.256-.047.515-.051.772-.007.506,0,1.014,0,1.57a1.659,1.659,0,0,1-.128-.153,8.935,8.935,0,0,1-.914-1.857.739.739,0,0,0-.215-.412c-.129.041-.157.151-.19.25-.088.269-.167.541-.249.812-.017.055-.036.108-.068.2a1.178,1.178,0,0,1-.066-.178c-.068-.377-.146-.752-.193-1.133a2.541,2.541,0,0,1,.5-1.885c.214-.287.46-.549.7-.814.571-.629,1.159-1.244,1.719-1.883a8.477,8.477,0,0,0,1.128-1.586,3.176,3.176,0,0,0,.3-.737.8.8,0,0,0-.891-1.034,1.774,1.774,0,0,0-.9.349,3.857,3.857,0,0,0-.874.852c-.445.593-.871,1.2-1.3,1.8-.057.08-.114.162-.178.255l-.641-.5c-.046.043-.078.069-.105.1l-1.676,1.956c-.027.031-.053.065-.078.1a.809.809,0,0,0,.2,1.232c.3.218.6.443.894.68.216.177.22.246.116.5-.1.231-.106.264.078.411a.769.769,0,0,1,.279.779c-.028.187-.076.37-.126.606-.072-.092-.113-.138-.147-.188-.175-.254-.343-.513-.524-.762-.122-.168-.133-.172-.331-.1a.381.381,0,0,1-.464-.129,5.452,5.452,0,0,1-.87-1.207.8.8,0,0,0-.16.723.513.513,0,0,0,.041.092A1.193,1.193,0,0,1,49.8,133.6c-.065.18-.143.319-.364.3-.029,0-.06.023-.108.043a4.758,4.758,0,0,0,.266,1.5c-.084-.054-.141-.082-.188-.121a2.939,2.939,0,0,1-.892-1.186c-.045-.113-.085-.217-.229-.23-.119-.011-.134-.105-.145-.2a2.021,2.021,0,0,1,.124-.934c.07-.187.163-.365.24-.549a.5.5,0,0,0,.064-.4.944.944,0,0,0-.11.075,3.986,3.986,0,0,1-1.169.709.651.651,0,0,1-.361.045.608.608,0,0,0-.714.3,1.847,1.847,0,0,0-.122.3c-.025.07-.039.144-.07.263a1.786,1.786,0,0,1-.305-1.029.445.445,0,0,1,.213-.352,1.112,1.112,0,0,1,.262-.145.362.362,0,0,0,.3-.365.307.307,0,0,1,.209-.259c.376-.177.754-.349,1.132-.523.086-.04.172-.082.315-.15a1.492,1.492,0,0,0-.28-.151,2.166,2.166,0,0,1-1.027-.635,1.2,1.2,0,0,0-.848-.373.577.577,0,0,0-.64.371c0,.009-.026.013-.041.019a.744.744,0,0,1,.549-.937,1.573,1.573,0,0,1,1.026-.058.726.726,0,0,0,.482-.045.6.6,0,0,1,.708.129c.214.187.43.369.646.552.07.059.142.116.214.173a.177.177,0,0,0,.23.01,2.165,2.165,0,0,0,.263-.191c.242-.229.491-.453.712-.7.488-.548.961-1.109,1.439-1.665.043-.05.079-.1.13-.172-.217-.19-.425-.374-.65-.572.072-.084.128-.154.188-.22a13.366,13.366,0,0,0,1.36-1.7,9.547,9.547,0,0,0,.5-.919c.052-.1.133-.25.028-.349s-.241,0-.344.056c-.35.193-.7.384-1.037.6-.957.623-1.9,1.27-2.859,1.885a19.393,19.393,0,0,1-2.652,1.448,5.775,5.775,0,0,1-1.771.5,2.229,2.229,0,0,1-1.924-.628,1.288,1.288,0,0,1-.184-.234.3.3,0,0,1,.073-.442,2.285,2.285,0,0,1,.225-.157q3.72-2.509,7.439-5.02a2.2,2.2,0,0,0,.381-.355.965.965,0,0,0,.118-.237.345.345,0,0,0-.353-.035c-.182.058-.362.126-.539.2a19.366,19.366,0,0,1-4.333,1.258,18.982,18.982,0,0,1-3.034.268,4.362,4.362,0,0,1-1.613-.3,2.332,2.332,0,0,1-.918-.588,1.427,1.427,0,0,1-.266-.416.381.381,0,0,1,.269-.548c.141-.05.287-.089.43-.13q3.7-1.052,7.4-2.106a3.133,3.133,0,0,0,.506-.207,1.085,1.085,0,0,0,.2-.17.343.343,0,0,0-.307-.138c-.541-.029-1.083-.045-1.622-.086-.8-.06-1.594-.125-2.388-.215a4.332,4.332,0,0,1-1.439-.4,2.99,2.99,0,0,1-1.191-1,1.688,1.688,0,0,1-.3-.709c-.035-.24.018-.341.284-.331,1.249.045,2.5.083,3.749.106.834.015,1.667,0,2.5-.006a1.329,1.329,0,0,0,.322-.03.2.2,0,0,0,.109-.359,1.94,1.94,0,0,0-.221-.2q-1.319-1.132-2.639-2.261c-.158-.135-.313-.276-.46-.423a2.489,2.489,0,0,1-.527-2.729,3.724,3.724,0,0,1,.228-.386c.1.082.168.136.232.2a26.72,26.72,0,0,0,4.7,3.424.9.9,0,0,0,.466.182.831.831,0,0,0,.021-.282,2.5,2.5,0,0,0-.209-.529c-.118-.21-.268-.4-.4-.6a4.983,4.983,0,0,1-.736-1.711,7.333,7.333,0,0,1-.235-2.277,3.277,3.277,0,0,1,.165-.753,1.747,1.747,0,0,1,.893-1c.316-.162.41-.141.567.184.138.284.254.579.368.874.107.279.19.569.3.848a2.46,2.46,0,0,0,1.3,1.408,4.255,4.255,0,0,1,1.577,1.358.75.75,0,0,1,.142.613,3.769,3.769,0,0,0-.064.621c-.005.372.154.537.521.49a1.143,1.143,0,0,1,1.026.38c.445.45.916.875,1.381,1.306a3.506,3.506,0,0,0,.979.639,1.1,1.1,0,0,0,1.5-.389,2.5,2.5,0,0,0,.495-1.393,4.238,4.238,0,0,0-.06-1.321l-.646.506a9.572,9.572,0,0,1-.864-.8,2.132,2.132,0,0,1,.309-.07c.2-.008.4,0,.6,0,.05,0,.1,0,.15,0,.382-.025.473-.142.371-.513a4.286,4.286,0,0,0-.229-.632c-.069-.153-.154-.191-.305-.137a2.809,2.809,0,0,1-1.213.064,3.66,3.66,0,0,1-1.233-.3c-.4-.184-.452-.325-.271-.746,0-.007.013-.01.028-.024a3.49,3.49,0,0,0,1.646.092,1.615,1.615,0,0,0,.244-.053.3.3,0,0,0,.229-.267.749.749,0,0,0-.086-.5c-.088.031-.173.059-.258.091a5.815,5.815,0,0,1-2.975.308,2.55,2.55,0,0,1-.755-.241.789.789,0,0,1-.169-1.258.415.415,0,0,1,.313-.138.571.571,0,0,1,.022.093.744.744,0,0,0,.578.7,1.872,1.872,0,0,0,.438.1,10.193,10.193,0,0,0,2.442-.079c.079-.014.157-.04.254-.065a3.282,3.282,0,0,0-.3-1.062.357.357,0,0,0-.324-.2,2.072,2.072,0,0,0-.469.04,4.7,4.7,0,0,0-1.32.582l-.256.153a2.732,2.732,0,0,1-.223-.582.285.285,0,0,1,.142-.3,2.907,2.907,0,0,1,.406-.243,11.4,11.4,0,0,1,3.005-.985,17,17,0,0,1,2.26-.228c.092,0,.183,0,.275,0a.817.817,0,0,1,.6.246,1.83,1.83,0,0,0,1.108.474c.513.058,1.029.08,1.544.11a1.045,1.045,0,0,0,1.008-.527c.04-.063.083-.122.147-.216a1.021,1.021,0,0,1,.055.381,4.365,4.365,0,0,1-.03.572.643.643,0,0,1-.294.473c-.179.121-.351.254-.526.381a1.951,1.951,0,0,0-.555,2.3.451.451,0,0,0,.47.3,1.434,1.434,0,0,0,.93-.306.766.766,0,0,1,.085-.053.263.263,0,0,1,.04.071,1.283,1.283,0,0,1-1.229,1.5c-.182.007-.364,0-.579,0-.019.118-.045.253-.059.39a8.519,8.519,0,0,0,.025,2.441,2.99,2.99,0,0,0,.4,1.1.572.572,0,0,0,.612.293,2.315,2.315,0,0,0,.5-.134,3.329,3.329,0,0,0,1.02-.667c.47-.438.945-.869,1.4-1.322a1.012,1.012,0,0,1,.942-.334.8.8,0,0,0,.15.005.354.354,0,0,0,.39-.365,2.058,2.058,0,0,0-.027-.572,1.07,1.07,0,0,1,.3-1.028,4.967,4.967,0,0,1,1.57-1.215,1.938,1.938,0,0,0,.948-.926c.157-.32.274-.661.4-.993s.242-.638.366-.956a1.656,1.656,0,0,1,.113-.223c.145-.25.229-.276.486-.152a1.922,1.922,0,0,1,1.079,1.5,5.516,5.516,0,0,1-.068,1.913c-.032.189-.083.374-.118.562a4.8,4.8,0,0,1-.8,1.868c-.132.193-.267.383-.391.58a.876.876,0,0,0-.129.768,1.444,1.444,0,0,0,.265-.093c.466-.275.936-.545,1.39-.84a25.3,25.3,0,0,0,3.557-2.748c.035-.033.076-.061.117-.094.164.051.214.192.267.318a2.487,2.487,0,0,1-.477,2.716c-.241.242-.5.469-.756.691-.8.691-1.61,1.375-2.414,2.063a1.424,1.424,0,0,0-.2.189c-.119.147-.075.287.108.345a.756.756,0,0,0,.222.03c1.417,0,2.834,0,4.25-.019.709-.008,1.416-.049,2.124-.073.238-.008.295.04.266.268a1.706,1.706,0,0,1-.145.5,2.632,2.632,0,0,1-1.007,1.086,4.059,4.059,0,0,1-1.494.54,18.682,18.682,0,0,1-2.334.247c-.641.035-1.282.061-1.922.1a2.876,2.876,0,0,0-.368.072c.09.1.129.176.192.208a3.249,3.249,0,0,0,.548.234q3.782,1.083,7.568,2.156c.089.025.177.049.263.08a.4.4,0,0,1,.262.576,1.257,1.257,0,0,1-.387.514,2.931,2.931,0,0,1-1.078.563,5.333,5.333,0,0,1-1.855.192,21.27,21.27,0,0,1-3.637-.485,20.416,20.416,0,0,1-3.182-1.027c-.17-.07-.34-.138-.515-.192a2.2,2.2,0,0,0-.322-.052.2.2,0,0,0,.02.277,2.676,2.676,0,0,0,.415.392q2.651,1.815,5.311,3.616c.718.486,1.439.966,2.172,1.43.407.257.366.485.085.78a2.234,2.234,0,0,1-1.964.65,6.1,6.1,0,0,1-2-.61,24.589,24.589,0,0,1-3.116-1.8q-1.216-.813-2.44-1.612c-.251-.163-.519-.3-.785-.439a1.923,1.923,0,0,0-.346-.094,1.287,1.287,0,0,0,.042.328,6.207,6.207,0,0,0,.358.74,12.756,12.756,0,0,0,1.5,1.929c.056.061.111.124.166.187a.307.307,0,0,1,.029.072l-.636.551c.042.058.076.115.119.164.494.575.981,1.158,1.489,1.72a8.537,8.537,0,0,0,.818.77c.2.172.247.159.452-.011.237-.2.467-.4.7-.6.07-.059.148-.108.222-.162a.388.388,0,0,1,.4-.05,1.15,1.15,0,0,0,.309.094.969.969,0,0,0,.368-.022,1.659,1.659,0,0,1,1.25.195.786.786,0,0,1,.268.816.763.763,0,0,0-1-.34,1.21,1.21,0,0,0-.528.321,2.118,2.118,0,0,1-1.028.634.533.533,0,0,0-.138.059.4.4,0,0,0-.069.063c.008.133.121.134.2.167.23.1.467.179.7.279.145.063.279.148.42.221a.448.448,0,0,1,.292.425c0,.1.061.146.144.179a2.588,2.588,0,0,1,.251.111.572.572,0,0,1,.353.672,1.88,1.88,0,0,1-.3.784c-.036-.127-.064-.224-.093-.321a.731.731,0,0,0-.457-.525.459.459,0,0,0-.287-.01.55.55,0,0,1-.435-.029,4.3,4.3,0,0,1-1.25-.785c-.088.1-.039.2-.008.282.039.109.1.212.147.317a2.469,2.469,0,0,1,.276,1.131,2.926,2.926,0,0,1-.047.324c-.235,0-.3.157-.372.325a3.048,3.048,0,0,1-1.057,1.267,4.97,4.97,0,0,0,.281-1.527c-.047-.02-.079-.047-.107-.044-.239.024-.313-.138-.377-.321a1.193,1.193,0,0,1,.049-1.06.735.735,0,0,0-.1-.8c-.052.076-.1.131-.13.193a5.559,5.559,0,0,1-.789,1.028.341.341,0,0,1-.4.105c-.234-.077-.244-.075-.388.126-.184.257-.355.524-.532.786-.019.027-.04.052-.085.113a1.53,1.53,0,0,1-.11-1.074.918.918,0,0,1,.237-.284c.173-.177.179-.194.088-.413-.113-.271-.109-.327.119-.518.255-.214.526-.407.789-.613a1.362,1.362,0,0,0,.3-.258.723.723,0,0,0-.012-1.043c-.446-.54-.9-1.069-1.359-1.6-.151-.177-.306-.35-.478-.548l-.647.507-.164-.228c-.361-.511-.7-1.035-1.087-1.528a10.242,10.242,0,0,0-.911-.992,1.817,1.817,0,0,0-.87-.471L66.577,125a.831.831,0,0,0-1.047,1.1,3.184,3.184,0,0,0,.389.834,16.864,16.864,0,0,0,1.1,1.488c.5.6,1.054,1.159,1.584,1.735.187.2.375.4.556.61a2.793,2.793,0,0,1,.667,2.441c-.058.325-.124.648-.208.974a7.925,7.925,0,0,0-.489-1.237.549.549,0,0,0-.228.37,8.773,8.773,0,0,1-.891,1.84.533.533,0,0,1-.183.19c0-.1,0-.208,0-.314-.006-.6-.009-1.2-.02-1.8a.68.68,0,0,0-.134-.456c-.061.1-.116.172-.163.252q-.4.677-.794,1.356A.541.541,0,0,1,66.634,134.376ZM58.7,116.357c0,.124-.006.223,0,.322.04.523.074,1.047.127,1.569a18.147,18.147,0,0,0,.805,3.88,10.756,10.756,0,0,0,1.592,3.152c.069.092.146.176.232.279a2.974,2.974,0,0,0,.205-.249c.283-.441.587-.871.837-1.331a13.1,13.1,0,0,0,1.193-3.329,21.759,21.759,0,0,0,.493-3.508c.017-.255,0-.513,0-.785Zm-6.368-1.808c-.284.1-.539.181-.784.283a2.375,2.375,0,0,0-.91.643.363.363,0,0,0-.135.267,2.713,2.713,0,0,0,2.018-.725c.268.42.513.826.78,1.217a8.369,8.369,0,0,0,1.753,1.9,4.512,4.512,0,0,0,1.722.876,1.3,1.3,0,0,0,.6.057v-.624a.376.376,0,0,0-.071-.039c-.056-.015-.114-.024-.171-.034a5,5,0,0,1-2.577-1.288,9.29,9.29,0,0,1-1.649-2.154.36.36,0,0,1-.024-.079c.224-.069.448-.129.666-.206a2.308,2.308,0,0,0,.965-.6.569.569,0,0,0,.188-.348,3.755,3.755,0,0,0-.4-.005,3.35,3.35,0,0,0-1.656.733c-.017-.124-.027-.212-.04-.3-.021-.148-.033-.3-.065-.444a2.442,2.442,0,0,0-.661-1.292,1.08,1.08,0,0,0-.535-.325,1.207,1.207,0,0,0-.059.164,1.738,1.738,0,0,0,.076.934,3.09,3.09,0,0,0,.755,1.163C52.181,114.4,52.25,114.466,52.331,114.549Zm17.936-.174c-.338-.179-.651-.369-.985-.515a1.786,1.786,0,0,0-1.107-.141,3.167,3.167,0,0,0,.213.309,3.119,3.119,0,0,0,1.658.823c-.033.065-.053.109-.078.151a10.65,10.65,0,0,1-1.111,1.569,5.157,5.157,0,0,1-3.135,1.813,1.114,1.114,0,0,0-.172.054v.654a1.5,1.5,0,0,0,.288-.021,7.628,7.628,0,0,0,.907-.269,5.388,5.388,0,0,0,1.714-1.192,10.871,10.871,0,0,0,1.782-2.371c.044-.076.093-.149.144-.231a2.69,2.69,0,0,0,2.037.729.752.752,0,0,0-.246-.367,3.383,3.383,0,0,0-1.611-.811c.093-.095.168-.169.242-.245a2.861,2.861,0,0,0,.815-1.409,1.459,1.459,0,0,0-.042-.841.921.921,0,0,0-.5.278,2.327,2.327,0,0,0-.691,1.275C70.334,113.87,70.306,114.127,70.267,114.375Zm-10.594-7.7a8.679,8.679,0,0,0,1.347-1.1,2,2,0,0,0-1.592.176A4.667,4.667,0,0,0,59.673,106.68Z" transform="translate(-69.037 -127.29)" fill="#e21f25"/>
    <path id="Контур_341" data-name="Контур 341" d="M211.617,62.864c-.027-.279-.045-.536-.08-.789a1.9,1.9,0,0,0-.291-.765q-.37-.578-.74-1.159a.844.844,0,0,1-.106-.22c.775.29,1.524.623,2.294.994l1.588-1.4,1.587,1.4a21.534,21.534,0,0,1,2.308-.971c-.041.069-.08.138-.123.205-.224.351-.445.7-.676,1.05a2.518,2.518,0,0,0-.41,1.394c0,.081-.007.163-.011.26Z" transform="translate(-222.123 -87.179)" fill="#e21f25"/>
    <path id="Контур_342" data-name="Контур 342" d="M240.468,236.421h-2.8V231.78h2.595v.691h-1.545v1.167h1.562v.7h-1.562v1.386c.286.02.574.007.862.009s.58,0,.887,0Z" transform="translate(-246.551 -241.481)" fill="#e21f25"/>
  </g>
</svg>
