<?xml version="1.0" encoding="utf-8"?><svg xmlns="http://www.w3.org/2000/svg" width="129.381" height="14.327" viewBox="0 0 129.381 14.327"><defs><style>.a{fill:#0d6eb2;}</style></defs><path class="a" d="M2.028-10.658a.793.793,0,0,1-.589-.249.865.865,0,0,1-.243-.631.88.88,0,0,1,.243-.635.787.787,0,0,1,.589-.253.808.808,0,0,1,.6.253.872.872,0,0,1,.247.635.866.866,0,0,1-.247.623A.8.8,0,0,1,2.028-10.658ZM2.656,0H1.368V-8.5H2.656Zm9.281,0H10.649V-4.848q0-2.706-1.869-2.706a1.983,1.983,0,0,0-1.6.768,2.948,2.948,0,0,0-.632,1.938V0H5.263V-8.5H6.551v1.411h.031A2.878,2.878,0,0,1,9.22-8.7a2.4,2.4,0,0,1,2.018.9,4.176,4.176,0,0,1,.7,2.6Zm6.4-11.389a1.642,1.642,0,0,0-.856-.224q-1.351,0-1.351,1.8V-8.5h1.885v1.162H16.13V0H14.85V-7.338H13.476V-8.5H14.85V-9.878a2.959,2.959,0,0,1,.73-2.113,2.4,2.4,0,0,1,1.822-.776,2.4,2.4,0,0,1,.934.149ZM22.758.2A3.628,3.628,0,0,1,19.911-.992,4.564,4.564,0,0,1,18.847-4.15,4.756,4.756,0,0,1,19.954-7.5a3.866,3.866,0,0,1,2.992-1.2,3.509,3.509,0,0,1,2.807,1.17,4.812,4.812,0,0,1,1.009,3.246,4.725,4.725,0,0,1-1.088,3.258A3.707,3.707,0,0,1,22.758.2Zm.094-7.753a2.391,2.391,0,0,0-1.963.892A3.807,3.807,0,0,0,20.166-4.2a3.6,3.6,0,0,0,.73,2.382,2.421,2.421,0,0,0,1.955.872,2.3,2.3,0,0,0,1.92-.855,3.86,3.86,0,0,0,.671-2.432,3.927,3.927,0,0,0-.671-2.457A2.288,2.288,0,0,0,22.852-7.554Zm13.8,4.067h-.039q-.573,1.976-2.254,1.976a2.091,2.091,0,0,1-1.731-.838,3.569,3.569,0,0,1-.656-2.258,5.143,5.143,0,0,1,.907-3.117,2.817,2.817,0,0,1,2.383-1.241,1.73,1.73,0,0,1,1.009.307,1.358,1.358,0,0,1,.569.772h.031q.016-.232.079-.955h.982q-.369,4.574-.369,4.657,0,1.718.934,1.718a1.632,1.632,0,0,0,1.409-.971,4.986,4.986,0,0,0,.561-2.515,5.2,5.2,0,0,0-1.366-3.727,4.959,4.959,0,0,0-3.785-1.444A4.919,4.919,0,0,0,31.466-9.4,6.286,6.286,0,0,0,29.942-5.08,5.813,5.813,0,0,0,31.391-.967,5.065,5.065,0,0,0,35.3.6a7.4,7.4,0,0,0,3.314-.681V.946a8.237,8.237,0,0,1-3.392.614A6.088,6.088,0,0,1,30.614-.261a12.516,12.516,0,0,1-1.641-3.382,12.6,12.6,0,0,1-.107-1.387A7.171,7.171,0,0,1,30.7-10.069a6.071,6.071,0,0,1,4.684-2A6.135,6.135,0,0,1,39.8-10.393a5.782,5.782,0,0,1,1.751,4.375,5.365,5.365,0,0,1-.923,3.241,2.716,2.716,0,0,1-2.25,1.266Q36.664-1.511,36.656-3.486ZM35.25-8a1.8,1.8,0,0,0-1.574.979,4.575,4.575,0,0,0-.6,2.432,2.607,2.607,0,0,0,.4,1.544,1.264,1.264,0,0,0,1.08.564A1.722,1.722,0,0,0,36.1-3.507a5.593,5.593,0,0,0,.569-2.719Q36.672-8,35.25-8Zm13.121.88A1.512,1.512,0,0,0,47.4-7.4a1.625,1.625,0,0,0-1.378.822,3.964,3.964,0,0,0-.554,2.241V0H44.178V-8.5h1.288v1.751H45.5a2.991,2.991,0,0,1,.84-1.4,1.857,1.857,0,0,1,1.264-.5,2,2,0,0,1,.77.116ZM53.13.2A3.628,3.628,0,0,1,50.283-.992,4.564,4.564,0,0,1,49.22-4.15,4.756,4.756,0,0,1,50.327-7.5a3.866,3.866,0,0,1,2.992-1.2,3.509,3.509,0,0,1,2.807,1.17,4.812,4.812,0,0,1,1.009,3.246,4.725,4.725,0,0,1-1.088,3.258A3.707,3.707,0,0,1,53.13.2Zm.094-7.753a2.391,2.391,0,0,0-1.963.892A3.807,3.807,0,0,0,50.539-4.2a3.6,3.6,0,0,0,.73,2.382,2.421,2.421,0,0,0,1.955.872,2.3,2.3,0,0,0,1.92-.855,3.86,3.86,0,0,0,.671-2.432,3.927,3.927,0,0,0-.671-2.457A2.288,2.288,0,0,0,53.224-7.554Zm7.287,6.325H60.48V0H59.192V-12.584H60.48v5.578h.031A3.02,3.02,0,0,1,63.291-8.7a2.883,2.883,0,0,1,2.422,1.141A4.9,4.9,0,0,1,66.589-4.5a5.477,5.477,0,0,1-.982,3.416A3.2,3.2,0,0,1,62.922.2,2.619,2.619,0,0,1,60.511-1.229ZM60.48-4.657V-3.47a2.61,2.61,0,0,0,.648,1.789,2.1,2.1,0,0,0,1.645.735,2.118,2.118,0,0,0,1.833-.946,4.527,4.527,0,0,0,.664-2.631,3.565,3.565,0,0,0-.62-2.225,2.009,2.009,0,0,0-1.68-.805,2.228,2.228,0,0,0-1.806.826A3.141,3.141,0,0,0,60.48-4.657ZM72.007.2A3.628,3.628,0,0,1,69.16-.992,4.564,4.564,0,0,1,68.1-4.15,4.756,4.756,0,0,1,69.2-7.5,3.866,3.866,0,0,1,72.2-8.7,3.509,3.509,0,0,1,75-7.529a4.812,4.812,0,0,1,1.009,3.246,4.725,4.725,0,0,1-1.088,3.258A3.707,3.707,0,0,1,72.007.2ZM72.1-7.554a2.391,2.391,0,0,0-1.963.892A3.807,3.807,0,0,0,69.415-4.2a3.6,3.6,0,0,0,.73,2.382A2.421,2.421,0,0,0,72.1-.946a2.3,2.3,0,0,0,1.92-.855,3.86,3.86,0,0,0,.671-2.432,3.927,3.927,0,0,0-.671-2.457A2.288,2.288,0,0,0,72.1-7.554Zm9.941-3.835a1.642,1.642,0,0,0-.856-.224q-1.351,0-1.351,1.8V-8.5H81.72v1.162H79.835V0h-1.28V-7.338H77.181V-8.5h1.374V-9.878a2.959,2.959,0,0,1,.73-2.113,2.4,2.4,0,0,1,1.822-.776,2.4,2.4,0,0,1,.934.149ZM86.463.2A3.628,3.628,0,0,1,83.616-.992,4.564,4.564,0,0,1,82.552-4.15,4.756,4.756,0,0,1,83.659-7.5a3.866,3.866,0,0,1,2.992-1.2,3.509,3.509,0,0,1,2.807,1.17,4.812,4.812,0,0,1,1.009,3.246A4.725,4.725,0,0,1,89.38-1.025,3.707,3.707,0,0,1,86.463.2Zm.094-7.753a2.391,2.391,0,0,0-1.963.892A3.807,3.807,0,0,0,83.871-4.2a3.6,3.6,0,0,0,.73,2.382,2.421,2.421,0,0,0,1.955.872,2.3,2.3,0,0,0,1.92-.855,3.86,3.86,0,0,0,.671-2.432,3.927,3.927,0,0,0-.671-2.457A2.288,2.288,0,0,0,86.557-7.554Zm10.161.432a1.512,1.512,0,0,0-.974-.274,1.625,1.625,0,0,0-1.378.822,3.964,3.964,0,0,0-.554,2.241V0H92.525V-8.5h1.288v1.751h.031a2.991,2.991,0,0,1,.84-1.4,1.857,1.857,0,0,1,1.264-.5,2,2,0,0,1,.77.116Zm7.86,3.212H98.9a3.291,3.291,0,0,0,.722,2.191,2.42,2.42,0,0,0,1.9.772,3.821,3.821,0,0,0,2.5-.946V-.614a4.483,4.483,0,0,1-2.8.813A3.311,3.311,0,0,1,98.539-.959a4.92,4.92,0,0,1-.974-3.258A4.813,4.813,0,0,1,98.63-7.45,3.334,3.334,0,0,1,101.272-8.7a2.949,2.949,0,0,1,2.442,1.079,4.675,4.675,0,0,1,.864,3Zm-1.319-1.154a2.877,2.877,0,0,0-.538-1.834,1.788,1.788,0,0,0-1.472-.656,2.027,2.027,0,0,0-1.547.689,3.207,3.207,0,0,0-.785,1.8ZM112.4-8.5l-2.7,4.3L112.351,0h-1.5l-1.578-2.756q-.149-.257-.353-.647h-.031q-.039.075-.369.647L106.91,0h-1.484l2.74-4.167L105.544-8.5h1.5L108.6-5.595q.173.324.338.664h.031l2.01-3.569ZM114.354.183a.812.812,0,0,1-.616-.274.929.929,0,0,1-.255-.656.943.943,0,0,1,.255-.66.807.807,0,0,1,.616-.278.827.827,0,0,1,.628.278.935.935,0,0,1,.259.66.921.921,0,0,1-.259.656A.833.833,0,0,1,114.354.183Zm4.358-1.411h-.031V3.91h-1.288V-8.5h1.288v1.494h.031a3.02,3.02,0,0,1,2.78-1.693,2.88,2.88,0,0,1,2.426,1.141,4.915,4.915,0,0,1,.872,3.059,5.477,5.477,0,0,1-.982,3.416A3.2,3.2,0,0,1,121.122.2,2.663,2.663,0,0,1,118.712-1.229Zm-.031-3.428V-3.47a2.61,2.61,0,0,0,.648,1.789,2.1,2.1,0,0,0,1.645.735,2.118,2.118,0,0,0,1.833-.946,4.527,4.527,0,0,0,.664-2.631,3.565,3.565,0,0,0-.62-2.225,2.009,2.009,0,0,0-1.68-.805,2.228,2.228,0,0,0-1.806.826A3.141,3.141,0,0,0,118.68-4.657Zm11.9,4.574a2.371,2.371,0,0,1-1.2.266q-2.112,0-2.112-2.49v-5.03h-1.382V-8.5h1.382v-2.075l1.288-.44V-8.5h2.026v1.162h-2.026v4.79a2.073,2.073,0,0,0,.275,1.22,1.067,1.067,0,0,0,.911.365,1.305,1.305,0,0,0,.84-.282Z" transform="translate(-1.195 12.767)"/></svg>