<svg xmlns="http://www.w3.org/2000/svg" viewBox="0 0 80 80"><g fill="none" stroke="#fff" stroke-width="2" stroke-miterlimit="10" stroke-linecap="round" stroke-linejoin="round"><circle cx="29" cy="27" r="2"/><path d="M29 25c2-1 4-2 4-7S30.2 3.8 29 1v24zM27.3 28c-2-1.2-4-2.4-8 0s-11 9.5-12.8 12l20.8-12zM30.7 28c0 2.2 0 4.5 4 7 4.3 2.4 13.8 4.7 16.8 5L30.7 28zM32 75h-6l3-46zM9 75h62M59 75H47l4-24h4z"/><path d="M51 51l6 12-10 12"/><path d="M55 51l-6 12 10 12M51 47h4v4h-4zM65 45c.8-2.3.7-5.3-1-7-1.7-1.7-4.7-1.8-7-1l8 8zM45 57l6-6M65 45v29"/><path d="M38.5 60.5L43 56l3 3-4.5 4.4z"/><path d="M55 47l6-6"/></g></svg>