<svg xmlns="http://www.w3.org/2000/svg" viewBox="0 0 80 80"><g fill="none" stroke="#fff" stroke-width="2" stroke-miterlimit="10" stroke-linecap="round" stroke-linejoin="round"><path d="M9 7V1M79 15V9M75 15V9M9 75v-6M13 75v-6M5 75v-6M33.6 31c1.8-1.2 4-2 6.4-2 2.3 0 4.4.7 6.2 2L53 21c-3.8-2.5-8.2-4-13-4-5 0-9.7 1.6-13.5 4.4l7 9.7zM49 33.6c1.2 1.8 2 4 2 6.4 0 6-5 11-11 11-2.2 0-4.2-.6-6-1.7l-6.3 10C31.2 61.8 35.5 63 40 63c12.7 0 23-10.3 23-23 0-5-1.6-9.7-4.4-13.5l-9.7 7zM29 40c0-2.3.7-4.4 2-6.2L21 27c-2.5 3.8-4 8.2-4 13 0 5.3 1.8 10 4.8 14l9.5-7.3C30 44.7 29 42.5 29 40z"/><g><path d="M34 49.3L15 79H5M79 19H69L49 33.6M33.6 31L19 11H9"/></g></g></svg>