<svg xmlns="http://www.w3.org/2000/svg" viewBox="0 0 30 60"><symbol id="a" viewBox="0 0 30 30"><path fill="none" stroke-width="2" stroke-miterlimit="10" d="M16 29H3c-1 0-2-1-2-2V3c0-1 1-2 2-2h24c1 0 2 1 2 2v24c0 1-1 2-2 2h-6.7V18.2H24l.5-4.2h-4.2v-2.7c0-1.2.3-2 2-2h2.3v-4h-3.3c-3.2 0-5.4 2-5.4 5.5v3h-3.7v4.3H16v11z" stroke-linecap="round" stroke-linejoin="round"/></symbol><svg width="30" height="30" stroke="#000" stroke-opacity="0.15"><use xmlns:xlink="http://www.w3.org/1999/xlink" xlink:href="#a"/></svg><svg width="30" height="30" y="30" stroke="#1378bf"><use xmlns:xlink="http://www.w3.org/1999/xlink" xlink:href="#a"/></svg></svg>