<svg xmlns="http://www.w3.org/2000/svg" viewBox="0 0 80 80"><path fill="none" stroke="#1378BF" stroke-width="2" stroke-miterlimit="10" d="M40 5h16v4H40zM45 9h6v4h-6zM72.7 15l4.3 4.3M70 22l5-5M56.3 20.4C66 24 73 33 73 44c0 13.8-11.2 25-25 25h-8" stroke-linecap="round" stroke-linejoin="round"/><path fill="none" stroke="#1378BF" stroke-width="2" stroke-miterlimit="10" d="M23 75h25c17 0 31-14 31-31S65 13 48 13 17 27 17 44c0 10.3 5 19.4 12.7 25M9 27h26.7M27.2 41H1M30 55H7" stroke-linecap="round" stroke-linejoin="round"/><path fill="none" stroke="#1378BF" stroke-width="2" stroke-miterlimit="10" d="M49 39l3.4-19.6c-1.5-.3-3-.4-4.4-.4" stroke-linecap="round" stroke-linejoin="round"/><circle cx="48" cy="44" r="5" fill="none" stroke="#1378BF" stroke-width="2" stroke-miterlimit="10" stroke-linecap="round" stroke-linejoin="round"/></svg>