<svg xmlns="http://www.w3.org/2000/svg" viewBox="0 0 80 80"><g fill="none" stroke="#fff" stroke-width="2" stroke-miterlimit="10" stroke-linecap="round" stroke-linejoin="round"><path d="M31 25v18M41 46h7M41 49h7M54 41c-1.2-1.4-2.7-2-4.5-2S46 40 45 41.3c-1.3 1.5-2 3.5-2 5.7s.7 4.2 2 5.7c1 1.4 2.7 2.3 4.5 2.3s3.3-.6 4.5-2M36 30.5c0-2-1.6-3.5-3.5-3.5h-3c-2 0-3.5 1.6-3.5 3.5 0 2 1.6 3.5 3.5 3.5h3"/><path d="M26 37.5c0 2 1.6 3.5 3.5 3.5h3c2 0 3.5-1.6 3.5-3.5 0-2-1.6-3.5-3.5-3.5h-3"/><path d="M31 47v13H11V21H1L21 1l20 20H31M49 34V20h20v39h10L59 79 39 59h10"/></g></svg>