<?xml version="1.0" encoding="utf-8"?>
<!-- Generator: Adobe Illustrator 23.0.3, SVG Export Plug-In . SVG Version: 6.00 Build 0)  -->
<svg version="1.1" id="Layer_1" xmlns="http://www.w3.org/2000/svg" xmlns:xlink="http://www.w3.org/1999/xlink" x="0px" y="0px"
	 viewBox="0 0 30 60" style="enable-background:new 0 0 30 60;" xml:space="preserve">
<style type="text/css">
	
		.st0{fill:none;stroke:#000000;stroke-width:2;stroke-linecap:round;stroke-linejoin:round;stroke-miterlimit:10;stroke-opacity:0.15;}
	.st1{opacity:0.15;}
	.st2{fill:none;stroke:#1378BF;stroke-width:2;stroke-linecap:round;stroke-linejoin:round;stroke-miterlimit:10;}
	.st3{fill:#0079C3;}
</style>
<g>
	<path class="st0" d="M3,1h24c1,0,2,1,2,2v24c0,1-1,2-2,2H3c-1,0-2-1-2-2V3C1,2,2,1,3,1z"/>
	<circle class="st0" cx="15.1" cy="14.9" r="3.8"/>
	<path class="st0" d="M19.7,23.1h-9.2c-2,0-3.7-1.6-3.7-3.7v-9.2c0-2,1.6-3.7,3.7-3.7h9.2c2,0,3.7,1.6,3.7,3.7v9.2
		C23.4,21.5,21.8,23.1,19.7,23.1z"/>
	<circle class="st1" cx="19.7" cy="9.9" r="1.1"/>
</g>
<g>
	<path class="st2" d="M3,31h24c1,0,2,1,2,2v24c0,1-1,2-2,2H3c-1,0-2-1-2-2V33C1,32,2,31,3,31z"/>
	<circle class="st2" cx="15.1" cy="44.9" r="3.8"/>
	<circle class="st3" cx="19.7" cy="40" r="1.1"/>
	<path class="st2" d="M19.7,53.1h-9.2c-2,0-3.7-1.6-3.7-3.7v-9.2c0-2,1.6-3.7,3.7-3.7h9.2c2,0,3.7,1.6,3.7,3.7v9.2
		C23.4,51.5,21.8,53.1,19.7,53.1z"/>
</g>
</svg>
