<svg xmlns="http://www.w3.org/2000/svg" viewBox="0 0 80 80"><g fill="none" stroke="#fff" stroke-width="2" stroke-miterlimit="10" stroke-linecap="round" stroke-linejoin="round"><path d="M32.4 43H6.6c-1 0-1.7.7-2 1.6l-3 14C1 59.8 2 61 3.5 61h32c1.2 0 2-1.2 2-2.4l-3.2-14c-.3-1-1-1.6-2-1.6z"/><path d="M25 47H8.8c-.5 0-1 .3-1 .8L6 56M29 47h2M73.4 43H47.6c-1 0-1.7.7-2 1.6l-3 14c-.4 1.2.6 2.4 2 2.4h32c1.2 0 2-1.2 2-2.4l-3.2-14c-.3-1-1-1.6-2-1.6z"/><path d="M66 47H49.8c-.5 0-1 .3-1 .8L47 56M70 47h2M53.4 19H26.6c-1 0-1.7.7-2 1.6l-3 14c-.4 1.2.6 2.4 2 2.4h33c1.2 0 2-1.2 2-2.4l-3.2-14c-.3-1-1-1.6-2-1.6z"/><path d="M46 23H28.8c-.5 0-1 .3-1 .8L26 32M50 23h2"/></g></svg>