<svg xmlns="http://www.w3.org/2000/svg" viewBox="0 0 845.1 304.8"><defs><clipPath id="a"><path d="M0 128h676V0H0v128z"/></clipPath><clipPath id="b"><path d="M0 109.6h655.3V0H0v109.6z"/></clipPath></defs><g clip-path="url(#a)" transform="matrix(1.25 0 0 -1.25 0 160.13)"><path d="M488.2 60.2c0-8.5 3.8-14.8 13-14.8 5.5 0 10.7 2.5 15 6l6-9.4c-6.3-5.3-14.3-8.4-22.6-8.4-7.6 0-15 2.6-20.4 8-6 6.4-8 15-8 23.7 0 5.7.6 10.4 2 14 4 10.7 13 17.4 24.4 17.4 16 0 24-11.4 25.2-27 .2-3 .2-6.3.2-9.5h-34.8zm76 21.3c-4.8 3-11 0-14.2-4V35h-15.8v40.3c0 5.8-.3 12-2.2 17.7l14 3.8c1.7-2.6 2.4-5.6 2.6-8.6 4.6 6 12.5 11.2 20 7.3l-4.4-14zm-121.3-2c-2.6 2.4-5.5 4-9 4-9.3 0-9.8-12.8-9.8-19.5 0-7.3.4-17.2 10.4-17.2 3.3 0 6.2 1.3 8.4 4v28.8zm3.4-44.5c-.6 1-1 2.3-1 3.5-4-3.3-8.5-5-13.8-5-7.4 0-14 3-18.6 8.8-5 6-6.5 14-6.5 21.8 0 8.3 1.7 17.3 7 24 4.5 5.6 11.5 8.7 18.8 8.7 4 0 8-1 10.7-4-.5 3-.5 5.8-.5 8.7V122l15.5-2.4V57c0-7-.5-15.3 2.2-22h-13.8zm-80.6 24c-2-1.5-2.7-4-2.7-6.5 0-4.2 2.4-8.2 7-8.2 3.2 0 6 1.7 8.2 4l.2 13c-3.7 0-9.5.3-12.6-2.2m25.4-27c-3.5 1.5-6.6 3.8-8.5 7.2-4.7-4.7-9.3-6.5-15.8-6.5-8.4 0-15.2 2.6-19 10-1.3 2.4-2 5.3-2 8.8 0 8 3.3 14 10.6 17.5 6.3 3 15.2 4 22 3 0 5.5.4 11.6-7 11.6-6.2 0-12.5-3.2-17.4-7l-6.7 11.5c7.6 5 16.7 8.7 25.8 8.7 15 0 20.6-7.2 20.6-21.4V55c0-6 .4-9.6 5.6-13.3l-8.4-9.8zm-50.5 49.5l4.4 14c-7.4 3.8-15.3-1.4-20-7.4 0 3-.8 6-2.4 8.7l-14-3.8c2-5.7 2-12 2-17.8V35h16v42.6c3.2 4 9.3 7 14 4M307 103.2h-19.5V35h-16.7v68.3h-20v13.5h59l-2.8-13.5zM212 59c-2-1.5-3-4.5-2.7-7.4.3-4 2.7-7.4 7-7.4 3 0 6 1.7 8 4l.3 13c-3.7.2-9.5.4-12.6-2m25.4-27.3c-3.5 1.5-6.6 3.8-8.5 7.2-4.7-4.6-9.2-6.5-16-6.5-12 0-20.6 6.5-20.6 18.8 0 4 .8 7.4 2.4 10.4 5 9.5 20.6 11.3 30 10v2.6c0 5.4-.8 9-6.8 9-6.3 0-12.6-3-17.5-6.8L193.7 88c7.6 5 16.7 8.7 25.8 8.7C235 96.7 240 89 240 75.3V55c0-5.7.5-9.6 5.8-13.3l-8.4-9.8zm-49.7 4.3c-7.7-3.6-19.7-4.4-26.3 2-3.8 3.6-4 8.5-4 13.4v32.7h-6v11h6c0 4.6 0 9.4.7 14l16 4c-.4-6-.8-12-.8-18h14l-4-11h-10v-30c0-5 .4-9.7 6.2-9.7 2 0 4.5.3 6.2 1.2l2-9.7zm-58 41c-.4 4.6-4 8-8.4 8-4.8 0-8.2-3.6-9-8.2-.2-1.7-.4-3.5-.4-5.3h18c0 2 0 3.8-.2 5.7m-18.2-17.2c0-8.5 3.8-14.8 13-14.8 5.6 0 10.6 2.5 15 6l6-9.4c-6.3-5.3-14.3-8.4-22.6-8.4-12 0-21.5 6.2-26 17.2-3.4 8-3.5 20.3-.4 28.5 4 10.8 13 17.4 24.4 17.4 21.8 0 25.4-19 25.4-36.5h-34.8zM68.4 35l-3 43.7c-.4 4.6-.6 9-.7 13.7-.8-4.3-2-8.4-3-12.6L48.6 35h-14L23 78c-1.3 4.8-2.5 9.6-3.3 14.5 0-5-.3-9.8-.6-14.7L16.4 35H0L7.7 117h21l10.8-41c1.2-4.3 1.7-8.7 2.8-13 .8 4.6 2 9 3 13.4l11 40.6h21L84.4 35h-16zm436 47c-1.6 2-4 3.2-6.6 3.2-2.8 0-5-1-6.6-3-2.4-2.8-2.8-6.7-2.8-10.4h18.2c0 3.5 0 7.3-2.2 10.3"/><path fill="#f27d3a" d="M663.4 103.3V57.6c0-1 0-1.6-.5-2.6H676V34.5h-13c0-1 .4-2 .4-3.2V2.6L640.6 0v32.8c0 .5 0 1.6.5 2.6-1.5-.5-2.5-.5-3.6-.5h-49.8v16.3L622 128h25L621 70c-1-2-1.6-3.7-2.6-5.3-.5-1-1-2-1.6-3.7l-1.6-3.2c-.5-1-1.6-2-2-3.2 1 0 1 .5 1.5.5H641.6V58c0 5 0 8 .5 11.2 0 2.6.6 5.3 1.2 8l2 21 18.2 5z"/></g><g clip-path="url(#b)" transform="matrix(1.25 0 0 -1.25 0 304.76)"><path fill="#f27d3a" d="M655.3 40c0-11.3-5-21.5-14-28.7-10-8-23-11.3-35.6-11.3-6 0-12.4 1-18 3.5l1 13.5c5-1.7 10.3-2.5 15.2-2.5 13.7 0 28.4 8 28.4 23 0 9-5.6 15.3-14.3 16.5-8.4 1.2-18.7-2-25.8-4.2l5.2 59.8H651l-1.6-18H617L614.8 70c20.3 3.7 40.5-8.6 40.5-30"/><path d="M488.2 47.7c0-8.5 3.8-14.8 13-14.8 5.5 0 10.7 2.4 15 6l6-9.5C516 24.2 508 21 499.7 21c-7.6 0-15 2.7-20.4 8-6 6.5-8 15.2-8 23.8 0 5.7.6 10.4 2 14 4 10.7 13 17.4 24.4 17.4 16 0 24-11.4 25.2-27 .2-3 .2-6.3.2-9.5h-34.8zm76 21.3c-4.8 3-11 0-14.2-4V22.6h-15.8v40.3c0 5.8-.3 12-2.2 17.7l14 3.8c1.7-2.6 2.4-5.6 2.6-8.6 4.6 6 12.5 11.2 20 7.3l-4.4-14zM443 67c-2.6 2.4-5.5 4-9 4-9.3 0-9.8-12.8-9.8-19.5 0-7.3.4-17.2 10.4-17.2 3.3 0 6.2 1.3 8.4 4V67zm3.4-44.5c-.6 1-1 2.3-1 3.5-4-3.3-8.5-5-13.8-5-7.4 0-14 3-18.6 8.8-5 6-6.5 14-6.5 21.8 0 8.2 1.7 17.2 7 23.8 4.5 5.7 11.5 8.8 18.8 8.8 4 0 8-1 10.7-4-.5 3-.5 5.8-.5 8.7v20.6L458 107V44.6c0-7-.5-15.3 2.2-22h-13.8zm-80.6 24c-2-1.5-2.7-4-2.7-6.5 0-4.2 2.4-8.2 7-8.2 3.2 0 6 1.7 8.2 4l.2 13c-3.7 0-9.5.3-12.6-2.2m25.4-27.2c-3.5 1.6-6.6 4-8.5 7.3-4.7-4.7-9.3-6.5-15.8-6.5-8.4 0-15.2 2.6-19 10-1.3 2.4-2 5.3-2 8.8 0 8 3.3 14 10.6 17.5 6.3 3 15.2 4 22 3 0 5.5.4 11.6-7 11.6-6.2 0-12.5-3-17.4-6.8l-6.7 11.4c7.6 4.8 16.7 8.6 25.8 8.6 15 0 20.6-7.2 20.6-21.4V42.6c0-6 .4-9.7 5.6-13.4l-8.4-9.8zM340.7 69l4.4 14c-7.4 3.8-15.3-1.4-20-7.4 0 3-.8 6-2.4 8.6l-14-3.8c2-5.6 2-11.8 2-17.7V22.5h16V65c3.2 4 9.3 7 14 4M307 90.8h-19.5V22.5h-16.7v68.3h-20v13.5h59l-2.8-13.5zM212 46.6c-2-1.6-3-4.6-2.7-7.5.3-3.8 2.7-7.3 7-7.3 3 0 6 1.7 8 4l.3 13c-3.7.2-9.5.4-12.6-2m25.4-27.3c-3.5 1.6-6.6 4-8.5 7.3-4.7-4.6-9.2-6.5-16-6.5-12 0-20.6 6.5-20.6 18.8 0 4 .8 7.4 2.4 10.4 5 9.6 20.6 11.4 30 10.2V62c0 5.5-.8 9.2-6.8 9.2-6.3 0-12.6-3.2-17.5-7l-6.8 11.4c7.6 4.8 16.7 8.6 25.8 8.6 15.4 0 20.6-7.7 20.6-21.4V42.6c0-5.8.5-9.7 5.8-13.4l-8.4-9.8zm-49.7 4.4c-7.7-3.6-19.7-4.4-26.3 2-3.8 3.6-4 8.5-4 13.4V72h-6v10.8h6c0 4.7 0 9.5.7 14.2l16 4c-.4-6-.8-12-.8-18.2h14l-4-10.8h-10V41.8c0-4.8.4-9.6 6.2-9.6 2 0 4.5.3 6.2 1.2l2-9.6zm-58 41c-.4 4.6-4 8-8.4 8-4.8 0-8.2-3.6-9-8.2-.2-1.8-.4-3.6-.4-5.4h18c0 2 0 3.8-.2 5.7m-18.2-17.3c0-8.5 3.8-14.8 13-14.8 5.6 0 10.6 2.4 15 6l6-9.5c-6.3-5.3-14.3-8.4-22.6-8.4-12 0-21.5 6.3-26 17.3-3.4 8-3.5 20.3-.4 28.5 4 10.8 13 17.4 24.4 17.4 21.8 0 25.4-19 25.4-36.5h-34.8zM68.4 22.5l-3 43.7c-.4 4.6-.6 9-.7 13.7-.8-4.4-2-8.5-3-12.7l-13-44.8h-14L23 65.5c-1.3 4.8-2.5 9.6-3.3 14.5 0-5-.3-9.8-.6-14.7l-2.7-42.7H0l7.7 81.7h21l10.8-41c1.2-4.3 1.7-8.7 2.8-13 .8 4.6 2 9 3 13.4l11 40.6h21l7.2-81.8h-16zm436 47c-1.6 2-4 3.2-6.6 3.2-2.8 0-5-1-6.6-3-2.4-2.8-2.8-6.7-2.8-10.4h18.2c0 3.5 0 7.3-2.2 10.3"/></g></svg>