<svg xmlns="http://www.w3.org/2000/svg" viewBox="0 0 30 60"><symbol id="a"><g fill="none" stroke-width="2" stroke-miterlimit="10" stroke-linecap="round" stroke-linejoin="round"><path d="M1 9h28V3c0-1-1-2-2-2H3C2 1 1 2 1 3v6zM3 29h24c1 0 2-1 2-2V9H1v18c0 1 1 2 2 2zM25 5h-1M21 5h-1M17 5h-1"/><path d="M5 22v-7l3 4 3-4v7M14 15h4-2v7M25 15h-4v3h2c1 0 2 1 2 2s-1 2-2 2h-2"/></g></symbol><svg width="30" height="30"><use stroke="#a1aeb7" xmlns:xlink="http://www.w3.org/1999/xlink" xlink:href="#a"/></svg><svg width="30" height="30" y="30"><use stroke="#0578be" xmlns:xlink="http://www.w3.org/1999/xlink" xlink:href="#a"/></svg></svg>