<?xml version="1.0" encoding="utf-8"?>
<!-- Generator: Adobe Illustrator 26.2.1, SVG Export Plug-In . SVG Version: 6.00 Build 0)  -->
<svg version="1.1" id="Layer_1" xmlns="http://www.w3.org/2000/svg" xmlns:xlink="http://www.w3.org/1999/xlink" x="0px" y="0px"
	 viewBox="0 0 124 40" style="enable-background:new 0 0 124 40;" xml:space="preserve">
<style type="text/css">
	.st0{fill:#FFFFFF;}
</style>
<path class="st0" d="M8,40H0V0h32c4.411,0,8,3.589,8,8v8c0,4.411-3.589,8-8,8H16v-8h16V8H8V40z"/>
<g>
	<polygon class="st0" points="36,40 16,40 16,32 32,32 	"/>
</g>
<g>
	<path class="st0" d="M79.5,27h-2c-3.584,0-6.5-2.916-6.5-6.5v-6c0-3.584,2.916-6.5,6.5-6.5h2c3.584,0,6.5,2.916,6.5,6.5v6
		C86,24.084,83.084,27,79.5,27z M77.5,11c-1.93,0-3.5,1.57-3.5,3.5v6c0,1.93,1.57,3.5,3.5,3.5h2c1.93,0,3.5-1.57,3.5-3.5v-6
		c0-1.93-1.57-3.5-3.5-3.5H77.5z"/>
	<path class="st0" d="M117.5,27h-2c-3.584,0-6.5-2.916-6.5-6.5v-6c0-3.584,2.916-6.5,6.5-6.5h2c3.584,0,6.5,2.916,6.5,6.5v6
		C124,24.084,121.084,27,117.5,27z M115.5,11c-1.93,0-3.5,1.57-3.5,3.5v6c0,1.93,1.57,3.5,3.5,3.5h2c1.93,0,3.5-1.57,3.5-3.5v-6
		c0-1.93-1.57-3.5-3.5-3.5H115.5z"/>
	<path class="st0" d="M98.5,8h-2c-1.289,0-2.488,0.382-3.5,1.032V0h-3v20.5c0,3.584,2.916,6.5,6.5,6.5h2c3.584,0,6.5-2.916,6.5-6.5
		v-6C105,10.916,102.084,8,98.5,8z M102,20.5c0,1.93-1.57,3.5-3.5,3.5h-2c-1.93,0-3.5-1.57-3.5-3.5v-6c0-1.93,1.57-3.5,3.5-3.5h2
		c1.93,0,3.5,1.57,3.5,3.5V20.5z"/>
	<path class="st0" d="M64.476,27h3.427l-5.557-10.072C64.977,16.519,67,14.244,67,11.5v-3C67,5.468,64.532,3,61.5,3H52v24h3V17
		h3.959L64.476,27z M55,6h6.5C62.879,6,64,7.121,64,8.5v3c0,1.379-1.121,2.5-2.5,2.5H55V6z"/>
</g>
<g>
	<path class="st0" d="M52.993,33.005l0.032,0.762c0.503-0.593,1.183-0.889,2.037-0.889c0.961,0,1.614,0.368,1.961,1.104
		c0.229-0.33,0.526-0.597,0.893-0.8s0.799-0.305,1.298-0.305c1.507,0,2.272,0.798,2.298,2.394v4.602h-1.174v-4.532
		c0-0.491-0.112-0.858-0.337-1.102s-0.601-0.364-1.13-0.364c-0.436,0-0.798,0.13-1.086,0.39c-0.287,0.261-0.454,0.61-0.501,1.051
		v4.558h-1.181v-4.5c0-0.999-0.488-1.498-1.467-1.498c-0.77,0-1.297,0.327-1.58,0.983v5.015h-1.174v-6.868H52.993z"/>
	<path class="st0" d="M67.783,39.873c-0.067-0.136-0.123-0.377-0.165-0.724C67.072,39.717,66.421,40,65.663,40
		c-0.677,0-1.232-0.191-1.666-0.574s-0.651-0.869-0.651-1.457c0-0.715,0.272-1.271,0.816-1.666s1.309-0.594,2.295-0.594H67.6V35.17
		c0-0.411-0.123-0.738-0.369-0.981c-0.245-0.243-0.606-0.364-1.085-0.364c-0.419,0-0.771,0.105-1.054,0.316
		c-0.283,0.212-0.426,0.468-0.426,0.769h-1.18c0-0.343,0.121-0.674,0.364-0.993s0.573-0.572,0.99-0.759s0.875-0.279,1.374-0.279
		c0.792,0,1.412,0.198,1.86,0.594s0.682,0.94,0.698,1.634v3.162c0,0.63,0.08,1.132,0.241,1.504v0.102H67.783z M65.834,38.979
		c0.369,0,0.718-0.096,1.048-0.286s0.569-0.438,0.718-0.743v-1.408h-0.921c-1.438,0-2.158,0.421-2.158,1.263
		c0,0.368,0.123,0.656,0.368,0.863S65.449,38.979,65.834,38.979z"/>
	<path class="st0" d="M74.195,34.059c-0.178-0.029-0.371-0.045-0.578-0.045c-0.771,0-1.293,0.328-1.568,0.984v4.875h-1.174v-6.868
		h1.143l0.02,0.794c0.385-0.614,0.931-0.921,1.637-0.921c0.229,0,0.402,0.029,0.521,0.089V34.059z"/>
	<path class="st0" d="M77.451,36.693l-0.736,0.768v2.412H75.54v-9.75h1.175v5.896l0.628-0.755l2.14-2.26h1.429l-2.673,2.869
		l2.983,3.999h-1.377L77.451,36.693z"/>
	<path class="st0" d="M85.106,40c-0.931,0-1.688-0.306-2.271-0.917s-0.877-1.43-0.877-2.454v-0.215c0-0.682,0.131-1.29,0.391-1.825
		c0.261-0.535,0.624-0.954,1.092-1.257s0.975-0.454,1.521-0.454c0.893,0,1.587,0.294,2.082,0.882
		c0.495,0.589,0.743,1.431,0.743,2.527v0.488h-4.653c0.017,0.677,0.215,1.224,0.594,1.641s0.86,0.625,1.444,0.625
		c0.414,0,0.766-0.084,1.053-0.254c0.288-0.169,0.54-0.393,0.756-0.672l0.717,0.559C87.12,39.558,86.257,40,85.106,40z
		 M84.96,33.843c-0.474,0-0.872,0.173-1.193,0.518s-0.521,0.828-0.597,1.45h3.44v-0.089c-0.034-0.597-0.194-1.059-0.482-1.387
		S85.451,33.843,84.96,33.843z"/>
	<path class="st0" d="M90.997,31.342v1.663h1.281v0.907h-1.281v4.265c0,0.276,0.057,0.482,0.171,0.62s0.309,0.207,0.584,0.207
		c0.136,0,0.321-0.025,0.559-0.076v0.946C92.002,39.958,91.701,40,91.409,40c-0.524,0-0.92-0.158-1.188-0.477
		c-0.266-0.316-0.399-0.768-0.399-1.352v-4.26h-1.251v-0.907h1.251v-1.663H90.997z"/>
	<path class="st0" d="M97.908,38.051c0-0.316-0.119-0.563-0.358-0.739s-0.656-0.327-1.251-0.454s-1.066-0.279-1.415-0.457
		c-0.35-0.178-0.607-0.389-0.774-0.635c-0.167-0.245-0.251-0.537-0.251-0.875c0-0.563,0.238-1.039,0.714-1.429
		c0.477-0.39,1.085-0.584,1.825-0.584c0.778,0,1.41,0.201,1.895,0.603c0.484,0.402,0.727,0.917,0.727,1.543h-1.18
		c0-0.321-0.137-0.599-0.41-0.832c-0.272-0.232-0.616-0.349-1.031-0.349c-0.428,0-0.762,0.093-1.003,0.279s-0.362,0.43-0.362,0.729
		c0,0.284,0.112,0.498,0.337,0.642s0.63,0.281,1.216,0.413c0.586,0.131,1.061,0.287,1.425,0.469c0.364,0.183,0.634,0.401,0.81,0.657
		s0.264,0.568,0.264,0.937c0,0.613-0.246,1.105-0.736,1.476C97.856,39.814,97.219,40,96.436,40c-0.55,0-1.037-0.098-1.46-0.292
		s-0.754-0.467-0.993-0.815c-0.239-0.35-0.358-0.727-0.358-1.133h1.174c0.021,0.393,0.179,0.705,0.473,0.936
		s0.683,0.346,1.165,0.346c0.444,0,0.801-0.09,1.069-0.27S97.908,38.352,97.908,38.051z"/>
</g>
</svg>
