<svg xmlns="http://www.w3.org/2000/svg" viewBox="0 0 80 80"><g fill="none" stroke="#1378BF" stroke-width="2" stroke-miterlimit="10" stroke-linecap="round" stroke-linejoin="round"><path d="M5 73h70c2.2 0 4-1.8 4-4V11c0-2.2-1.8-4-4-4H5c-2.2 0-4 1.8-4 4v58c0 2.2 1.8 4 4 4z"/><line x1="75" x2="74" y1="13" y2="13"/><line x1="70" x2="69" y1="13" y2="13"/><line x1="65" x2="64" y1="13" y2="13"/><line x1="40" x2="40" y1="65" y2="65"/><line x1="79" x2="1" y1="19" y2="19"/><path d="M35 56v3c0 3.3-2.7 6-6 6h-8c-3.3 0-6-2.7-6-6V33c0-3.3 2.7-6 6-6h8c3.3 0 6 2.7 6 6v13M45 36v-3c0-3.3 2.7-6 6-6h8c3.3 0 6 2.7 6 6v26c0 3.3-2.7 6-6 6h-8c-3.3 0-6-2.7-6-6V46"/><line x1="11" x2="7" y1="59" y2="63"/><polyline points="61 41 57 45 49 37 42 44 31 55 23 47 19 51"/><line x1="73" x2="69" y1="29" y2="33"/><polyline points="73 33 73 29 69 29"/></g></svg>