<?xml version="1.0" encoding="utf-8"?><svg width="200" height="200" viewBox="0 0 200 200" xmlns="http://www.w3.org/2000/svg" xmlns:xlink="http://www.w3.org/1999/xlink"><svg width="40" height="40" fill="none" viewBox="-5 -5 40 40" id="ae" x="40" xmlns="http://www.w3.org/2000/svg"><path d="M15 30c8.284 0 15-6.716 15-15 0-8.284-6.716-15-15-15C6.716 0 0 6.716 0 15c0 8.284 6.716 15 15 15z" fill="#F0F0F0"/><path d="M8.479 20.215l1.306 8.848c1.623.609 3.381.937 5.215.937 6.445 0 11.953-4.072 14.063-9.785H8.479z" fill="#000"/><path d="M8.479 9.785L9.785.937C11.408.329 13.166 0 15 0c6.445 0 11.953 4.072 14.063 9.785H8.479z" fill="#6DA544"/><path d="M0 15c0 6.445 4.072 11.953 9.785 14.063V.938C4.072 3.046 0 8.555 0 15z" fill="#A2001D"/></svg><svg width="40" height="40" fill="none" viewBox="-5 -5 40 40" id="cs" y="120" xmlns="http://www.w3.org/2000/svg"><path d="M15 30c8.284 0 15-6.716 15-15 0-8.284-6.716-15-15-15C6.716 0 0 6.716 0 15c0 8.284 6.716 15 15 15z" fill="#D80027"/><path d="M8.203 9.129l1.3 3.984h4.19l-3.386 2.461 1.289 3.985-3.399-2.461-3.398 2.46 1.306-3.984-3.398-2.46h4.207l1.29-3.985zm9.58 14.103l-.996-1.218-1.465.568.85-1.313-.979-1.23 1.524.41.85-1.33.081 1.57 1.524.41-1.465.563.076 1.57zm1.963-3.574l.469-1.5-1.277-.92 1.57-.023.469-1.506.503 1.488 1.57-.017-1.259.937.492 1.488-1.289-.914-1.248.967zm2.66-8.642l-.691 1.406 1.125 1.096-1.553-.223-.691 1.406-.27-1.558-1.57-.223 1.4-.732-.263-1.547 1.125 1.095 1.388-.72zm-4.582-4.278l-.117 1.559 1.465.586-1.535.375-.117 1.582-.82-1.348-1.524.387.996-1.207-.82-1.33 1.464.586 1.008-1.19z" fill="#FFDA44"/></svg><svg width="40" height="40" fill="none" viewBox="-5 -5 40 40" id="cz" y="40" xmlns="http://www.w3.org/2000/svg"><g clip-path="url(#cclip0)"><path d="M15 30c8.284 0 15-6.716 15-15 0-8.284-6.716-15-15-15C6.716 0 0 6.716 0 15c0 8.284 6.716 15 15 15z" fill="#F0F0F0"/><path d="M13.696 15S4.402 25.609 4.393 25.607A14.953 14.953 0 0015 30c8.284 0 15-6.716 15-15H13.696z" fill="#D80027"/><path d="M4.393 4.393c-5.857 5.858-5.857 15.356 0 21.214L15 15 4.393 4.393z" fill="#0052B4"/></g><defs><clipPath id="cclip0"><path fill="#fff" d="M0 0h30v30H0z"/></clipPath></defs></svg><svg width="40" height="40" fill="none" viewBox="-5 -5 40 40" id="de" x="40" y="40" xmlns="http://www.w3.org/2000/svg"><g clip-path="url(#dclip0)"><path d="M.938 20.215C3.046 25.928 8.555 30 15 30c6.445 0 11.953-4.072 14.063-9.785L15 18.915l-14.063 1.3z" fill="#FFDA44"/><path d="M15 0C8.555 0 3.047 4.072.937 9.785L15 11.085l14.063-1.3C26.953 4.072 21.444 0 15 0z" fill="#000"/><path d="M.938 9.785A14.674 14.674 0 000 15c0 1.834.328 3.592.938 5.215h28.125C29.672 18.592 30 16.834 30 15s-.328-3.592-.938-5.215H.938z" fill="#D80027"/></g><defs><clipPath id="dclip0"><path fill="#fff" d="M0 0h30v30H0z"/></clipPath></defs></svg><svg width="40" height="40" fill="none" viewBox="-5 -5 40 40" id="ee" x="80" xmlns="http://www.w3.org/2000/svg"><path d="M0 15c0 1.834.328 3.592.938 5.215L15 20.87l14.063-.656C29.672 18.592 30 16.834 30 15s-.328-3.592-.938-5.215L15 9.13.937 9.785A14.674 14.674 0 000 15z" fill="#000"/><path d="M15 0C8.555 0 3.047 4.072.937 9.785h28.125C26.953 4.072 21.445 0 15 0z" fill="#0052B4"/><path d="M29.063 20.215H.938C3.046 25.928 8.555 30 15 30c6.445 0 11.953-4.072 14.063-9.785z" fill="#F0F0F0"/></svg><svg width="40" height="40" fill="none" viewBox="-5 -5 40 40" id="en" x="80" y="40" xmlns="http://www.w3.org/2000/svg"><path d="M15 30c8.284 0 15-6.716 15-15 0-8.284-6.716-15-15-15C6.716 0 0 6.716 0 15c0 8.284 6.716 15 15 15z" fill="#F0F0F0"/><path d="M3.105 5.86a14.968 14.968 0 00-2.59 5.226H8.32L3.105 5.87V5.86zm26.38 5.226a14.942 14.942 0 00-2.579-5.215l-5.226 5.203h7.804v.012zM.514 18.914a14.94 14.94 0 002.579 5.215l5.226-5.215H.516zM24.142 3.105a14.968 14.968 0 00-5.227-2.59V8.32l5.215-5.215h.012zM5.859 26.895a14.968 14.968 0 005.227 2.59V21.68L5.87 26.895H5.86zM11.086.515A14.94 14.94 0 005.87 3.095l5.215 5.226V.516zm7.828 28.97a14.941 14.941 0 005.215-2.579l-5.203-5.226v7.804h-.012zm2.766-10.57l5.215 5.214a14.765 14.765 0 002.59-5.215H21.68z" fill="#0052B4"/><path d="M29.871 13.043H16.957V.129A14.383 14.383 0 0015 0c-.662 0-1.318.041-1.957.129v12.914H.129A14.383 14.383 0 000 15c0 .662.041 1.318.129 1.957h12.914v12.914c.645.088 1.289.129 1.957.129.662 0 1.318-.041 1.957-.129V16.957h12.914C29.96 16.312 30 15.668 30 15c0-.662-.041-1.318-.129-1.957z" fill="#D80027"/><path d="M18.914 18.914l6.691 6.691c.311-.304.604-.627.88-.96l-5.725-5.73h-1.846zm-7.828 0l-6.691 6.691c.304.311.626.604.96.88l5.73-5.725v-1.846zm0-7.828L4.395 4.395c-.311.304-.604.626-.88.96l5.725 5.73h1.846zm7.828 0l6.691-6.691c-.304-.311-.627-.604-.96-.88l-5.73 5.725v1.846z" fill="#D80027"/></svg><svg width="40" height="40" fill="none" viewBox="-5 -5 40 40" id="es" y="80" xmlns="http://www.w3.org/2000/svg"><path d="M0 15c0 1.834.328 3.592.938 5.215L15 21.52l14.063-1.306C29.672 18.592 30 16.834 30 15s-.328-3.592-.938-5.215L15 8.48.937 9.785A14.674 14.674 0 000 15z" fill="#FFDA44"/><path d="M29.063 9.785C26.953 4.072 21.444 0 15 0S3.047 4.072.937 9.785h28.125zM.938 20.215C3.046 25.928 8.555 30 15 30c6.445 0 11.953-4.072 14.063-9.785H.938z" fill="#D80027"/></svg><svg width="40" height="40" fill="none" viewBox="-5 -5 40 40" id="hr" x="40" y="80" xmlns="http://www.w3.org/2000/svg"><path d="M29.063 20.215C29.672 18.592 30 16.834 30 15s-.328-3.592-.938-5.215L15 8.48.937 9.785A14.674 14.674 0 000 15c0 1.834.328 3.592.938 5.215L15 21.52l14.063-1.306z" fill="#fff"/><path d="M29.063 9.785C26.953 4.072 21.444 0 15 0S3.047 4.072.937 9.785h28.125z" fill="red"/><path d="M15 30c6.445 0 11.953-4.072 14.063-9.785H.938C3.046 25.928 8.555 30 15 30z" fill="#171796"/><path d="M15.152 23.094c3.353 0 6.096-2.743 6.096-6.096V9.755H9.056v7.243c0 3.353 2.743 6.096 6.096 6.096z" fill="red"/><path d="M15.152 22.996c3.289 0 5.98-2.69 5.98-5.98V9.873H9.172v7.145c0 3.289 2.691 5.98 5.98 5.98z" fill="#fff"/><path d="M11.696 10.097h-2.3v2.528h2.3v-2.528zM11.696 15.153h2.301v-2.528h-2.3v2.528zM9.395 17.003c0 .23.014.456.04.678h2.261v-2.528h-2.3v1.85zM16.299 15.153h-2.301v2.528h2.3v-2.528zM16.299 20.21H18.6V17.68h-2.301v2.529zM18.6 21.593c.51-.386.955-.853 1.314-1.383H18.6v1.383zM11.696 20.21h2.302V17.68h-2.302v2.529zM10.38 20.21c.36.53.805.999 1.316 1.384V20.21H10.38zM15.549 22.738c.255-.018.505-.052.75-.102V20.21h-2.301v2.426a5.698 5.698 0 001.55.102h.001z" fill="red"/><path d="M20.858 17.681c.027-.223.041-.45.041-.68v-1.848h-2.3v2.529h2.26zM16.299 15.153H18.6v-2.528h-2.301v2.528zM16.299 10.097h-2.301v2.528h2.3v-2.528zM20.9 12.625v-2.528h-2.3v2.528h2.3z" fill="red"/><path d="M21.028 9.68l1.427-3.234-1.087-1.755-1.801.666-1.265-1.445-1.666.955L15.15 3.65l-1.485 1.217-1.666-.955-1.265 1.445-1.801-.666-1.088 1.755L9.27 9.681a14.226 14.226 0 015.88-1.265c2.093 0 4.083.452 5.878 1.264z" fill="#fff"/><path d="M10.774 5.5l-.003.003-1.786-.661-1 1.614.383.87.97 2.202c.724-.32 1.48-.583 2.26-.782L10.773 5.5z" fill="#0093DD"/><path d="M10.67 7.096a.875.875 0 01-.773 1.278.875.875 0 01-.856-.706.878.878 0 001.63-.572z" fill="#fff"/><path d="M9.87 5.888l-.002.015-.061.313.24.21.011.01-.014.004-.301.104-.062.314-.003.014-.011-.01-.24-.21-.303.104-.014.005.003-.015.06-.313-.24-.21-.01-.01.013-.005.302-.103.062-.314.003-.014.01.01.242.209.302-.103.014-.005z" fill="#000"/><path d="M9.508 6.333l.225.196.282-.097-.507-.099zM9.51 6.323l.507.1-.224-.197-.283.097zM8.965 6.216l.507.1-.225-.197-.282.097zM9.47 6.326l-.507-.1.225.197.283-.097zM9.499 6.307l.34-.39-.283.096-.057.294zM9.134 6.725l.34-.39-.283.097-.057.293zM9.482 6.342l-.34.39.282-.097.058-.293zM9.846 5.924l-.34.39.283-.098.057-.292zM9.48 6.308l-.168-.489-.058.293.225.196zM9.66 6.833l-.168-.489-.058.293.225.196zM9.501 6.34l.168.49.058-.293-.226-.196zM9.321 5.816l.168.489.057-.294-.225-.195z" fill="#F7DB17"/><path d="M13.68 5.014l-.003.003-1.652-.947-1.252 1.43.824 3.246a14.36 14.36 0 012.36-.394l-.277-3.338z" fill="#171796"/><path d="M11.393 7.94a15.173 15.173 0 012.495-.416l-.07-.844c-.9.075-1.78.223-2.633.44l.208.82zM10.979 6.31a16.85 16.85 0 012.77-.464l-.069-.828c-.993.082-1.964.246-2.906.486l.205.805z" fill="red"/><path d="M16.627 5.015l-.004.002L15.15 3.81l-1.47 1.205.277 3.337a14.496 14.496 0 012.392 0l.278-3.337z" fill="#0093DD"/><path d="M15.147 6.516c-.003 0-.007.001-.01.007l-.085.111c-.03.01-.037.028-.026.054-.04-.004-.045.03-.047.067-.038-.059-.08-.075-.126-.047-.001-.036-.029-.053-.068-.061a.128.128 0 01-.067-.023l-.026-.016c-.02-.014-.035 0-.027.011l.124.202c-.002.012.001.023.014.032l.021.061-.005.018c-.034-.017-.068-.019-.102-.021-.027-.001-.045-.008-.056-.021-.009-.01-.014-.004-.014.012 0 .083.025.157.092.231l-.107.004c-.012 0-.015.006-.011.016.019.047.052.09.127.118a.101.101 0 00-.055.08c-.002.036-.012.06-.033.071-.01.005-.013.01-.004.017.04.028.087.03.138.017a.217.217 0 00-.03.132.163.163 0 00.095-.008.153.153 0 00-.008.047.125.125 0 01-.016.053c-.005.006-.01.013 0 .016a.23.23 0 00.142-.007c0 .038 0 .075.012.113.003.009.01.015.02.004a.28.28 0 01.08-.08.057.057 0 00.025.033c.015.008.023.026.024.053 0 .005 0 .01.005.014.023 0 .08-.059.091-.093.032.02.044.039.068.072.009.012.016.004.02-.004a.439.439 0 00.01-.112.23.23 0 00.142.007c.01-.003.005-.01 0-.016a.146.146 0 01-.017-.056c-.001-.02-.002-.035-.007-.045.032.01.063.017.095.008a.217.217 0 00-.032-.131c.05.012.101.011.14-.017.01-.007.006-.012-.004-.017-.02-.011-.03-.036-.032-.07a.1.1 0 00-.056-.08.205.205 0 00.128-.12c.003-.01 0-.015-.012-.016l-.11-.004a.324.324 0 00.094-.231c0-.017-.006-.023-.014-.013-.012.014-.028.021-.054.023-.035.002-.068.004-.102.02l-.005-.018.024-.06c.013-.009.016-.02.014-.032.04-.067.079-.135.12-.202.009-.012-.007-.025-.026-.011l-.026.016a.13.13 0 01-.068.023c-.039.008-.065.025-.066.061-.046-.027-.088-.011-.126.048-.002-.037-.007-.071-.047-.067.012-.026.003-.045-.028-.055-.028-.039-.07-.073-.1-.111-.004-.006-.007-.008-.01-.007z" fill="#000"/><path d="M15.539 6.731c-.008-.004-.02.003-.025.015-.006.012-.005.027.003.03.006.004.013 0 .018-.008l.003-.006.001-.001c.006-.012.008-.025 0-.03zM14.763 6.731c.008-.004.02.003.026.015.005.012.005.026-.003.03s-.015-.004-.021-.016c-.006-.012-.01-.024-.002-.029zM15.466 6.872a.01.01 0 000 .018.01.01 0 100-.018zM14.842 6.872a.01.01 0 000 .018c.005 0 .009-.004.009-.01a.009.009 0 00-.01-.008zM15.507 6.825a2.916 2.916 0 00-.35-.021c-.117 0-.234.006-.351.018-.005.001-.004.014.002.013.117-.011.233-.017.349-.017.115 0 .23.006.345.02.006 0 .008-.013.005-.013z" fill="#F7DB17"/><path d="M14.803 6.812c.118-.012.236-.019.354-.018.117 0 .233.006.35.02l.017-.028a.018.018 0 01-.014-.001c-.012-.006-.014-.025-.005-.043.008-.017.025-.027.037-.02.006.002.01.009.01.017l.07-.115c-.032.02-.052.034-.09.04-.044.006-.064.02-.058.047.006.024-.008.02-.03.008-.05-.026-.085.011-.102.055-.011.029-.024.028-.026-.002V6.74c-.004-.035-.015-.044-.034-.035-.025.012-.027.004-.021-.009.004-.009.013-.02.01-.034-.002-.01-.01-.014-.024-.015-.028-.038-.072-.075-.1-.113l-.086.113c-.013 0-.022.005-.024.015-.003.014.008.024.013.034.006.012.003.02-.022.008-.02-.009-.028 0-.032.035a.495.495 0 00-.002.032c0 .03-.014.03-.025.002-.018-.044-.055-.081-.104-.055-.022.013-.031.016-.028-.008.004-.027-.017-.041-.06-.048-.04-.005-.058-.018-.09-.039l.065.106a.018.018 0 01.008-.009c.012-.006.029.004.037.021.009.018.006.037-.005.043a.02.02 0 01-.005.001l.015.026zM15.482 6.953l-.004.001c-.007.003-.012.01-.02.02a.268.268 0 01-.033.029c-.002.001-.004.003-.007-.001s-.001-.006 0-.007a.287.287 0 00.044-.043 2.276 2.276 0 00-.044-.004.151.151 0 00-.034.015.062.062 0 00-.021.019c-.001.002-.003.004-.007.002-.004-.003-.003-.005-.002-.007a.07.07 0 01.025-.023.131.131 0 01.016-.008 2.843 2.843 0 00-.05-.004.056.056 0 00-.018.017c-.001.002-.002.004-.007.002-.004-.003-.002-.005 0-.007a.082.082 0 01.01-.012V6.94a2.913 2.913 0 00-.038-.002.054.054 0 00-.014.02c-.001.002-.002.004-.007.003-.004-.002-.003-.004-.002-.007a.063.063 0 01.007-.012c0-.002.002-.004.004-.005a3.12 3.12 0 00-.056 0 .05.05 0 00-.017.017c-.002.002-.003.005-.007.002-.004-.002-.003-.004-.002-.007a.05.05 0 01.01-.011c0-.002.002-.003.003-.003l-.057-.001h-.056l.004.004a.06.06 0 01.009.011c.001.003.002.005-.002.007-.004.003-.005 0-.007-.002a.05.05 0 00-.018-.018l-.002-.001-.053.001.004.006a.054.054 0 01.007.012c.001.003.002.005-.002.007-.005.002-.006 0-.007-.003a.053.053 0 00-.016-.021l-.037.002.002.002a.066.066 0 01.01.012c.001.002.002.004-.002.006-.003.003-.005.001-.006 0a.066.066 0 00-.019-.019c-.018 0-.035.002-.052.003a.13.13 0 01.02.01c.01.006.018.014.024.023 0 .002.002.004-.002.006-.004.003-.005 0-.007-.001a.06.06 0 00-.021-.02.16.16 0 00-.038-.015 1.772 1.772 0 00-.042.003.28.28 0 00.045.045c.002.001.004.003 0 .007-.002.004-.004.002-.006 0a.273.273 0 01-.033-.029l-.02-.021a.247.247 0 00-.09-.023c-.023-.002-.049-.001-.07-.012a.156.156 0 00.019.035c.008.01.019.019.032.023.002 0 .004.003.004.004a.124.124 0 00.026.06.1.1 0 00.029.023.154.154 0 01-.027-.04.124.124 0 01-.011-.064c0-.003 0-.005.005-.005s.004.003.004.006a.113.113 0 00.011.06.167.167 0 00.045.053c.004.003 0 .01-.004.009a.122.122 0 01-.06-.036.13.13 0 01-.027-.061.072.072 0 01-.035-.026.154.154 0 01-.018-.032.302.302 0 00.07.176c.01.012.026.029.04.034.015.005.015.015-.003.016h-.016c.013.004.025.01.036.016.02.011.034.025.035.042 0 .003 0 .005-.005.005s-.005-.002-.005-.004c-.001-.013-.013-.025-.03-.035a.307.307 0 00-.062-.024h-.071a.166.166 0 00.073.032.131.131 0 01.036.014c.011.007.02.015.028.023.001.002.003.004-.001.007s-.005.002-.007 0a.088.088 0 00-.025-.021.122.122 0 00-.033-.013.218.218 0 01-.084-.04c.028.062.07.09.13.107l.009.003h.001a.555.555 0 00.041.01l.04.005c.003 0 .006 0 .005.005 0 .005-.003.005-.005.005a.477.477 0 01-.068-.011.123.123 0 01-.016.002c-.036.002-.065.034-.068.076v.003a.26.26 0 01.043-.033c.018-.01.037-.016.056-.011.002 0 .005.001.003.006-.001.005-.003.004-.006.003-.016-.004-.033 0-.049.01a.295.295 0 00-.049.04.087.087 0 01-.031.058c.01.005.016.01.025.007l.04-.017a.16.16 0 01.044-.009c.002 0 .005 0 .005.005s-.002.005-.005.005a.147.147 0 00-.04.008.41.41 0 00-.035.014c.034.008.071 0 .103-.012.01-.003.017-.006.021-.006.008-.005.017-.008.027-.012a.116.116 0 01.028-.01c.002 0 .005 0 .005.005s-.002.005-.004.005a.061.061 0 00-.035.013c0 .003-.01.009-.019.015a.115.115 0 00-.043.055.189.189 0 00-.01.034.23.23 0 01.031-.047.162.162 0 01.053-.04c.003-.002.005-.003.007.001.002.005 0 .006-.002.007a.149.149 0 00-.05.039.231.231 0 00-.034.053c-.005.01-.002 0-.007.013a.363.363 0 01.05-.047c.02-.016.044-.024.065-.02.002 0 .005 0 .004.005s-.004.004-.006.004c-.018-.003-.039.005-.057.019a.427.427 0 00-.057.056.185.185 0 00.084-.014c.014-.004.028-.02.037-.023a.203.203 0 01.025-.026c.002-.001.004-.003.007 0 .003.004.001.006 0 .008a.166.166 0 00-.03.032l-.004.002c-.009.011-.023.025-.026.037-.01.033-.004.058-.02.09a.096.096 0 00.028-.021.108.108 0 00.02-.036.116.116 0 01.066-.068c.002-.001.005-.002.006.003.002.004 0 .005-.003.006a.106.106 0 00-.06.063.114.114 0 01-.022.038.098.098 0 01-.024.02c.008 0 .012-.002.019-.001.012-.001.032-.01.043-.019a.08.08 0 00.024-.031c0-.003.002-.005.006-.003.005.002.004.004.003.007a.089.089 0 01-.027.035.08.08 0 01-.03.015.224.224 0 00.072-.016c.01-.003.013-.026.02-.032a.155.155 0 01.016-.024.067.067 0 01.025-.02c.002-.001.005-.002.006.003.002.004 0 .005-.002.006a.057.057 0 00-.022.017.14.14 0 00-.015.023c.002.01-.008.035-.008.047a.316.316 0 00.008.094.33.33 0 01.025-.03v-.002a.466.466 0 00.006-.102c0-.002-.001-.005.004-.005s.005.002.005.004a.448.448 0 01-.004.094c.009-.008.009-.008.013-.016a.115.115 0 00.008-.072c0-.002-.001-.005.004-.006.004 0 .005.001.005.004a.108.108 0 01.003.039.132.132 0 01-.008.03.403.403 0 01.028-.018.413.413 0 01.002-.065c0-.003.001-.006.007-.005s.006.004.005.008a.529.529 0 00-.002.065c.001.012.008.028.02.035.016.01.024.025.029.043a.28.28 0 000-.062.147.147 0 00-.018-.057c0-.002-.002-.004.002-.007.005-.003.006 0 .007.002a.16.16 0 01.019.06.295.295 0 01-.002.076c.016-.013.059-.04.054-.092a.053.053 0 00-.004-.011c-.001-.003-.002-.005.002-.007.005-.002.006 0 .007.002a.07.07 0 01.007.03c.002-.002.007-.008.008-.007l.013.008a.113.113 0 01-.004-.067c0-.002 0-.004.005-.003s.004.004.004.006a.1.1 0 00-.002.036.124.124 0 00.01.036c0 .002.002.003.001.004a.196.196 0 01.01.01.474.474 0 01-.002-.092c0-.003 0-.005.005-.004.005 0 .005.003.004.005a.497.497 0 00.005.102v.001c.01.01.015.019.024.03a.321.321 0 00.01-.094c0-.012-.01-.035-.01-.047a.148.148 0 00-.015-.023.056.056 0 00-.022-.017c-.002 0-.004-.002-.002-.006.002-.005.004-.004.006-.003.01.004.018.011.025.02a.148.148 0 01.016.024c.01 0 .012.027.022.032a.224.224 0 00.07.016.08.08 0 01-.03-.015.089.089 0 01-.026-.035c-.001-.003-.002-.005.002-.007.005-.002.005 0 .007.003a.078.078 0 00.023.032c.014.01.045.019.062.02a.103.103 0 01-.046-.06.107.107 0 00-.023-.038.1.1 0 00-.037-.024c-.003 0-.005-.002-.003-.006.001-.005.004-.004.006-.003a.116.116 0 01.066.068.09.09 0 00.047.057c-.015-.032-.01-.057-.018-.09-.006-.02-.036-.042-.03-.05.007-.007.02.015.038.02.027.01.055.018.084.014a.417.417 0 00-.057-.056c-.018-.014-.037-.022-.054-.019-.003 0-.005.001-.006-.004 0-.005.001-.005.004-.005.02-.004.042.005.062.02a.33.33 0 01.048.046l-.005-.012a.235.235 0 00-.034-.053.154.154 0 00-.05-.039c-.002-.001-.004-.002-.002-.006.002-.005.004-.004.006-.003.022.01.04.025.054.041a.24.24 0 01.031.048.173.173 0 00-.01-.035.116.116 0 00-.03-.045c-.009-.008-.032-.021-.032-.027-.004-.003-.005-.002-.01-.004a.11.11 0 00-.025-.008c-.002 0-.005 0-.004-.006 0-.005.003-.004.005-.004.008.001.018.004.029.009l.015.009c.008 0 .021.007.032.011.032.013.069.02.103.013a.39.39 0 00-.034-.014.145.145 0 00-.041-.009c-.003 0-.005 0-.005-.005s.002-.005.005-.005c.015.001.03.004.044.01.013.004.027.01.04.016.01.004.016-.001.025-.007a.087.087 0 01-.031-.058.295.295 0 00-.05-.04c-.016-.009-.032-.014-.048-.01-.003.001-.005.002-.006-.003-.002-.005 0-.005.003-.006.02-.005.038 0 .056.01a.26.26 0 01.043.034v-.003c-.003-.042-.032-.074-.068-.076-.012-.001-.03.003-.029-.005.001-.01.015-.007.037-.014a.186.186 0 00.129-.106.205.205 0 01-.084.039.12.12 0 00-.034.013.093.093 0 00-.024.02c-.002.002-.003.004-.007.001s-.002-.005-.001-.007a.104.104 0 01.027-.023.134.134 0 01.037-.014.211.211 0 00.073-.032h-.071a.327.327 0 00-.062.024c-.018.01-.03.022-.03.035 0 .002 0 .005-.005.004-.005 0-.005-.002-.005-.005.001-.017.015-.03.035-.042a.25.25 0 01.036-.016h-.016c-.018 0-.018-.01-.003-.016a.114.114 0 00.038-.034.324.324 0 00.071-.174.149.149 0 01-.018.03.074.074 0 01-.034.026.132.132 0 01-.028.061.117.117 0 01-.057.036c-.005 0-.008-.006-.005-.009a.158.158 0 00.043-.053c.01-.02.013-.041.012-.06 0-.003 0-.005.004-.005.005 0 .005.002.005.004a.125.125 0 01-.012.065.154.154 0 01-.026.039.098.098 0 00.029-.023.124.124 0 00.026-.06l.003-.004a.065.065 0 00.033-.023.155.155 0 00.02-.035c-.022.01-.048.01-.071.012a.245.245 0 00-.086.024z" fill="#F7DB17"/><path d="M15.473 6.925a3.06 3.06 0 00-.634 0c-.004.001-.003.005-.003.007 0 .005.006.006.019.004a3.215 3.215 0 01.614.002c.005.001.012-.013.004-.013z" fill="#F7DB17"/><path fill-rule="evenodd" clip-rule="evenodd" d="M14.841 6.915a3.05 3.05 0 01.316-.018c.104 0 .209.007.313.02l.005-.02a.02.02 0 01-.009.003.019.019 0 11.017-.026l.01-.027a2.908 2.908 0 00-.336-.019c-.113 0-.226.006-.34.017l.01.025a.019.019 0 11.01.029l.004.014v.002zm.475-.065a.019.019 0 100 .038.019.019 0 000-.038zm0 .01a.01.01 0 100 .018.01.01 0 00.01-.009.01.01 0 00-.01-.009zm-.168-.014a.019.019 0 10.02.019.019.019 0 00-.02-.02zm0 .01a.01.01 0 100 .018.01.01 0 000-.018zm-.164-.006a.019.019 0 100 .038.019.019 0 000-.038zm0 .01a.009.009 0 00-.01.009c0 .005.005.009.01.009a.01.01 0 00.009-.01.01.01 0 00-.01-.008z" fill="#F7DB17"/><path d="M15.156 6.73a.05.05 0 00-.016-.026.054.054 0 00-.029-.014c-.005 0-.006-.009 0-.01a.049.049 0 00.023-.02.103.103 0 00.015-.04c0-.006.01-.006.01 0a.068.068 0 00.016.031c.008.01.02.018.03.022.005.002.004.01-.002.01a.034.034 0 00-.021.014.092.092 0 00-.016.034c-.001.005-.01.005-.01 0zm.005-.017a.089.089 0 01.012-.023.05.05 0 01.016-.013.09.09 0 01-.023-.019.086.086 0 01-.01-.018.099.099 0 01-.013.025.07.07 0 01-.016.018.066.066 0 01.034.03zM15.284 7.505l-.08.031c-.002.001-.005.003-.007-.003-.002-.005 0-.006.004-.007l.08-.032c.002-.001.005-.002.007.003s-.001.006-.004.008zm.01-.051l-.094.05c-.002.002-.005.004-.008-.001-.003-.006 0-.007.002-.008l.094-.051c.002-.002.005-.003.008.002s0 .007-.002.008zm-.283-.01l.093.05c.003.002.006.004.003.009-.003.005-.006.003-.008.002l-.094-.05c-.002-.002-.005-.004-.002-.009.003-.005.005-.003.008-.002zm.008.05l.08.032c.002 0 .005.002.003.007-.002.006-.005.004-.008.003l-.08-.031c-.002-.002-.005-.003-.003-.008s.005-.004.008-.003zm.034.067c.022.005.04.007.056.005a.037.037 0 00.03-.023v-.076a.18.18 0 01-.047-.006.044.044 0 01-.032-.028.09.09 0 010-.05c0-.004.001-.007.007-.005.005.001.005.004.004.007a.078.078 0 000 .044c.004.01.01.017.024.02a.184.184 0 00.094 0 .06.06 0 00.03-.019.036.036 0 00.009-.027.018.018 0 00-.008-.013.038.038 0 00-.02-.005c-.007 0-.014 0-.022.002a.238.238 0 01-.012.002c-.002 0-.005.001-.006-.005 0-.006.002-.006.005-.006l.011-.002a.11.11 0 01.025-.003c.01 0 .018.003.026.008a.028.028 0 01.012.02.047.047 0 01-.011.036.07.07 0 01-.035.023.184.184 0 01-.043.007v.077c.006.013.016.02.03.022.014.002.034 0 .055-.005.003 0 .005-.002.007.004.001.006-.002.006-.005.007a.155.155 0 01-.06.005.048.048 0 01-.033-.02.049.049 0 01-.033.02.149.149 0 01-.06-.005c-.003 0-.006-.001-.005-.007.002-.006.005-.005.007-.004zm.055.033l.063-.002c.003 0 .006 0 .006.006s-.003.006-.006.006l-.062.001c-.003 0-.006 0-.006-.006 0-.005.003-.005.005-.005zM15.2 7.116a.41.41 0 01.066-.046.11.11 0 01.055-.016c.003 0 .006 0 .006.006s-.003.006-.006.006a.102.102 0 00-.05.015.395.395 0 00-.063.044c-.002.002-.005.004-.009 0-.003-.005-.001-.007.001-.009zm-.093.01a.31.31 0 00-.07-.05.114.114 0 00-.055-.015c-.003 0-.006 0-.007-.005 0-.006.003-.006.006-.006a.125.125 0 01.062.016c.024.012.049.03.072.05.002.002.004.004 0 .009-.004.004-.006.002-.008 0zm-.033.154a.149.149 0 01.02-.033.205.205 0 01.028-.027c.002-.002.004-.003.008.001.003.005.001.006-.001.008a.197.197 0 00-.025.025.131.131 0 00-.02.031c-.001.003-.002.005-.007.003-.006-.002-.005-.005-.003-.008zm.057-.268c.008.01.014.022.018.035a.14.14 0 01.006.043l-.001.038a.086.086 0 01-.015.038.045.045 0 01-.051.017c.004.015.008.032 0 .047 0 .003-.004.005-.007.003a.497.497 0 00-.04-.017.223.223 0 01-.036-.018.084.084 0 01-.024-.019.06.06 0 01-.013-.026.124.124 0 01-.003-.027.352.352 0 01-.055-.038c-.002-.002-.004-.004 0-.008s.006-.002.008 0a.352.352 0 00.055.037c.019.002.038.008.057.017a.312.312 0 01.05.03l.003.003.004.003a.037.037 0 00.024.002.032.032 0 00.019-.013.074.074 0 00.013-.033.169.169 0 000-.036.132.132 0 00-.005-.04.101.101 0 00-.016-.031c-.001-.003-.003-.005.001-.008.005-.004.007-.001.009 0v.001zm-.058.162a.287.287 0 00-.048-.03.175.175 0 00-.049-.014c0 .007.002.014.003.02a.048.048 0 00.011.022.078.078 0 00.02.017l.035.016a.25.25 0 01.035.015c.003-.013-.002-.028-.006-.041l-.001-.005zm.12-.155a.097.097 0 00-.015.031.126.126 0 00-.006.04l.001.036a.076.076 0 00.013.034.033.033 0 00.019.013c.007.001.015 0 .023-.003a.132.132 0 01.004-.003l.004-.003a.292.292 0 01.05-.03.182.182 0 01.057-.017.343.343 0 00.054-.037c.002-.002.005-.004.009 0 .004.004.002.006 0 .008a.39.39 0 01-.055.038c0 .01-.002.019-.004.027a.062.062 0 01-.013.027.084.084 0 01-.023.018.236.236 0 01-.037.018.231.231 0 00-.04.017c-.002.002-.006 0-.008-.002-.007-.016-.003-.033.001-.048a.046.046 0 01-.025.001.043.043 0 01-.026-.017.086.086 0 01-.015-.039.173.173 0 010-.038c0-.016.001-.03.005-.043a.111.111 0 01.018-.035c.002-.002.003-.004.008 0 .005.003.003.005.001.007zm.146.11a.172.172 0 00-.049.016.288.288 0 00-.048.03l-.001.004a.085.085 0 00-.006.041l.014-.007a.25.25 0 01.021-.008.225.225 0 00.035-.016.076.076 0 00.02-.017.05.05 0 00.011-.022.113.113 0 00.003-.02z" fill="#000"/><path fill-rule="evenodd" clip-rule="evenodd" d="M15.288 7.138a.033.033 0 100 .067.033.033 0 000-.067zm0 .01a.023.023 0 00-.022.023c0 .013.01.023.022.023.013 0 .023-.01.023-.023a.023.023 0 00-.023-.023zm0 .01a.014.014 0 00-.013.013.014.014 0 00.027 0 .014.014 0 00-.014-.013zm-.262-.02c.018 0 .033.016.033.034a.034.034 0 11-.034-.033zm0 .011a.023.023 0 110 .046.023.023 0 010-.046zm0 .01c.007 0 .013.006.013.013a.014.014 0 01-.027 0c0-.007.006-.013.014-.013z" fill="#000"/><path d="M19.534 5.502l-.004.001-1.254-1.433-1.649.945-.278 3.338c.807.067 1.595.2 2.36.395l.824-3.246z" fill="#171796"/><path d="M16.952 5.707c.058-.013.114-.016.169.017.024.01.042.023.053.039a.764.764 0 01.078-.054.432.432 0 01.118-.066.488.488 0 01.177-.053.823.823 0 01.188-.008.34.34 0 01.15.045l.131.065a.59.59 0 00.434.094c.027-.006.044.01.014.029-.216.133-.386.014-.531-.039.053.036.1.074.14.111a.747.747 0 00.225.157.546.546 0 00.332.048c.018-.003.026-.002.027.008 0 .007-.002.02-.013.027a.314.314 0 01-.167.05.653.653 0 01-.34-.087c-.088-.047-.147-.105-.217-.156a.49.49 0 00-.194-.093.388.388 0 00-.19.005.073.073 0 01.04.022c.03.018.069.026.125.032.029.004.02.024-.025.048a.115.115 0 01-.108.048c-.064.042-.087.017-.108-.01a.19.19 0 01-.015.05.04.04 0 01-.001.028c.01.016.015.031.012.048a.04.04 0 00.014.026.066.066 0 01.023.043c0 .011.007.02.016.029.013.01.026.02.039.036.039.014.056.044.063.082.029.01.04.03.046.055.017.007.032.016.04.03.06 0 .118 0 .173.006.05.006.092.037.13.079.024.003.05.005.076-.001a.27.27 0 01.086-.024.476.476 0 01.15.005.152.152 0 01.08.05c.03.034.077.03.117.012a.177.177 0 01.155.002.152.152 0 01.07-.01.083.083 0 01.065-.029c.036-.001.062.004.055.05-.002.013-.01.025-.018.03-.017.035-.049.046-.089.043a.082.082 0 01-.03.054c.018.057 0 .08-.042.08-.008.015-.022.026-.044.022a.09.09 0 01-.057.034c.002.015.009.022.02.038.028.043-.015.06-.054.061.01.029.01.058.007.086.04.024.046.05.009.075.027.048.016.082-.034.108-.001.026-.004.053-.021.068-.013.01-.03.012-.018.031.02.034.016.077-.015.078-.006 0-.012 0-.013.011 0 .004-.003.007-.009.01a.626.626 0 00-.102.069c-.005.003-.01.005-.014 0a.635.635 0 01-.113.152.096.096 0 01-.063.076.027.027 0 01-.021.022c.02.021.027.042.008.063a.192.192 0 01-.085.059c-.066.016-.107.013-.133-.012-.023-.022-.014-.039 0-.046-.04.004-.048-.018-.047-.046.002-.015.007-.013.021-.012.023 0 .042-.012.063-.018a.123.123 0 01.032-.036c.007-.045.036-.07.075-.086a.23.23 0 00.092-.082l.054-.094a.08.08 0 01-.016-.05.096.096 0 01-.037-.033c-.028-.002-.04-.015-.044-.033-.007 0-.014 0-.022-.003-.014.01-.028.017-.045.016a.452.452 0 01-.071.06c-.009.023-.026.033-.046.036-.059.007-.094.08-.126.11-.013.009-.021.026-.027.046-.003.039-.01.069-.03.07-.02-.001-.022-.003-.023-.005h-.024c.015.018.018.04.003.06-.014.018-.035.024-.055.025a.234.234 0 01-.107-.013c-.03-.013-.033-.03-.032-.048-.022-.01-.026-.02-.024-.03.003-.013.015-.02.03-.016a.16.16 0 01.039-.013.34.34 0 01.12-.092.195.195 0 01.044-.04c.005-.036.029-.065.058-.092a.132.132 0 01.015-.04c-.002-.007 0-.011 0-.018-.012-.023-.019-.05-.01-.071a.087.087 0 01-.003-.036c-.07.042-.092.028-.1-.006-.026.022-.05.032-.067 0-.025.008-.05.016-.075.007a.17.17 0 01-.052.013.2.2 0 01-.031.045.184.184 0 01-.032.095.6.6 0 01-.046.1c0 .012 0 .022-.007.033.006.04-.007.058-.029.068a.156.156 0 01-.027.047c0 .005 0 .01-.002.015.009.023.01.046-.013.069a.666.666 0 01-.058.034c-.024.011-.045.006-.065-.001-.035-.013-.032-.025-.027-.037a.042.042 0 01-.035 0l-.021-.016c-.008-.014-.01-.026.008-.035a.155.155 0 00.056-.036c.006-.014.014-.025.025-.028.01-.025.024-.042.042-.047.014-.031.028-.066.045-.096.006-.01.01-.019.007-.029 0-.008 0-.016.008-.021.004-.004.01-.007.002-.012a.089.089 0 01.01-.075c.019-.027.04-.094.02-.127a.185.185 0 01-.005-.056c-.007 0-.012 0-.018-.004-.015-.01-.028 0-.039.016-.008.02-.016.039-.024.039-.008.054-.035.095-.062.106a.19.19 0 00-.007.074c.003.027 0 .045-.012.048-.014.003-.027.011-.035.033a.065.065 0 00-.004.022c.018.02.013.044-.005.062-.041.04-.092.034-.146.018-.038-.015-.048-.031-.044-.048-.055-.004-.044-.047.002-.06a.226.226 0 00.121-.09c.003-.053.015-.089.044-.095a.249.249 0 01.027-.09.13.13 0 00.018-.086c-.03-.02-.032-.04-.004-.06.01-.005.008-.01-.003-.016-.019-.002-.017-.02-.015-.036-.001-.009-.006-.013-.014-.013-.04-.006-.03-.023-.013-.042.007-.008.012-.02.005-.025-.007-.004-.011-.018-.012-.03-.026-.02-.015-.04 0-.058a.072.072 0 01-.023-.05c-.047-.002-.065-.026-.04-.06a.225.225 0 01.042-.043c.01-.018.021-.035.016-.053-.014-.034.03-.06.066-.086a.058.058 0 01-.008-.027c-.02-.02-.015-.039.008-.056a.07.07 0 01-.009-.028c-.051.01-.051-.02-.027-.07-.03-.017-.022-.047.032-.094.001-.01.003-.019.006-.024a.125.125 0 00-.065.02c-.02.013-.04.011-.061.003a.098.098 0 00-.028-.027.04.04 0 01-.014-.041c-.06.003-.073-.042-.036-.068a.112.112 0 00.04-.052c.017-.041.052-.07.086-.099 0-.012.002-.024.006-.036a.101.101 0 00-.048-.018.077.077 0 00-.037-.042c-.012-.007-.015-.013-.009-.029-.032-.028-.024-.046-.015-.062z" fill="#000"/><path d="M18.053 7.27a.09.09 0 01-.011.001.553.553 0 01-.052.046c-.015-.018-.037.001-.015.012l-.011.008c-.008.018-.014.027-.035.03a.12.12 0 00-.01.002.199.199 0 01.006-.051c0-.002 0-.004-.003-.004-.003-.001-.004 0-.004.002a.265.265 0 00-.005.029v.025c-.054.018-.084.073-.12.112a.102.102 0 00-.03.052c-.003.01-.004.058-.015.058h-.016c-.006-.008-.014-.009-.023 0a.39.39 0 00-.066.002c-.013.015.024.01.044.021.009.006.012.016.009.031-.018.044-.12.03-.153.012-.015-.008-.016-.018-.015-.031.007 0 .014 0 .02-.002a.1.1 0 00.037-.012c.003-.002.006-.004.002-.01-.003-.007-.007-.005-.01-.003a.082.082 0 01-.03.01.17.17 0 01-.032.001h-.003c-.006-.003-.01-.007-.008-.01.003-.004.013 0 .014 0a.188.188 0 01.047-.015.346.346 0 01.12-.094.225.225 0 01.05-.044c.007-.042.028-.065.059-.093a.144.144 0 01.016-.046c-.002-.01 0-.015 0-.025-.011-.023-.018-.042-.01-.067a.095.095 0 01-.002-.047v-.01a.49.49 0 01.055-.037.204.204 0 00.003.053.083.083 0 00-.013.017.035.035 0 00-.005.018c0 .002 0 .003.003.003.004 0 .004-.001.004-.003 0-.005 0-.01.004-.015a.082.082 0 01.013-.017c.016 0 .032-.01.048-.022a.405.405 0 00.043-.043v.07a.154.154 0 00-.036.046c0 .001-.001.003.002.004.003.002.004 0 .004-.001a.147.147 0 01.032-.043c.004 0 .004-.002.004-.003a.206.206 0 01.06-.034.187.187 0 000 .059c.003.02.013.04.033.058h.001z" fill="#F7DB17"/><path d="M17.042 6.682c.003-.005.01-.011.012-.01V6.67a.397.397 0 01.056-.077c.001-.001.003-.002.005 0s.001.004 0 .005a.365.365 0 00-.054.075c.002.003.003.008.002.011.002.022.005.033.015.046a.013.013 0 01.003-.002.09.09 0 01.015-.026.108.108 0 01.03-.023.112.112 0 00.032-.042c0-.001.002-.003.005-.001.003 0 .002.002.002.004a.105.105 0 01-.014.023.135.135 0 01-.02.022h-.002a.103.103 0 00-.027.022.08.08 0 00-.014.021c.005.004.007.013.002.02-.014.02-.03.032-.004.049-.001.014.003.024.012.033.006.007.006.029-.01.045-.013.014-.003.01.012.012l.003.001a.263.263 0 01.04-.052.133.133 0 00.024-.032.085.085 0 00.01-.033c0-.002 0-.004.004-.004.003 0 .003.002.003.004a.094.094 0 01-.01.036.139.139 0 01-.026.034.243.243 0 00-.039.05c.018.01.012.03.015.047a.03.03 0 01.009.002l.01-.017.017-.025c0-.002.002-.003.004-.001.003.001.002.003.001.004l-.016.026a1.359 1.359 0 00-.01.017c.01.008.011.024-.002.036-.026.02-.019.026.005.041a.15.15 0 01-.001.06v.002l.002.02.001.019c0 .002 0 .003-.003.004-.003 0-.003-.002-.004-.004l-.001-.019V7.1l-.005.01c-.017.037-.035.068-.039.11-.041.01-.035.052-.037.088a.254.254 0 01-.124.097c-.01.004-.034.01-.036.022 0 .005.016.014.026.009.03-.028.044-.013.01.016-.002.005 0 .011.006.016.03.027.105.036.139.015.025-.016.038-.033.016-.057.002-.035.015-.068.05-.077.005-.008.004-.023.002-.03a.225.225 0 01.008-.085c.002-.003.004-.006.01-.008.014-.003.04-.042.048-.08l.005-.025c.002-.013.007-.016.014-.008.006-.009.006-.014.01-.023.014-.02.034-.037.058-.025a.198.198 0 01-.005-.122c.001-.003.002-.007.008-.006l.02-.048.02-.048c0-.002.002-.003.005-.002s.002.003.002.004l-.021.049-.02.048c.003.002.002.005 0 .007a.176.176 0 00.009.124l.002.005c.011.007.011.008.01.023 0 .012.002.023.005.037.022.041-.001.11-.023.144a.071.071 0 00-.009.054c.014.013.005.026-.007.035v.01a.056.056 0 01-.01.036c-.018.032-.032.067-.047.101-.026.008-.032.023-.042.048-.015.004-.017.008-.023.023a.176.176 0 01-.058.038c-.018.009 0 .017.013.026.012.009.028-.01.037-.025.011-.016.022-.011.015.001a.129.129 0 00-.014.044c-.004.011.038.02.045.02.026.001.059-.024.08-.037.016-.017.013-.032.006-.053V7.6c-.01 0-.021-.001-.031-.003a.226.226 0 01-.037-.012c-.001 0-.003-.002-.001-.005 0-.003.003-.002.004-.002.012.005.024.01.035.012.01.002.02.003.031.003l.002-.016a.174.174 0 00.03-.053c.028-.013.029-.027.025-.058a.058.058 0 00.007-.034.662.662 0 00.047-.104.132.132 0 00.031-.094c.002-.014.007-.022.017-.022a.249.249 0 00.02-.033h.004v-.002a.106.106 0 01.007-.021.05.05 0 01.01-.015.06.06 0 00.004-.03.072.072 0 00-.01-.029.032.032 0 01-.008-.012c-.001-.005 0-.01.005-.014 0-.001.002-.002.004 0 .003.002.002.004 0 .005-.002.002-.003.005-.002.007 0 .003.003.007.006.01a.08.08 0 01.012.033.067.067 0 01-.006.033v.001a.045.045 0 00-.009.013.108.108 0 00-.006.02v.002a.1.1 0 00.046-.014.095.095 0 00.023-.028.12.12 0 00.012-.037c0-.002.001-.004.005-.003.003 0 .003.002.002.004a.134.134 0 01-.013.04.104.104 0 01-.018.023c.025.008.046 0 .07-.007a.283.283 0 010-.078.104.104 0 01.02-.048c.002-.001.003-.003.005 0 .003.002.002.003.001.004a.097.097 0 00-.019.045.274.274 0 000 .075c.01.017.016.03.036.016.008-.005.015-.01.021-.016l.004-.006c.02-.02.039-.04.058-.057a.423.423 0 01.059-.044c.001 0 .003-.002.004.001.002.003 0 .004 0 .005a.766.766 0 00-.107.091v.016c.002.022.007.036.04.024a.168.168 0 00.036-.018c.008-.005.015-.01.02-.01a.554.554 0 01.063-.043.19.19 0 01.009-.036.271.271 0 01.048-.083h.001a.146.146 0 00.07-.077c.001-.002.002-.004.005-.002.003 0 .002.003.002.004a.16.16 0 01-.073.08.261.261 0 00-.047.08.179.179 0 00-.007.032l.002.002c.001.003 0 .003-.002.004h-.001a.184.184 0 00.002.053c.014 0 .028-.008.043-.02a.44.44 0 00.047-.048l.001-.001a.112.112 0 01.015-.033.062.062 0 01.026-.021c.002 0 .003-.002.005.002.001.003 0 .003-.002.004a.057.057 0 00-.023.02.113.113 0 00-.015.031v.072l.002-.002a.22.22 0 01.06-.032c.003 0 .005.002.005.004a.192.192 0 00-.002.063.09.09 0 00.029.052.182.182 0 01.03-.04V7.22a.73.73 0 00.05-.045c.001-.001.003-.002.005 0 .002.003.001.004 0 .005l-.015.014-.015.014a.222.222 0 00-.018.016v.03a.113.113 0 00.038.003c.005.029.007.033.032.034l.001-.03a.129.129 0 01.008-.032c0-.002 0-.003.004-.002.003 0 .003.002.002.004a.127.127 0 00-.007.03.202.202 0 00-.001.03h.002c.01.02.022.03.043.04a.113.113 0 00.013-.028.087.087 0 00.003-.032c0-.001 0-.003.003-.003.004 0 .004.001.004.003 0 .011 0 .022-.004.033a.124.124 0 01-.016.034l-.002.001c0 .012.003.021.007.03a.215.215 0 01.01-.02.11.11 0 01.018-.024c.001 0 .002-.002.005 0 .002.003 0 .004 0 .005a.11.11 0 00-.017.023.264.264 0 00-.012.024l.008.012c-.04.068-.082.162-.16.193-.04.016-.058.037-.066.08a.14.14 0 00-.036.04c-.026.01-.05.022-.078.021 0 .018.006.026.024.027.035-.018.043-.021.046-.019.005.004-.005.03-.034.05-.004.002-.004.004-.001.009.024.038.089.024.123.015a.162.162 0 00.082-.06c.005-.012-.006-.027-.017-.039-.049.008-.04-.04.003-.02.014-.004.016-.004.02-.02.038-.015.054-.03.063-.072a.704.704 0 00.104-.132c.007-.01.012-.026.01-.035a.07.07 0 00.013-.027.103.103 0 00.003-.03c0-.002 0-.003.004-.003.003 0 .003.001.003.003 0 .01-.001.02-.004.031a.324.324 0 01-.008.024c.003.007.004.01.01.01.033-.027.066-.046.102-.068.002-.015.012-.023.027-.023.006 0 .008-.002.01-.008.009-.02-.002-.035-.012-.052-.009-.026.008-.032.024-.045.018-.013.016-.047.017-.066l-.002-.01a.168.168 0 00-.006-.021c0-.002 0-.004.002-.005.003 0 .004 0 .005.003a.191.191 0 01.006.021l.001.008c.017-.008.034-.018.04-.036.007-.02-.005-.04-.014-.058a.619.619 0 01-.039.017c-.002 0-.004.001-.005-.002 0-.003 0-.004.002-.004a.67.67 0 00.045-.02.083.083 0 00.02-.017c.012-.017-.02-.033-.03-.04v-.001l-.049-.044c-.001-.001-.002-.003 0-.005.002-.003.004-.002.005 0l.044.04a.18.18 0 00-.005-.074l-.008-.024h-.002a.067.067 0 01-.04-.058c0-.002 0-.003.004-.004.003 0 .003.002.004.003 0 .011.003.02.009.03a.067.067 0 00.026.022c.014.007.042.004.059-.004.022-.013-.007-.039-.014-.054-.005-.011-.006-.022-.009-.034l.007-.001a.065.065 0 00-.01-.01.04.04 0 00-.012-.007c-.001-.001-.003-.001-.002-.005.001-.003.003-.002.005-.002.005.002.01.005.014.009a.079.079 0 01.012.013h.007c.022-.005.035-.018.048-.034a.665.665 0 00-.052-.049c-.001 0-.003-.002 0-.005.002-.002.003-.001.004 0a.61.61 0 01.054.05c.001.002.002.002.001.004.02.002.024-.003.035-.021a.1.1 0 00-.013-.027.161.161 0 00-.02-.025c-.002-.001-.003-.003 0-.005.002-.002.003 0 .004 0a.175.175 0 01.022.026.1.1 0 01.013.029c.01 0 .02 0 .028-.005.018-.01.003-.049-.002-.063l.001-.001-.007-.005-.013-.008c-.001 0-.003-.001 0-.004 0-.003.002-.002.004-.001l.012.008.01.006.004-.004c.013-.01.018-.024.022-.039.006-.022.007-.012.033-.016.028-.004.043-.007.06-.04.008-.005.013-.008.015-.019.002-.02 0-.03-.021-.03-.031-.003-.05.003-.071.023l.008.013c.001.001.002.003 0 .005-.003.002-.004 0-.005-.001l-.008-.012a.16.16 0 00-.077.011.514.514 0 00-.008-.003l.013.022c.005.01.007.019.007.028 0 .002 0 .003-.003.004-.003 0-.003-.002-.004-.004a.067.067 0 00-.006-.026.12.12 0 00-.02-.029.17.17 0 00-.063-.011.604.604 0 00.01.01l.014.013c.001.001.003.002 0 .005-.002.002-.003.001-.005 0a1.65 1.65 0 01-.027-.028.18.18 0 00-.056.015.186.186 0 01-.038.011c.01.01.017.02.023.03a.15.15 0 01.015.04c0 .002 0 .003-.002.004-.004 0-.004 0-.005-.002a.125.125 0 00-.037-.067l-.001-.004a.116.116 0 01-.034 0l.013.023c.001.002.002.003-.001.005-.003.001-.004 0-.005-.002l-.012-.026a.095.095 0 01-.031-.013.534.534 0 01.012.098c0 .002 0 .004-.003.004-.004 0-.004-.002-.004-.003a.494.494 0 00-.014-.105.11.11 0 01-.014-.013.137.137 0 00-.037-.029v.017a.062.062 0 01-.014.03c0 .002-.002.003-.005.001-.002-.002-.001-.003 0-.004a.056.056 0 00.011-.047.204.204 0 00-.068-.017.366.366 0 01.036.057c.01.008.014.017.017.028.003.01.004.022.004.033 0 .002 0 .003-.003.003-.004 0-.004-.001-.004-.003a.137.137 0 00-.003-.031.047.047 0 00-.016-.025l-.001-.001a.415.415 0 00-.039-.061h-.025l.004.005c.003.005.005.01.006.016 0 .002 0 .003-.003.004-.004 0-.004-.002-.004-.003a.032.032 0 00-.005-.014.042.042 0 00-.007-.009.858.858 0 00-.05.004.334.334 0 01.065.147c0 .002 0 .004-.003.004s-.003 0-.004-.003a.312.312 0 00-.066-.148h-.003a.223.223 0 00-.04.008.139.139 0 01.03.025c.002.001.003.003 0 .005s-.004 0-.005 0a.103.103 0 00-.013-.014.16.16 0 00-.02-.014.299.299 0 00-.02.008l-.011.004a.305.305 0 01.068.069c.001.001.002.003 0 .004-.003.002-.004 0-.005 0a.249.249 0 00-.072-.071.169.169 0 01-.042.003.37.37 0 01.022.052.24.24 0 01.012.057c0 .002 0 .004-.003.004s-.003-.001-.004-.003a.23.23 0 00-.011-.056.411.411 0 00-.024-.054l-.025-.003a.58.58 0 01.023.108c0 .002 0 .004-.003.004s-.003 0-.004-.003a.592.592 0 00-.024-.112.254.254 0 00-.085-.066.111.111 0 01.024.073c0 .002 0 .004-.003.004s-.003-.002-.003-.004a.107.107 0 00-.031-.078 1.025 1.025 0 00-.089-.009c.017.016.03.03.029.046 0 .002 0 .004-.004.004-.003 0-.003-.003-.003-.004.001-.016-.014-.03-.032-.046h-.04a.169.169 0 01.019.021c.006.01.011.02.014.03a.092.092 0 00.011.04c.007.011.017.02.03.026.001 0 .003.001.002.004-.002.003-.003.003-.005.002a.071.071 0 01-.032-.028.097.097 0 01-.013-.043.082.082 0 00-.013-.027.18.18 0 00-.022-.026H17.7a.497.497 0 01.018.12c0 .002 0 .003-.003.003s-.003-.001-.003-.003a.466.466 0 00-.02-.12h-.003a.065.065 0 00-.032-.029v.005a.039.039 0 01-.007.014c0 .001-.002.003-.005 0-.003-.001-.002-.002 0-.004a.03.03 0 00.004-.011l.001-.007-.007-.002c-.007-.03-.013-.042-.036-.052 0 .008-.001.017-.003.025a.09.09 0 01-.011.032c-.001.001-.002.003-.005 0-.003-.001-.002-.002 0-.004a.08.08 0 00.01-.029.149.149 0 00.002-.026l-.004-.002c-.006-.04-.014-.063-.056-.08a.096.096 0 01-.006.045c0 .002-.001.003-.004.002s-.003-.003-.002-.004a.082.082 0 00.005-.026.12.12 0 000-.024l-.034-.031c0 .015-.001.03-.006.045a.201.201 0 01-.025.054c0 .002-.002.003-.005.001-.002-.002-.002-.003 0-.004a.198.198 0 00.024-.053.145.145 0 00.005-.05.069.069 0 01-.012-.017V6.2l-.005.01c-.001.002-.002.004-.005.003-.003-.002-.002-.003-.002-.005l.005-.011.004-.009v-.006a.05.05 0 00-.018-.031.098.098 0 01-.016.031c-.002.001-.003.002-.006 0-.002-.002-.001-.003 0-.004a.078.078 0 00.016-.033.064.064 0 01-.01-.016.05.05 0 01-.007.011.073.073 0 01-.012.013c-.002.001-.003.002-.005 0-.002-.003 0-.004 0-.005a.07.07 0 00.012-.012.044.044 0 00.006-.011c.002-.006.003-.003.001-.012.004-.02-.003-.031-.014-.047l.001-.001a.058.058 0 00-.02.005.182.182 0 00-.03.018c-.002 0-.003.001-.005-.001-.002-.003 0-.004 0-.005a.21.21 0 01.032-.018.06.06 0 01.026-.006.024.024 0 000-.015.269.269 0 01-.075.018.107.107 0 01-.05-.007s-.002-.002 0-.005c0-.003.002-.002.004-.001a.098.098 0 00.046.007.262.262 0 00.074-.018v-.001a.233.233 0 00.013-.037.111.111 0 01-.033.003h-.002c-.002 0-.003 0-.003-.004 0-.003.001-.003.003-.003h.002c.012 0 .023 0 .034-.003l.002-.012c.002-.014.018-.017.029-.005.01.01.018.02.027.025.018.008.04 0 .055-.011a.58.58 0 01-.014-.005c-.002 0-.004-.001-.002-.004 0-.003.002-.003.004-.002a.658.658 0 01.017.005.16.16 0 00.004-.004c.039.003.064-.005.088-.03-.021.001-.041 0-.058-.001a.142.142 0 01-.045-.012c-.002 0-.003-.001-.002-.004.002-.003.003-.003.005-.002.01.005.025.009.043.011.018.002.04.003.064.002a.902.902 0 00.007-.008.075.075 0 00.028-.018.35.35 0 01-.127-.034.088.088 0 00-.044-.023.147.147 0 00-.088.018c-.007-.007-.012-.013-.02-.019-.01-.001-.02-.007-.03-.008h-.04c-.003 0-.004 0-.004-.004 0-.003.002-.003.004-.003.014.002.028-.001.041 0 .014.002.026.008.04.01a.293.293 0 01.111-.025.372.372 0 01.112-.015c-.005-.005-.003-.007 0-.01.02-.02.025-.04.018-.057-.006-.018-.025-.035-.05-.05-.029.003-.055-.004-.084-.001a.26.26 0 00-.054.012.088.088 0 01.038.026.133.133 0 01.027.063c0 .003.001.006-.005.007s-.007-.002-.007-.005a.12.12 0 00-.025-.057c-.012-.017-.04-.024-.049-.028a.57.57 0 00-.083.013.13.13 0 00-.048.021.085.085 0 01.055.006.08.08 0 01.04.048c0 .002.001.006-.005.008s-.007-.001-.008-.004a.066.066 0 00-.032-.041c-.027-.013-.082-.002-.106.016a.27.27 0 00-.04.038c-.003.003-.005.006-.011.001-.006-.005-.003-.008 0-.01a.285.285 0 01.042-.041.123.123 0 01.044-.022.127.127 0 01.065-.034.579.579 0 01.086-.014.068.068 0 00-.033-.034.093.093 0 00-.048-.005.393.393 0 00-.099.053h.009c.009.001.017 0 .025.003.003 0 .006.002.004.008-.003.007-.023.003-.03.002-.008 0-.017 0-.026.003h-.005c-.037.023-.064.047-.095.073l-.006.002c-.027 0-.047.003-.058.012-.01.008-.011.02-.01.037-.004.015-.01.032-.012.05-.032.029-.069.057-.086.098a.093.093 0 01-.018.031.035.035 0 01.017.007.031.031 0 01.004.004.14.14 0 01.003-.02.088.088 0 01.01-.026c.002-.002.003-.003.005-.001.003.002.002.003.001.004a.076.076 0 00-.01.024.164.164 0 00-.003.033c0 .004-.007.004-.007 0a.019.019 0 00-.008-.013.034.034 0 00-.017-.005.208.208 0 01-.023.02c-.006.006-.013.012-.014.02 0 .015.017.018.035.019.04.002.008.024.03.044.01.007.02.016.027.026.015.006.024.004.035 0 .002-.027 0-.04.011-.04h.001l.003-.01a.06.06 0 01.01-.016c0-.001.001-.002.004 0 .002.002.002.003 0 .004a.051.051 0 00-.008.014.05.05 0 00-.002.011c.002.004.001.012.001.026a.157.157 0 01.066-.015c.043-.05.061-.037.023 0l-.006.01a.092.092 0 00-.012.04c-.01.01-.065.054-.044.07.014-.002.022-.001.017.01-.007.013-.027.043-.02.059.002.006.011.005.02.003l.001-.002a.387.387 0 00.043-.04.245.245 0 00.037-.051c.002-.003.003-.006.007-.005a.635.635 0 01.034-.094c.001-.003.004-.003.006-.001a.073.073 0 00.017.019c.005.003.01.005.015.005.005 0 .01-.002.016-.005a.072.072 0 00.017-.018c0-.001.002-.003.004 0 .003.001.002.003.001.004a.078.078 0 01-.018.02.032.032 0 01-.02.006.033.033 0 01-.019-.007.074.074 0 01-.015-.015.822.822 0 00-.032.089c.004.003.002.006 0 .008a.27.27 0 01-.038.055.379.379 0 01-.037.035.118.118 0 00.01.034.727.727 0 00.064-.062.388.388 0 00.05-.066c0-.001.001-.003.004-.001s.002.003.001.005a.36.36 0 01-.023.034c.002.002 0 .003 0 .004-.003.002-.005.01-.005.02a.255.255 0 00.001.045c0 .002 0 .003-.003.004-.003 0-.003-.001-.003-.003a.27.27 0 01-.001-.056.852.852 0 01-.081.081h-.001l.002.004c-.02.015-.038.02-.014.04l.023-.016.025-.018c.001 0 .003-.002.005.001s0 .004-.001.005l-.025.018-.024.017c0 .01.002.016.006.023h.005l.052-.038c.001 0 .003-.002.005.001s0 .004-.001.005l-.05.037a.048.048 0 01-.007.007c-.017.012-.076.05-.07.075a.226.226 0 00.042-.016.158.158 0 00.041-.03c.001-.002.003-.003.005 0 .002.002.001.003 0 .004a.168.168 0 01-.042.032v.007l-.001.007c0 .002 0 .004-.004.003-.003 0-.003-.001-.003-.003v-.007-.004a.237.237 0 01-.036.013c.005.024-.008.045-.02.065-.008.006-.067.054-.042.069a.064.064 0 00.021.005h.001z" fill="#F7DB17"/><path d="M17.07 5.844a.148.148 0 00-.045-.02.094.094 0 00-.033-.036c-.011-.007-.011-.007-.007-.015.013-.001.019-.005.019-.008.007 0 .012 0 .017.002.006.002.01.005.014.01 0 0 .002.002.004 0 .003-.002.002-.003.001-.005a.035.035 0 00-.016-.011.067.067 0 00-.025-.003h-.002a.048.048 0 00-.021-.004c-.01-.008-.017-.018-.013-.03l.002.001a.133.133 0 01.02.007c.005.002.009.005.012.008.001.002.002.003.005 0 .002-.002.001-.003 0-.004a.047.047 0 00-.015-.01.121.121 0 00-.015-.006.188.188 0 01.143.017c.024.01.035.022.048.04l-.013.01c-.03 0-.052.004-.066.014-.012.01-.014.026-.015.043z" fill="#F7DB17"/><path d="M18.084 7.258a.076.076 0 01-.028.012h.001a.176.176 0 01.023-.034l.004-.004V7.258zM18.213 7.532a.15.15 0 01-.025.028.261.261 0 01-.031.024c-.002 0-.003.002-.005-.001s0-.004.001-.005a.275.275 0 00.03-.023.14.14 0 00.024-.027s.002-.002.005 0c.003.001.002.003 0 .004zM18.297 7.431a2.101 2.101 0 00-.013.02c0 .001-.002.003-.004 0-.003-.001-.002-.002-.001-.004l.012-.02c.001 0 .002-.002.005 0 .003.001.002.003.001.004zM18.251 7.425a.073.073 0 01-.012.027.07.07 0 01-.028.022c-.002.001-.003.002-.005-.001-.001-.003 0-.004.002-.005a.064.064 0 00.026-.02.062.062 0 00.01-.025c0-.002.001-.003.005-.002.003 0 .003.002.002.004zM18.334 7.323a.074.074 0 00-.015.026c-.001.002-.002.004-.005.002-.003 0-.003-.002-.002-.004a.073.073 0 01.017-.028c.001-.001.002-.002.005 0 .002.002.001.003 0 .005zM18.402 7.33l-.01.03a.185.185 0 01-.013.028c0 .002-.002.003-.005.002-.002-.002-.002-.004 0-.005a.204.204 0 00.012-.028l.01-.029c0-.001 0-.003.004-.002.003 0 .002.002.002.004zM18.371 6.933a.167.167 0 01.027.095.442.442 0 01.008-.035.093.093 0 00.018-.074c0-.002 0-.004.003-.005.003 0 .004.002.004.003a.102.102 0 01-.018.079.819.819 0 00-.015.065v.004c0 .003-.007.003-.007 0v-.008c0-.04.001-.081-.025-.12-.001 0-.002-.002 0-.004.004-.002.005 0 .006 0zM18.32 7l-.001.007v.008c-.001.002-.001.004-.005.003-.003 0-.003-.002-.003-.003l.001-.008v-.008c0-.002.001-.003.005-.003.003 0 .003.002.003.004zM18.305 7.09a.403.403 0 01.016.09.065.065 0 01.027-.025c.001 0 .003-.002.004.001.002.003 0 .004 0 .005a.07.07 0 00-.02.017.047.047 0 00-.01.02c0 .004-.007.003-.007 0a.335.335 0 00-.016-.106c0-.002-.001-.003.002-.004s.004 0 .004.002zM18.377 7.122a.256.256 0 01.004.078c0 .002 0 .003-.004.003-.003 0-.003-.002-.003-.004a.217.217 0 00-.004-.076c0-.001 0-.003.003-.004.003 0 .004.001.004.003zM18.439 7.11a.157.157 0 01.003.038.095.095 0 01-.008.034.08.08 0 00-.003.038.165.165 0 00.013.04c.001.001.002.003-.001.004-.004.001-.004 0-.005-.002a.165.165 0 01-.014-.04.086.086 0 01.003-.042.09.09 0 00.008-.033l-.003-.035c0-.002-.001-.003.002-.004.004 0 .004.001.004.003zM18.468 7.008l-.005.02-.004.02s-.001.002-.004.002c-.004-.001-.003-.003-.003-.005a.839.839 0 01.01-.038c0-.002 0-.004.004-.003.003.001.003.003.002.004zM18.438 6.839l.005.017c0 .002.001.004-.002.005-.003 0-.004-.001-.004-.003l-.006-.017c0-.002 0-.003.002-.004.004-.001.004 0 .005.002zM18.453 6.71v.05a.05.05 0 00-.015.025.09.09 0 000 .039c0 .001 0 .003-.004.004-.003 0-.003-.001-.004-.003a.092.092 0 01.001-.041.056.056 0 01.017-.029l-.001-.021V6.71c0-.002 0-.003.003-.003s.003.001.003.003zM18.325 6.665c.02.013.037.027.049.044a.096.096 0 01.018.06.003.003 0 01-.005.003l-.033-.014a.24.24 0 01-.005.116.105.105 0 01-.061.064.003.003 0 01-.005-.004.24.24 0 00.008-.11c0-.001 0-.003.003-.003s.004 0 .004.003a.227.227 0 01-.006.105.098.098 0 00.05-.057.242.242 0 00.004-.119c0-.003.002-.005.005-.004l.034.015a.09.09 0 00-.017-.05.166.166 0 00-.046-.043c-.002-.001-.003-.002-.001-.005s.003-.002.004-.001zM18.66 6.599l-.002.007-.003.006c0 .002-.001.003-.004.002s-.003-.003-.002-.004l.003-.007.002-.006c.001-.002.002-.004.005-.002.003 0 .002.002.002.004zM18.582 6.597a.048.048 0 01.016.01c.004.005.008.01.01.015.001.002.002.003-.001.005-.003.001-.004 0-.005-.002a.052.052 0 00-.009-.012.038.038 0 00-.014-.01c-.001 0-.003 0-.002-.004.002-.003.003-.002.005-.002zM18.465 6.63c.008.01.014.021.017.034a.122.122 0 01.002.04c0 .002 0 .004-.004.003-.003 0-.003-.002-.003-.003a.114.114 0 00-.002-.039.067.067 0 00-.015-.03c-.001 0-.003-.002 0-.004.003-.003.004-.001.005 0zM18.07 6.669l-.002.013a.325.325 0 00-.001.014c0 .001 0 .003-.004.003-.003 0-.003-.002-.003-.004l.001-.013.002-.014c0-.001 0-.003.003-.003.004 0 .004.002.003.004zM18.143 6.63a.698.698 0 00.005.02l.002.005c0 .002 0 .003-.002.004-.004.001-.004 0-.005-.002l-.001-.006-.006-.019c0-.001 0-.003.002-.004.004-.001.004 0 .005.002zM18.293 6.731l.002.009v.008c0 .001 0 .003-.004.003s-.003-.002-.003-.004a.042.042 0 00-.002-.014c0-.002 0-.003.003-.004s.003 0 .004.002zM18.345 6.617a.023.023 0 01.006.01c.001.004 0 .007-.001.011-.001.002-.002.003-.005.001-.003-.001-.002-.003-.001-.004a.009.009 0 000-.007.017.017 0 00-.004-.007c-.001-.001-.002-.002 0-.005.003-.002.004 0 .005 0zM17.986 6.635c0 .008.001.016.004.023a.06.06 0 00.012.02.061.061 0 01.015.027c.002.009.002.018.002.026 0 .002 0 .003-.003.004-.003 0-.003-.002-.004-.004 0-.008 0-.016-.002-.024a.056.056 0 00-.013-.024.069.069 0 01-.018-.048c0-.002 0-.004.003-.004.004 0 .004.002.004.004zM18.131 6.733c.008.015.013.03.014.044a.151.151 0 01-.001.046.076.076 0 00.01.052c.01.015.024.03.043.044a.184.184 0 01-.009-.059.11.11 0 01.024-.064.093.093 0 00.014-.027.13.13 0 00.006-.027c0-.002 0-.004.004-.003.003 0 .003.002.003.004a.149.149 0 01-.007.028.099.099 0 01-.015.03.104.104 0 00-.022.06c0 .02.004.042.011.065 0 .003-.003.005-.005.004a.17.17 0 01-.052-.052.082.082 0 01-.012-.056.156.156 0 00.002-.044.118.118 0 00-.014-.042c0-.001-.002-.003.002-.005.003-.001.003 0 .004.002zM18.073 6.822a.107.107 0 01-.013.048.219.219 0 01-.024.038l.015-.006a.144.144 0 00.046-.033.2.2 0 00.019-.023c.001-.001.002-.003.005 0 .003.001.002.003 0 .004a.228.228 0 01-.037.04.19.19 0 01.002.01l.003.012c0 .002 0 .003-.003.004-.003 0-.004 0-.004-.003l-.003-.012-.001-.007a.157.157 0 01-.024.014l-.028.01c-.003.002-.006-.002-.003-.005a.239.239 0 00.031-.046.1.1 0 00.012-.045c0-.002 0-.003.003-.003.004 0 .004.001.004.003zM18.002 6.816v.016c0 .001 0 .003-.004.003-.003 0-.003-.002-.003-.003v-.016c0-.001 0-.003.003-.003.004 0 .004.002.004.003z" fill="#000"/><path d="M17.957 6.73c.01.022.012.043.008.063a.12.12 0 01-.027.056.124.124 0 00-.031.041.169.169 0 00-.012.034.115.115 0 01.012-.014.073.073 0 01.033-.02.32.32 0 00.076-.06s.002-.002.005 0c.002.002.001.004 0 .005a.27.27 0 01-.078.06v.001a.067.067 0 00-.031.018.147.147 0 00-.021.03c-.002.002-.007 0-.006-.003a.214.214 0 01.016-.054.13.13 0 01.032-.043.113.113 0 00.026-.052.106.106 0 00-.008-.06c0-.002-.001-.003.002-.005.003-.001.004 0 .004.002zM18.102 6.96c-.003.007.002.013.011.025l.006.008a.09.09 0 01.017.054.285.285 0 01-.007.057c0 .004-.006.003-.006 0a.117.117 0 00-.026-.056.224.224 0 00-.051-.045c-.002-.001-.003-.002-.001-.005s.003-.002.005-.001c.02.014.039.03.053.047.01.013.018.027.023.043a.22.22 0 00.004-.04.083.083 0 00-.016-.05l-.006-.008c-.01-.014-.016-.02-.013-.03.001-.002.002-.003.005-.002.003 0 .002.003.002.004zM18.163 6.957l.008.008.007.008c.002.001.003.002 0 .005-.002.002-.004 0-.005 0l-.007-.008-.008-.008c0-.002-.002-.003 0-.005.003-.003.004-.001.005 0zM18.239 6.981l-.014.046-.015.045c0 .002 0 .003-.004.002-.003 0-.003-.003-.002-.004l.014-.045.014-.046c0-.002.001-.003.005-.002.003.001.002.002.002.004zM18.282 7.235a.016.016 0 000 .01c0 .002 0 .004-.003.005s-.003 0-.004-.002a.023.023 0 010-.016c0-.002.001-.003.005-.002.003.001.002.003.002.004zM18.237 7.16l-.007.024a1.057 1.057 0 01-.006.024c0 .002 0 .003-.004.002-.003 0-.003-.002-.002-.004l.006-.024.006-.024c0-.001 0-.003.004-.002.003 0 .003.002.003.004zM18.172 7.16l.006.006c.001.001.002.002 0 .005-.003.002-.004 0-.005 0l-.006-.006c-.001-.002-.002-.003 0-.005.003-.002.004-.001.005 0zM18.096 7.123l-.005.014-.005.013c0 .002 0 .004-.004.002-.003 0-.003-.002-.002-.004l.005-.013.005-.014c0-.002 0-.003.004-.002.003.001.002.003.002.004zM17.987 7.238a.045.045 0 00-.009.015.08.08 0 00-.004.016c0 .002 0 .004-.004.003-.003 0-.003-.002-.003-.004a.097.097 0 01.005-.017.05.05 0 01.01-.017c.001-.001.002-.002.005 0 .002.002.001.003 0 .005zM17.676 7.544a.043.043 0 01-.007.01.071.071 0 01-.01.01c-.002.001-.003.002-.005 0-.002-.003-.001-.004 0-.005a.053.053 0 00.015-.018c.001-.002.002-.003.005-.002s.002.003.002.004zM17.724 7.518a.023.023 0 01-.006.009.04.04 0 01-.01.006c-.003 0-.004 0-.005-.002-.002-.004 0-.004.002-.005a.028.028 0 00.008-.005.018.018 0 00.005-.006c0-.001.002-.003.005-.002.003.002.002.003.001.005zM17.789 7.478a.032.032 0 01-.004.006.036.036 0 01-.007.005c-.001.001-.003.002-.005 0-.001-.004 0-.005.002-.005a.025.025 0 00.005-.005.04.04 0 00.003-.004c.001-.001.002-.003.005-.001s.002.003.001.005zM17.886 7.225a.093.093 0 00-.004.054c0 .002 0 .003-.003.004-.003 0-.003-.001-.004-.003a.091.091 0 01-.001-.029c0-.01.003-.019.006-.028 0-.002.001-.004.004-.002.004 0 .003.002.003.004zM17.953 6.551a.056.056 0 01-.006.023.088.088 0 01-.015.022c-.002 0-.003.002-.005 0-.003-.003-.002-.004 0-.005a.086.086 0 00.014-.02.05.05 0 00.005-.02c0-.002 0-.004.003-.003.004 0 .004.001.004.003zM17.885 6.491c.006.01.01.021.011.031.002.01.003.02.002.031 0 .002 0 .004-.003.003-.004 0-.003-.001-.003-.003 0-.01 0-.02-.002-.03a.092.092 0 00-.01-.028c-.002-.002-.003-.003 0-.005s.004 0 .005.001zM17.795 6.603a.098.098 0 01-.026-.028.042.042 0 01-.006-.028c0-.002 0-.003.004-.003.003 0 .003.002.002.004a.036.036 0 00.006.024.093.093 0 00.024.025c.002.001.003.002.001.005s-.003.002-.005 0zM17.895 6.771v.015c0 .002 0 .003-.004.003-.003 0-.003-.001-.003-.003V6.77c0-.002 0-.003.003-.003.004 0 .004.001.004.003zM17.768 6.643c.02.02.032.042.038.067a.22.22 0 01.006.05c.01-.003.017-.011.022-.024a.178.178 0 00.008-.059.12.12 0 00.015-.035.223.223 0 00.005-.035c0-.003.005-.004.006-.002a.287.287 0 01.03.052.192.192 0 01.015.059c0 .001 0 .003-.003.003s-.003-.001-.004-.003a.189.189 0 00-.014-.056.256.256 0 00-.024-.043.188.188 0 01-.004.027.128.128 0 01-.015.036.178.178 0 01-.009.058c-.005.015-.014.024-.025.028h-.003v.026c0 .002-.001.003-.005.003-.003 0-.003-.002-.003-.004a.241.241 0 00-.004-.079.129.129 0 00-.037-.063c0-.002-.002-.003 0-.005.003-.003.004-.002.005 0zM17.842 6.961l-.004.027-.004.027c0 .001 0 .003-.004.002-.003 0-.003-.002-.003-.003l.004-.027.005-.027c0-.002 0-.003.003-.003.004.001.004.003.003.004zM17.7 7.022c0 .007.002.013.003.02 0 .002 0 .003-.003.004-.003 0-.003-.001-.004-.003a1.44 1.44 0 01-.003-.02c0-.002-.001-.003.002-.004.004 0 .004.001.004.003zM17.823 6.858a.147.147 0 01-.033.075.074.074 0 00-.02.042.12.12 0 00.004.045c0 .001 0 .003-.003.004-.003 0-.003 0-.004-.003a.125.125 0 01-.004-.047.08.08 0 01.022-.045.137.137 0 00.031-.072c0-.002 0-.003.004-.003.003 0 .003.002.003.004zM17.79 6.81a.068.068 0 01-.005.039.145.145 0 01-.025.038.12.12 0 00-.026.031.268.268 0 00-.017.035c0 .001 0 .003-.004.002-.003-.002-.002-.003-.002-.005a.263.263 0 01.017-.035.124.124 0 01.027-.033.138.138 0 00.024-.036.06.06 0 00.005-.035c0-.001 0-.003.003-.004.003 0 .003.001.004.003zM17.633 6.885a.112.112 0 01-.01.068.154.154 0 01-.044.05c0 .002-.002.003-.005 0-.002-.002 0-.004.001-.005a.151.151 0 00.042-.049.106.106 0 00.01-.063c0-.002-.001-.004.002-.004.004 0 .004 0 .004.003zM17.432 6.996l.006.012.006.013c0 .002.001.003-.002.004-.003.002-.003 0-.004-.001l-.006-.013L17.426 7c0-.001-.001-.003.002-.004.003-.002.003 0 .004.001zM17.352 6.998c0 .015.001.03.005.045a.12.12 0 00.02.042.12.12 0 01.01.032.204.204 0 01.004.023c.01-.01.017-.021.022-.032a.094.094 0 00.01-.04c0-.001 0-.003.003-.003.004 0 .004.002.004.004a.102.102 0 01-.01.042.142.142 0 01-.03.04c-.002.001-.006 0-.006-.003l-.003-.03a.114.114 0 00-.01-.03.128.128 0 01-.02-.044.18.18 0 01-.005-.047c0-.001 0-.003.003-.003s.003.002.003.003zM17.363 7.27a.158.158 0 01.012-.05c0-.002.001-.003.004-.002s.003.003.002.004a.153.153 0 00-.011.048c0 .002 0 .004-.004.003-.003 0-.003-.002-.003-.003zM17.354 7.346l.004-.03c0-.002 0-.004.004-.003.003 0 .003.002.003.003a3.08 3.08 0 00-.004.03c0 .002 0 .004-.004.004s-.003-.003-.003-.004zM17.302 7.473a.287.287 0 00.028-.039c0-.002.001-.003.004-.001.003.001.002.003.001.004a.247.247 0 01-.029.04c0 .002-.002.003-.005 0-.002-.002 0-.003 0-.004zM17.226 7.046v.013c0 .002 0 .003-.003.003s-.003-.001-.003-.003v-.013c0-.001 0-.003.003-.003s.003.002.003.003zM17.099 7.34v-.01l-.002-.009c0-.001 0-.003.004-.003.003 0 .003.001.003.003l.001.01v.009c0 .001 0 .003-.003.003s-.003-.001-.003-.003zM17.419 6.818a.23.23 0 00-.011.065c0 .02.006.036.02.045.016.01.023.026.03.041l.001.003a.153.153 0 00.005-.023.115.115 0 000-.029c-.001-.001-.002-.003.002-.004.003 0 .004.001.004.003v.03a.168.168 0 01-.007.034c0 .003-.005.003-.006 0a.389.389 0 01-.005-.01c-.007-.015-.013-.03-.028-.04-.016-.01-.023-.028-.023-.05 0-.02.005-.044.012-.067 0-.002 0-.004.004-.003.003.001.002.003.002.004zM17.397 6.732a.166.166 0 01-.002.05.264.264 0 01-.015.05.157.157 0 00.006.13c.001.001.002.003-.001.004-.003.002-.004 0-.005-.001a.167.167 0 01-.006-.136.25.25 0 00.014-.048.152.152 0 00.002-.048c0-.002 0-.004.003-.004s.003.001.004.003zM17.248 6.944a.052.052 0 00-.004.03c.002.01.006.021.013.032 0 .001.001.003-.001.004-.003.002-.004 0-.005 0a.098.098 0 01-.014-.035.056.056 0 01.005-.034c0-.002.001-.003.004-.002.003.002.003.003.002.005zM17.183 6.92a.08.08 0 010 .02.055.055 0 01-.004.018.026.026 0 00-.002.018.055.055 0 00.008.018c.001.001.002.003 0 .005-.004.002-.005 0-.006-.001a.056.056 0 01-.01-.02.031.031 0 01.004-.022.048.048 0 00.004-.016v-.018c-.001-.002-.001-.004.002-.004.004 0 .004.001.004.003zM17.562 6.359a.15.15 0 00.02.096c.002 0 .002.002 0 .004-.004.002-.004 0-.005-.001a.153.153 0 01-.021-.1c0-.002 0-.003.003-.003.004 0 .004.002.003.004zM17.515 6.405a.267.267 0 01.033.112c0 .001 0 .003-.003.003-.004 0-.004-.001-.004-.003a.248.248 0 00-.032-.109c0-.001-.002-.003.001-.005.003-.001.004 0 .005.002zM17.28 6.412a.167.167 0 00-.035.081.106.106 0 00.013.06.15.15 0 01.008.054.167.167 0 01-.01.053c0 .002-.001.003-.004.002-.004-.001-.003-.003-.002-.004a.162.162 0 00.01-.052.144.144 0 00-.008-.05.113.113 0 01-.014-.063.175.175 0 01.036-.085c0-.001.002-.003.005 0 .002.001.001.003 0 .004zM17.499 6.319c.002.01 0 .02-.004.03a.069.069 0 01-.021.026.053.053 0 00-.02.031.114.114 0 00.001.046c0 .002.001.003-.002.004-.004 0-.004-.001-.004-.003a.124.124 0 01-.001-.048.06.06 0 01.022-.036.066.066 0 00.02-.023.042.042 0 00.002-.026c0-.001 0-.003.003-.004.003 0 .003.001.004.003zM17.266 6.339a.071.071 0 010 .042.103.103 0 01-.024.042.079.079 0 00-.025.037.193.193 0 00-.008.049c0 .001 0 .003-.003.003s-.003-.002-.003-.004a.2.2 0 01.007-.05.086.086 0 01.026-.04.098.098 0 00.024-.039.066.066 0 000-.038c0-.002-.002-.003.002-.004.003-.001.003 0 .004.002zM17.4 6.346c-.002.005-.002.01 0 .015 0 .005.002.01.005.014 0 .001.002.003-.001.005-.003.001-.004 0-.005-.001a.04.04 0 01-.007-.017v-.017c0-.002 0-.003.004-.003s.003.002.003.004zM17.393 6.31a.055.055 0 00-.028.027.116.116 0 00-.012.047l.001.003c.007.008.011.019.014.03a.164.164 0 01.004.044c0 .002 0 .003-.004.003-.003 0-.003-.002-.003-.003 0-.016 0-.03-.004-.042a.079.079 0 00-.011-.027.108.108 0 00-.039.078c0 .03.011.061.033.096.001.001.002.003 0 .005-.004.001-.004 0-.005-.001a.178.178 0 01-.034-.1c0-.03.014-.059.041-.084a.122.122 0 01.013-.052.062.062 0 01.031-.03c.002 0 .003 0 .005.002.001.003 0 .004-.002.005zM17.355 6.262v.007c-.002.016-.004.034-.016.045a.054.054 0 00-.014.021.1.1 0 00-.006.025c0 .002 0 .004-.004.003-.003 0-.003-.002-.003-.004a.11.11 0 01.006-.027.06.06 0 01.016-.023c.01-.01.012-.026.014-.04V6.26c0-.002 0-.004.004-.003.004 0 .003.002.003.004zM17.725 6.656a.137.137 0 01.01.026.093.093 0 01.002.028c0 .001 0 .003-.003.003-.004 0-.004-.002-.004-.004a.094.094 0 00-.011-.05c-.001-.001-.002-.003.002-.004.003-.002.003 0 .004.001zM17.726 6.778a.11.11 0 010 .042.145.145 0 01-.015.044l-.015.036c-.001.002-.002.003-.005.002s-.002-.003-.002-.004l.016-.037a.143.143 0 00.015-.042.107.107 0 000-.04c-.001-.002-.001-.003.002-.004.003 0 .004.001.004.003zM17.649 6.665a.167.167 0 01.041.164c0 .002 0 .003-.004.002-.003 0-.003-.002-.002-.004a.159.159 0 00-.04-.158c-.001-.001-.002-.002 0-.005.003-.002.004 0 .005 0zM17.642 6.801a.369.369 0 01-.057.086.167.167 0 00-.035.062c0 .003-.006.002-.006-.002 0-.01 0-.02-.004-.03a.122.122 0 00-.013-.031.088.088 0 01-.017-.055.103.103 0 01.021-.054.17.17 0 00.023-.077c0-.002 0-.003.003-.003.004 0 .004.002.004.003a.168.168 0 01-.024.08.098.098 0 00-.02.052.081.081 0 00.015.05.134.134 0 01.018.049.188.188 0 01.03-.048.323.323 0 00.056-.085c.001-.001.002-.003.005-.001.003.001.002.003.002.004zM17.44 6.736c0 .017.001.033.005.048a.14.14 0 00.016.04c.001.002.002.004 0 .005-.004.002-.005 0-.005 0a.144.144 0 01-.018-.044.197.197 0 01-.005-.049c0-.002 0-.003.004-.003.003 0 .003.002.003.003zM17.325 6.798v.02c0 .001 0 .003-.003.003-.004 0-.004-.002-.004-.004v-.02c0-.001 0-.003.004-.003.003 0 .003.002.003.004zM17.363 6.692a.093.093 0 01-.023.065c0 .001-.002.003-.004 0-.003-.002-.002-.003 0-.004a.09.09 0 00.02-.06c0-.002 0-.004.004-.004.003 0 .003.002.003.003zM17.26 6.897a.215.215 0 01-.019-.113.128.128 0 01.037-.072.14.14 0 00.03-.04.113.113 0 00.008-.06c0-.001 0-.003.003-.003s.003.001.004.003a.121.121 0 01-.009.062.146.146 0 01-.031.043.123.123 0 00-.035.068.209.209 0 00.018.11s.001.002-.002.004c-.003 0-.004 0-.004-.002zM17.2 6.82a.047.047 0 00-.003.023c0 .007.004.015.008.023.001 0 .002.002-.001.004s-.004 0-.005 0a.061.061 0 01-.009-.026.053.053 0 01.004-.026c0-.001 0-.003.004-.002.003.001.003.003.002.004zM17.494 6.612c.012.017.02.035.02.053a.106.106 0 01-.013.058c0 .002-.001.003-.004.002-.003-.002-.003-.004-.002-.005a.098.098 0 00.013-.054.098.098 0 00-.02-.05c0-.002-.002-.003.001-.005s.004 0 .005 0zM17.585 6.54a.158.158 0 01.005.11c0 .002-.006.002-.006-.002a.117.117 0 00-.011-.046.1.1 0 00-.028-.035c-.001 0-.003-.002 0-.004.002-.003.003-.002.004 0a.105.105 0 01.04.065.15.15 0 00-.009-.086c-.001-.001-.002-.003.001-.004s.004 0 .005.002zM17.64 6.466c.012.011.02.027.026.047.005.019.007.042.006.067a.134.134 0 000 .032c0 .01.003.019.008.027.001.001.002.003 0 .005-.003.002-.004 0-.005-.001a.068.068 0 01-.01-.03.148.148 0 010-.033.23.23 0 00-.006-.066.096.096 0 00-.024-.044c0-.001-.002-.002 0-.005.003-.002.004 0 .005 0zM17.495 6.451a.072.072 0 00-.015.034.128.128 0 000 .041c.001.002.001.004-.002.004s-.004 0-.004-.003a.13.13 0 010-.044.08.08 0 01.016-.036c.001-.001.002-.003.005 0 .003.001.002.003 0 .004zM17.212 6.642a.129.129 0 01-.023.07.162.162 0 01-.052.046c-.001 0-.003.002-.005-.001-.001-.003 0-.004.002-.005a.157.157 0 00.05-.044.123.123 0 00.021-.066c0-.002 0-.004.004-.004.003 0 .003.002.003.004zM17.205 6.544a.08.08 0 01-.002.031.14.14 0 01-.011.03c-.001.002-.002.004-.005.002-.003-.001-.002-.003-.001-.004a.13.13 0 00.01-.029.076.076 0 00.002-.028c0-.002 0-.004.003-.004s.004 0 .004.003zM17.397 6.53v.01c0 .017.002.033.003.05v.004c0 .002 0 .004-.003.004h-.001l-.003.001c-.003 0-.003-.002-.003-.003V6.54l-.001-.013c0-.002 0-.003.003-.004.003 0 .004.002.004.003v.004zM17.443 6.445a.076.076 0 00-.02.048c0 .016.005.031.012.047a.126.126 0 01.02.077.227.227 0 01-.022.077c0 .001-.001.003-.004.002-.003-.002-.002-.003-.002-.005a.217.217 0 00.021-.074.12.12 0 00-.019-.074.115.115 0 01-.012-.05c0-.018.006-.035.02-.053.002 0 .003-.002.005 0 .003.002.002.003 0 .005zM17.145 5.914a.134.134 0 01.068-.03.136.136 0 01.072.015h.052c.001 0 .003 0 .003.003s-.002.003-.003.003h-.026l-.024.001a.166.166 0 01-.072.042.07.07 0 01-.057-.012c-.002-.001-.004-.002-.002-.006.003-.003.005-.002.006 0 .016.01.032.014.05.01a.152.152 0 00.064-.036.123.123 0 00-.062-.011.125.125 0 00-.063.027c-.002.002-.004.003-.006 0-.003-.004-.001-.005 0-.006z" fill="#000"/><path d="M17.212 5.9c.01 0 .017.009.017.018 0 .01-.008.017-.017.017a.017.017 0 010-.034zM17.329 6.004a.143.143 0 00.049-.041c0-.002.002-.003.005-.001.002.002.001.003 0 .005a.152.152 0 01-.02.022.154.154 0 01-.03.02c-.002.002-.004.002-.005 0-.002-.003 0-.004.001-.005zM17.57 5.904a.034.034 0 01.02 0 .05.05 0 01.018.01c0 .001.002.002 0 .005s-.003.001-.005 0a.044.044 0 00-.015-.008.03.03 0 00-.016 0c-.001 0-.003 0-.004-.003 0-.003 0-.004.002-.004zM17.432 5.91a.056.056 0 01.025-.028.075.075 0 01.043-.007c.001 0 .003 0 .003.004 0 .003-.002.003-.004.003a.069.069 0 00-.039.006.047.047 0 00-.021.024c-.001.002-.002.003-.005.002s-.002-.003-.002-.005zM17.448 5.932c.001-.006.004-.011.008-.016a.036.036 0 01.017-.01c.002 0 .004 0 .004.003.001.003 0 .004-.002.004a.03.03 0 00-.014.008.023.023 0 00-.006.012c0 .002 0 .003-.004.003-.003 0-.003-.002-.003-.004zM17.218 6.009a.1.1 0 00-.01.018.052.052 0 00-.003.022c0 .001 0 .003-.003.003s-.003-.001-.003-.003c-.001-.009 0-.017.003-.024a.09.09 0 01.01-.02c.001-.002.002-.003.005-.001s.002.003 0 .004h.001zM17.284 6.038v.01c0 .002 0 .004-.003.004-.004 0-.004-.002-.004-.004v-.01c0-.002 0-.003.004-.003.003 0 .003.001.003.003zM17.241 5.964a.063.063 0 00.02.004c.007 0 .014 0 .021-.002.002 0 .003 0 .004.002 0 .004 0 .004-.002.005a.091.091 0 01-.023.002.065.065 0 01-.022-.004c-.002 0-.004-.001-.002-.005.001-.003.003-.002.004-.002zM17.284 5.84a.02.02 0 00-.014.005.024.024 0 00-.009.012c0 .002 0 .004-.004.003-.003-.001-.003-.003-.002-.005a.032.032 0 01.01-.015.028.028 0 01.019-.006c.001 0 .003 0 .003.003 0 .004-.002.004-.003.004zM17.215 5.848a.052.052 0 00-.012.007.016.016 0 00-.006.007c0 .002 0 .003-.004.002-.003 0-.003-.002-.002-.004a.023.023 0 01.008-.01.056.056 0 01.013-.009c.002 0 .004 0 .005.002.001.003 0 .004-.002.005zM17.173 5.849a.045.045 0 00-.018.022c0 .001-.001.003-.004.001-.003 0-.003-.002-.002-.004a.05.05 0 01.008-.014.06.06 0 01.012-.01c.001-.002.003-.003.005 0s0 .004-.001.005zM17.118 5.892a.112.112 0 00-.024.026c-.001.001-.002.003-.005 0-.003-.001-.002-.003-.001-.004a.138.138 0 01.026-.027c.002-.001.003-.002.005 0 .002.003 0 .004 0 .005zM17.124 5.952l-.01.01-.01.011c0 .002-.002.003-.005 0-.002-.002-.001-.003 0-.004l.01-.01.01-.011c.001-.002.002-.003.005 0 .002.002.001.003 0 .004zM17.069 5.968v.021c0 .002 0 .004-.003.004-.004 0-.004-.002-.004-.004v-.02c0-.002 0-.004.003-.004.004 0 .004.002.004.003zM17.14 6.06l-.004.035V6.1c0 .001 0 .003-.004.003-.003 0-.003-.002-.003-.004v-.003l.003-.035c0-.001 0-.003.004-.003s.004.002.003.004zM17.098 6.03v.023c0 .001 0 .003-.004.003s-.004-.002-.004-.003l.001-.023c0-.002 0-.003.004-.003.003 0 .003.002.003.003zM17.06 5.737a.048.048 0 01.03.03c0 .002.001.004-.002.005-.003 0-.004 0-.004-.002a.042.042 0 00-.01-.017.045.045 0 00-.017-.01c-.001 0-.003-.001-.002-.004s.003-.003.004-.002zM17.397 6.177a.107.107 0 01.001.088c0 .001-.001.003-.004.002-.003-.002-.003-.003-.002-.005a.102.102 0 00-.001-.083c-.001-.001-.002-.003.001-.004s.004 0 .005.002zM17.287 6.304a.181.181 0 01.02-.044.422.422 0 01.026-.037.115.115 0 00.022-.093c0-.002 0-.004.003-.004s.004 0 .004.003a.12.12 0 01-.024.099.432.432 0 00-.026.035.17.17 0 00-.018.043c-.001.001-.002.003-.005.002-.003 0-.003-.002-.002-.004zM17.145 6.266a.046.046 0 01.01-.016.057.057 0 01.018-.012c.002 0 .003-.001.005.001 0 .004 0 .004-.002.005a.053.053 0 00-.015.01.038.038 0 00-.01.015c0 .001 0 .003-.004.002-.003-.001-.002-.003-.002-.005zM17.118 6.257a.147.147 0 01.017-.02.07.07 0 01.02-.013c.002 0 .004-.001.005.002.002.003 0 .004-.002.004a.062.062 0 00-.019.013.138.138 0 00-.016.018s-.002.002-.004 0c-.003-.002-.002-.003-.001-.005zM17.265 6.111a.044.044 0 00.017.004c.005 0 .01 0 .015-.002.002 0 .003 0 .004.003s0 .003-.002.004a.051.051 0 01-.037-.002c-.002-.001-.003-.002-.002-.005.002-.003.003-.002.005-.002zM17.192 6.102l.005-.006c.002-.002.003-.003.005-.001.003.002.002.003 0 .005a.14.14 0 01-.005.006c-.002.002-.003.003-.005 0-.003-.001-.002-.003 0-.004zM18.768 6.557a.07.07 0 01.014.024c.001.001.002.003-.002.004-.003.001-.003 0-.004-.002a.053.053 0 00-.013-.021c0-.002-.002-.003 0-.005.003-.003.004-.002.005 0zM17.018 7.378a.111.111 0 00.024.017.062.062 0 00.028.007c.002 0 .003 0 .003.004 0 .003-.002.003-.003.003a.07.07 0 01-.032-.007.115.115 0 01-.025-.019s-.002-.002 0-.005c.002-.002.004-.001.005 0z" fill="#000"/><path d="M18.34 5.81c.038.002.075 0 .107-.005a.296.296 0 01-.124.049.051.051 0 00.017-.022.028.028 0 000-.022zM18.246 5.8a.798.798 0 00.078.01c.005.007.006.012.004.018-.002.006-.008.012-.017.019-.003.002-.006.004-.002.009a.368.368 0 01-.08.001c.002 0 .003-.001.003-.002a.06.06 0 00.018-.03.041.041 0 00-.004-.025zM17.561 5.603a.864.864 0 01.134-.006.064.064 0 01.032.027c.008.013.01.03.007.051 0 .003 0 .006.005.007.007.001.007-.002.008-.005a.09.09 0 00-.009-.06.068.068 0 00-.017-.019h.012a.333.333 0 01.138.041l.001.001c.01.01.013.02.012.031a.075.075 0 01-.02.036c-.002.003-.004.005 0 .01.006.004.008.001.01-.001a.088.088 0 00.022-.043.045.045 0 00-.002-.023c.038.02.077.037.114.057l.003.001v.003c.003.01.002.02-.003.028a.064.064 0 01-.031.02c-.003.002-.006.003-.004.009.002.006.005.004.008.003a.075.075 0 00.037-.025.04.04 0 00.007-.03c.025.014.05.028.076.04.004.009.005.017.002.024-.004.008-.013.016-.027.022-.002.002-.005.003-.003.009.003.006.006.004.009.003.017-.008.027-.018.032-.028a.036.036 0 00.003-.023.513.513 0 00.114.035.03.03 0 01.006.024.048.048 0 01-.014.024c-.002.002-.004.004 0 .009l.003.001c-.097-.01-.183-.056-.273-.09l-.033-.013c-.033-.013-.067-.03-.1-.043a.01.01 0 00-.004-.002l-.007-.003-.005-.001h.001a.553.553 0 00-.092-.021.4.4 0 00-.107-.002H17.6a.069.069 0 00-.008-.05.082.082 0 00-.031-.028z" fill="red"/><path d="M17.403 5.646a.569.569 0 01.135-.04.088.088 0 01.043.031c.008.012.01.026.007.042a.289.289 0 00-.12.015.08.08 0 00-.04-.042.081.081 0 00-.025-.006zM17.89 5.892a.452.452 0 00-.235-.078l.002-.001c.024-.025.03-.049.021-.071a.11.11 0 00-.042-.048.346.346 0 01.07.004.536.536 0 01.117.033c.01.021.013.04.009.056-.005.017-.017.031-.038.043-.003.001-.005.003-.002.009.003.005.006.004.008.002.024-.013.039-.03.044-.05a.09.09 0 00-.004-.054 1.92 1.92 0 01.135.09c0 .028-.008.044-.02.052-.015.008-.035.01-.058.007-.003 0-.006 0-.007.006z" fill="red"/><path d="M18.023 5.992c-.04-.031-.08-.064-.122-.092.023.001.044 0 .06-.01.015-.01.025-.026.027-.053a.907.907 0 01.108.095.07.07 0 01.003.026.03.03 0 01-.008.018.036.036 0 01-.017.01.117.117 0 01-.045.002c-.002 0-.006-.001-.006.004z" fill="red"/><path d="M18.161 6.084A.79.79 0 0118.033 6c.018.002.032 0 .044-.002a.05.05 0 00.024-.014.043.043 0 00.01-.025v-.013a.684.684 0 00.138.093v.003c.002.013-.005.02-.018.026a.225.225 0 01-.064.01c-.003 0-.006 0-.006.005z" fill="red"/><path d="M18.31 6.142a.774.774 0 01-.134-.051.213.213 0 00.06-.01c.017-.008.027-.018.026-.035a.71.71 0 00.083.036c.005.011.005.02 0 .028-.005.009-.017.017-.032.023-.003.001-.006.003-.003.009z" fill="red"/><path d="M18.619 6.11c.004 0 .029-.007.016.003-.091.06-.207.06-.316.031a.083.083 0 00.038-.028.037.037 0 00.004-.029c.034.011.07.02.106.024a.025.025 0 01-.006.017.08.08 0 01-.031.02c-.003.002-.006.003-.004.009.003.006.006.004.009.003a.094.094 0 00.036-.025.036.036 0 00.009-.023.586.586 0 00.139-.002zM17.99 7.678a.131.131 0 00-.019.025c-.026.009-.05.022-.078.02 0 .019.006.027.024.027.035-.018.043-.02.046-.018.005.003-.005.029-.034.05-.004.002-.004.004-.001.008.024.039.089.025.123.016a.161.161 0 00.082-.06c.005-.012-.006-.027-.017-.039-.027.004-.036-.009-.032-.017a.256.256 0 00-.095-.012zM17 7.367a.215.215 0 01-.07.038c-.01.003-.033.009-.035.021 0 .005.016.015.026.009.03-.028.044-.013.01.016-.002.005 0 .011.006.016.03.028.105.036.139.015.025-.016.038-.033.016-.057 0-.006 0-.01.002-.016l-.042-.005-.025-.014L17 7.367zM17.651 7.593l-.008.001c-.013.015.024.01.044.021.009.006.012.017.009.031-.018.044-.12.03-.153.012-.015-.008-.016-.018-.015-.031.007 0 .014 0 .02-.002a.1.1 0 00.037-.012c.003-.002.006-.004.002-.01-.003-.007-.007-.005-.01-.003a.084.084 0 01-.03.01.168.168 0 01-.032.001h-.003c-.006-.003-.01-.007-.008-.01.003-.004.013 0 .014 0a.188.188 0 01.047-.015l.006-.007c.031.002.06.007.08.014zM17.184 7.567c-.007.003-.009.009-.013.018a.178.178 0 01-.057.04c-.02.008-.001.016.012.025.012.009.028-.01.037-.025.011-.016.022-.011.015.001a.129.129 0 00-.014.044c-.004.011.038.02.046.02.025.001.058-.024.078-.037.017-.017.014-.032.007-.053V7.6l-.03-.003a.223.223 0 01-.037-.012c-.002-.001-.004-.002-.002-.005 0-.002.001-.002.003-.002l-.045-.01zM17.365 5.844h.02c.014.001.026.007.04.009a.292.292 0 01.111-.025.372.372 0 01.113-.014l-.001-.001c-.005-.005-.002-.007 0-.01.02-.02.025-.04.019-.057-.007-.018-.026-.034-.052-.05-.027.003-.054-.004-.083 0a.26.26 0 00-.054.011.088.088 0 01.038.026.134.134 0 01.028.063c0 .003 0 .006-.006.007-.006.002-.006-.002-.007-.005a.121.121 0 00-.024-.056c-.013-.018-.04-.025-.05-.028a.567.567 0 00-.083.012.13.13 0 00-.048.022.084.084 0 01.056.005.08.08 0 01.038.048c.002.003.002.006-.004.008s-.007-.001-.008-.004a.066.066 0 00-.032-.04c-.027-.014-.082-.002-.105.015a.274.274 0 00-.04.039l-.006.003c.05.003.1.006.14.022zm-.15-.029l.003-.006a.286.286 0 01.043-.041.123.123 0 01.044-.022.128.128 0 01.066-.034.58.58 0 01.085-.013.068.068 0 00-.033-.035.093.093 0 00-.048-.005.393.393 0 00-.099.054h.009c.009 0 .017-.001.025.002.003.001.006.002.004.008-.003.007-.023.003-.03.002-.008 0-.017 0-.026.003h-.005a.658.658 0 00-.082.063c.02.007.035.015.045.024z" fill="red"/><path d="M20.96 9.527l1.355-3.071-1-1.614-1.782.66-.825 3.246c.778.198 1.53.46 2.252.779z" fill="#0093DD"/><path d="M19.232 6.686c.893.228 1.757.529 2.586.895l-.522 1.186a15.148 15.148 0 00-2.383-.825l.32-1.256z" fill="#fff"/><path d="M21.38 8.576l.349-.791a16.238 16.238 0 00-2.551-.883l-.206.81c.835.213 1.644.494 2.42.837l-.012.027z" fill="red"/><path d="M19.43 7.518c.023-.014.048-.01.073-.007a.178.178 0 01.069-.009.126.126 0 01.037-.013c.008-.006.008-.012.001-.019a.041.041 0 01-.01-.023c-.04-.023-.055-.059-.07-.094-.023-.006-.034-.014-.037-.023a2.179 2.179 0 01-.033-.003c-.052.006-.065-.011-.084-.025a.061.061 0 01-.037-.03l-.018-.021c-.014-.019-.01-.043.012-.041.015.002.03.002.044-.005a.132.132 0 01.06-.005c.02-.001.035-.015.056-.035v-.026c-.004-.009 0-.013.013-.012.028.001.045.015.056.034a.108.108 0 01.077.049c.044 0 .073.017.077.033.002.012-.01.025-.03.04v.009c.012.01.02.02.023.03a.24.24 0 01.07.041c.063-.007.169.038.312.13.093.016.183.042.269.08h.055a.558.558 0 01.444.102.55.55 0 01.146.042c.034.014.068.02.103.022.056.006.113.02.17.046.064.014.123.034.16.079.026.031.02.06-.014.073-.02.042-.06.044-.12.023-.041.008-.087-.026-.128-.057a.654.654 0 01-.162-.086.21.21 0 00-.081-.04c-.021-.004-.04-.007-.053 0-.006.004-.005.007 0 .011.015.012.025.03.028.053.003.019 0 .041.001.065.002.025.017.043.042.058.017.01.037.022.067.026.014.003.018.011.017.022.008.038.016.076.03.11.003.01.01.014.022.023.038.027.018.058-.017.065a.202.202 0 01-.088.052c-.025.008-.035-.002-.043-.014a.031.031 0 01-.03-.016c-.03-.023-.004-.062.07-.045 0-.009.007-.011.013-.011a.097.097 0 01.002-.06c-.007-.004-.012-.01-.022-.012a.184.184 0 01-.07-.04c-.038-.034-.097-.064-.153-.093-.046-.003-.08-.024-.117-.042h-.05c-.014-.006-.025 0-.034.01-.015.017-.031.015-.051.012-.023-.002-.047 0-.07-.001-.01.003-.022.006-.034.006-.026 0-.051-.001-.069.013-.014.015-.028.014-.042.009a.064.064 0 01-.023-.016c-.018-.004-.03-.008-.034-.014-.03-.008-.038-.017-.037-.025-.04-.01-.02-.042.005-.043.03 0 .059.005.089.01a.083.083 0 00.077-.017c.013-.012.018-.022.034-.03a.251.251 0 01-.118-.031c-.076-.048-.136-.06-.185-.02-.013.008-.023.011-.037.006a.07.07 0 00-.038-.002.144.144 0 01-.082-.007.267.267 0 01-.12.004c-.034.018-.058.02-.074.006a.547.547 0 01-.042-.026c-.022-.003-.031-.009-.032-.016-.028-.003-.031-.013-.03-.024-.012-.013-.008-.023.003-.032a.073.073 0 01.066 0 .17.17 0 01.033.02c.015-.001.029 0 .04.005.01-.014.034-.014.06-.013a.104.104 0 01.05-.017v-.01c-.028-.007-.042-.026-.055-.046a.192.192 0 01-.102-.037.102.102 0 01-.063-.017.15.15 0 01-.049-.002.167.167 0 01-.091 0c-.02.001-.037 0-.053-.002-.02.022-.04.026-.064.014a.098.098 0 00-.054-.033c-.018-.005-.023-.013-.026-.021-.022-.013-.017-.026.003-.036.016-.008.035-.009.064.006.01.003.02.006.033.007z" fill="#000"/><path d="M20.45 7.83c-.002-.004-.006-.013-.022-.004-.048-.003-.102-.002-.143-.026-.043-.025-.086-.051-.133-.05a.118.118 0 01.051-.027.228.228 0 01.094-.002c.05.009.093.018.127.03.033.013.056.028.066.048l.003.003a.23.23 0 01.052.047.186.186 0 01-.095-.02z" fill="#fff"/><path d="M20.562 5.49l.002.015.061.316-.242.211-.011.01.014.005.304.105.061.316.003.015.012-.01.243-.21.304.103.014.005-.003-.014-.06-.316.242-.212.011-.01-.014-.004-.304-.106-.062-.315-.003-.015-.01.01-.244.21-.304-.104-.014-.004z" fill="#000"/><path d="M20.413 6.029l.227-.198.285.098-.512.1zM20.962 5.922l.228-.198.284.099-.512.1zM21.476 5.833l-.227.197-.285-.098.512-.1zM20.926 5.94l-.227.197-.284-.098.511-.1zM20.594 5.52l.284.097.058.296-.342-.393zM20.961 5.942l.285.098.057.295-.342-.393zM21.295 6.342l-.284-.097-.058-.296.342.393zM20.928 5.92l-.285-.098-.057-.296.342.394zM21.125 5.421l.058.296-.227.197.17-.493zM20.943 5.95l.057.296-.227.198.17-.493zM20.764 6.44l-.058-.295.227-.198-.17.493zM20.946 5.911l-.058-.296.227-.197-.17.493z" fill="#F7DB17"/></svg><svg width="40" height="40" fill="none" viewBox="-5 -5 40 40" id="hu" x="80" y="80" xmlns="http://www.w3.org/2000/svg"><path d="M29.063 20.215C29.672 18.592 30 16.834 30 15s-.328-3.592-.938-5.215L15 8.48.937 9.785A14.674 14.674 0 000 15c0 1.834.328 3.592.938 5.215L15 21.52l14.063-1.306z" fill="#fff"/><path d="M29.063 9.785C26.953 4.072 21.444 0 15 0S3.047 4.072.937 9.785h28.125z" fill="#CD2A3E"/><path d="M15 30c6.445 0 11.953-4.072 14.063-9.785H.938C3.046 25.928 8.555 30 15 30z" fill="#436F4D"/></svg><svg width="40" height="40" fill="none" viewBox="-5 -5 40 40" id="id" x="120" xmlns="http://www.w3.org/2000/svg"><path d="M15 30c8.284 0 15-6.716 15-15 0-8.284-6.716-15-15-15C6.716 0 0 6.716 0 15c0 8.284 6.716 15 15 15z" fill="#F0F0F0"/><path d="M0 15C0 6.715 6.715 0 15 0s15 6.715 15 15" fill="#A2001D"/></svg><svg width="40" height="40" fill="none" viewBox="-5 -5 40 40" id="it" x="120" y="40" xmlns="http://www.w3.org/2000/svg"><path d="M15 30c8.284 0 15-6.716 15-15 0-8.284-6.716-15-15-15C6.716 0 0 6.716 0 15c0 8.284 6.716 15 15 15z" fill="#F0F0F0"/><path d="M30 15C30 8.555 25.928 3.047 20.215.937v28.125C25.928 26.953 30 21.445 30 15z" fill="#D80027"/><path d="M0 15c0 6.445 4.072 11.953 9.785 14.063V.938C4.072 3.046 0 8.555 0 15z" fill="#6DA544"/></svg><svg width="40" height="40" fill="none" viewBox="-5 -5 40 40" id="jp" x="120" y="80" xmlns="http://www.w3.org/2000/svg"><path d="M15 30c8.284 0 15-6.716 15-15 0-8.284-6.716-15-15-15C6.716 0 0 6.716 0 15c0 8.284 6.716 15 15 15z" fill="#F0F0F0"/><path d="M15 22.5a7.5 7.5 0 100-15 7.5 7.5 0 000 15z" fill="#BC002D"/></svg><svg width="40" height="40" fill="none" viewBox="-5 -5 40 40" id="lt" xmlns="http://www.w3.org/2000/svg"><path d="M29.063 20.215C29.672 18.592 30 16.834 30 15s-.328-3.592-.938-5.215L15 8.48.937 9.785A14.674 14.674 0 000 15c0 1.834.328 3.592.938 5.215L15 21.52l14.063-1.306z" fill="#6DA544"/><path d="M29.063 9.785C26.953 4.072 21.444 0 15 0S3.047 4.072.937 9.785h28.125z" fill="#FFDA44"/><path d="M15 30c6.445 0 11.953-4.072 14.063-9.785H.938C3.046 25.928 8.555 30 15 30z" fill="#D80027"/></svg><svg width="40" height="40" fill="none" viewBox="-5 -5 40 40" id="lv" x="40" y="120" xmlns="http://www.w3.org/2000/svg"><path d="M15 30c8.284 0 15-6.716 15-15 0-8.284-6.716-15-15-15C6.716 0 0 6.716 0 15c0 8.284 6.716 15 15 15z" fill="#F0F0F0"/><path d="M15 0C8.068 0 2.238 4.7.516 11.086h28.968C27.762 4.699 21.926 0 15 0zm0 30c6.932 0 12.762-4.7 14.484-11.086H.516C2.238 25.301 8.074 30 15 30z" fill="#A2001D"/></svg><svg width="40" height="40" fill="none" viewBox="-5 -5 40 40" id="my" x="80" y="120" xmlns="http://www.w3.org/2000/svg"><path d="M15 30c8.284 0 15-6.716 15-15 0-8.284-6.716-15-15-15C6.716 0 0 6.716 0 15c0 8.284 6.716 15 15 15z" fill="#F0F0F0"/><path d="M14.355 15H30c0-1.348-.176-2.666-.516-3.914H14.355V15zm0-7.828h13.442a15.19 15.19 0 00-3.457-3.908h-9.985v3.908zM15 30c3.527 0 6.773-1.219 9.34-3.264H5.66A14.9 14.9 0 0015 30zM2.203 22.828h25.594a14.924 14.924 0 001.687-3.914H.516c.375 1.395.949 2.707 1.687 3.914z" fill="#D80027"/><path d="M15 15V0C6.715 0 0 6.715 0 15h15z" fill="#0052B4"/><path d="M9.973 12.832a3.7 3.7 0 01-3.71-3.703 3.698 3.698 0 013.692-3.71 3.64 3.64 0 011.758.446 4.557 4.557 0 00-3.176-1.289c-2.52 0-4.57 2.051-4.57 4.57 0 2.52 2.05 4.57 4.57 4.57 1.23 0 2.361-.503 3.182-1.312a3.562 3.562 0 01-1.758.446l.012-.018z" fill="#FFDA44"/><path d="M11.016 6.521l.662 1.377 1.488-.351-.668 1.383 1.195.949-1.488.334v1.523l-1.172-.955-1.195.955v-1.523L8.35 9.879l1.195-.95-.668-1.376 1.488.334" fill="#FFDA44"/></svg><svg width="40" height="40" fill="none" viewBox="-5 -5 40 40" id="nl" x="120" y="120" xmlns="http://www.w3.org/2000/svg"><path d="M29.063 20.215C29.672 18.592 30 16.834 30 15s-.328-3.592-.938-5.215L15 8.48.937 9.785A14.674 14.674 0 000 15c0 1.834.328 3.592.938 5.215L15 21.52l14.063-1.306z" fill="#fff"/><path d="M29.063 9.785C26.953 4.072 21.444 0 15 0S3.047 4.072.937 9.785h28.125z" fill="#AE1C28"/><path d="M15 30c6.445 0 11.953-4.072 14.063-9.785H.938C3.046 25.928 8.555 30 15 30z" fill="#21468B"/></svg><svg width="40" height="40" fill="none" viewBox="-5 -5 40 40" id="pl" x="160" xmlns="http://www.w3.org/2000/svg"><path d="M15 30c8.284 0 15-6.716 15-15 0-8.284-6.716-15-15-15C6.716 0 0 6.716 0 15c0 8.284 6.716 15 15 15z" fill="#F0F0F0"/><path d="M30 15c0 8.285-6.715 15-15 15S0 23.285 0 15" fill="#D80027"/></svg><svg width="40" height="40" fill="none" viewBox="-5 -5 40 40" id="pt" x="160" y="40" xmlns="http://www.w3.org/2000/svg"><path d="M0 15c0 6.445 4.072 11.953 9.785 14.063L11.085 15 9.786.937C4.072 3.047 0 8.556 0 15z" fill="#6DA544"/><path d="M30 15c0-8.285-6.715-15-15-15-1.834 0-3.592.328-5.215.938v28.125c1.623.609 3.381.937 5.215.937 8.285 0 15-6.715 15-15z" fill="#D80027"/><path d="M9.785 20.215a5.215 5.215 0 100-10.43 5.215 5.215 0 000 10.43z" fill="#FFDA44"/><path d="M6.855 12.393v3.252a2.93 2.93 0 105.86.011v-3.263h-5.86z" fill="#D80027"/><path d="M9.785 16.629a.98.98 0 01-.978-.979v-1.289h1.957v1.29c0 .55-.44.995-.979.995v-.017z" fill="#F0F0F0"/></svg><svg width="40" height="40" fill="none" viewBox="-5 -5 40 40" id="ru" x="160" y="80" xmlns="http://www.w3.org/2000/svg"><path d="M15 30c8.284 0 15-6.716 15-15 0-8.284-6.716-15-15-15C6.716 0 0 6.716 0 15c0 8.284 6.716 15 15 15z" fill="#F0F0F0"/><path d="M29.063 20.215C29.672 18.592 30 16.834 30 15s-.328-3.592-.938-5.215H.938A14.674 14.674 0 000 15c0 1.834.328 3.592.938 5.215L15 21.52l14.063-1.306z" fill="#0052B4"/><path d="M15 30c6.445 0 11.953-4.072 14.063-9.785H.938C3.046 25.928 8.555 30 15 30z" fill="#D80027"/></svg><svg width="40" height="40" fill="none" viewBox="-5 -5 40 40" id="se" x="160" y="120" xmlns="http://www.w3.org/2000/svg"><path d="M15 30c8.284 0 15-6.716 15-15 0-8.284-6.716-15-15-15C6.716 0 0 6.716 0 15c0 8.284 6.716 15 15 15z" fill="#006AA7"/><path fill-rule="evenodd" clip-rule="evenodd" d="M.3 12H9V1.248A14.95 14.95 0 0115 0v12h14.7c.197.97.3 1.973.3 3s-.103 2.03-.3 3H15v12a14.95 14.95 0 01-6-1.248V18H.3c-.197-.97-.3-1.973-.3-3s.103-2.03.3-3z" fill="#FECC00"/></svg><svg width="40" height="40" fill="none" viewBox="-5 -5 40 40" id="tc" y="160" xmlns="http://www.w3.org/2000/svg"><path d="M30 15c0 8.285-6.715 15-15 15S0 23.285 0 15L15 0c8.285 0 15 6.715 15 15z" fill="#D80027"/><path d="M15 15V0C6.715 0 0 6.715 0 15h15z" fill="#0052B4"/><path d="M13.043 8.777l-1.834.862.979 1.775-1.993-.38-.252 2.009-1.382-1.477-1.377 1.477-.252-2.01-1.98.381.972-1.775-1.828-.862 1.822-.867-.984-1.758 1.992.381.246-2.01L8.56 6.006l1.4-1.494.252 2.01 1.992-.381-.973 1.775" fill="#F0F0F0"/><path d="M8.56 11.572a2.795 2.795 0 100-5.59 2.795 2.795 0 000 5.59z" fill="#0052B4"/><path d="M8.555 10.266c-.82 0-1.483-.668-1.483-1.489 0-.82.668-1.488 1.489-1.488.82 0 1.5.668 1.5 1.488a1.49 1.49 0 01-1.489 1.489h-.017z" fill="#F0F0F0"/></svg><svg width="40" height="40" fill="none" viewBox="-5 -5 40 40" id="th" x="40" y="160" xmlns="http://www.w3.org/2000/svg"><path d="M15 30c8.284 0 15-6.716 15-15 0-8.284-6.716-15-15-15C6.716 0 0 6.716 0 15c0 8.284 6.716 15 15 15z" fill="#F0F0F0"/><path d="M29.063 9.785H.938A14.674 14.674 0 000 15c0 1.834.328 3.592.938 5.215h28.125C29.672 18.592 30 16.834 30 15s-.328-3.592-.938-5.215z" fill="#0052B4"/><path d="M15 0C10.453 0 6.387 2.021 3.633 5.215h22.734C23.613 2.02 19.553 0 15 0zm11.367 24.785H3.633C6.387 27.98 10.453 30 15 30c4.547 0 8.613-2.021 11.367-5.215z" fill="#D80027"/></svg><svg width="40" height="40" fill="none" viewBox="-5 -5 40 40" id="ua" x="80" y="160" xmlns="http://www.w3.org/2000/svg"><path d="M15 30c8.284 0 15-6.716 15-15 0-8.284-6.716-15-15-15C6.716 0 0 6.716 0 15c0 8.284 6.716 15 15 15z" fill="#FFDA44"/><path d="M0 15C0 6.715 6.715 0 15 0s15 6.715 15 15" fill="#338AF3"/></svg><svg width="40" height="40" fill="none" viewBox="-5 -5 40 40" id="uz" x="120" y="160" xmlns="http://www.w3.org/2000/svg"><path fill-rule="evenodd" clip-rule="evenodd" d="M30 15c0 8.284-6.716 15-15 15-8.284 0-15-6.716-15-15A14.96 14.96 0 014.802 4h20.396A14.96 14.96 0 0130 15z" fill="#1EB53A"/><path fill-rule="evenodd" clip-rule="evenodd" d="M0 15h30c0-8.284-6.716-15-15-15C6.716 0 0 6.716 0 15z" fill="#0099B5"/><path fill-rule="evenodd" clip-rule="evenodd" d="M.854 20h28.292c.553-1.564.854-3.247.854-5 0-1.385-.188-2.727-.54-4H.54A15.014 15.014 0 000 15c0 1.753.3 3.436.854 5z" fill="#CE1126"/><path fill-rule="evenodd" clip-rule="evenodd" d="M.54 19h28.92c.352-1.273.54-2.615.54-4 0-1.027-.103-2.03-.3-3H.3c-.197.97-.3 1.973-.3 3 0 1.385.188 2.727.54 4z" fill="#fff"/><path d="M8.795 9.738a3.498 3.498 0 01-3.503-3.502 3.498 3.498 0 013.503-3.503 3.498 3.498 0 013.502 3.503 3.498 3.498 0 01-3.502 3.502z" fill="#fff"/><path d="M9.795 9.738a3.498 3.498 0 01-3.502-3.502 3.498 3.498 0 013.502-3.503 3.498 3.498 0 013.503 3.503 3.498 3.498 0 01-3.503 3.502z" fill="#0099B5"/><path d="M16.74 9.496l-.342-.114.222-.685.12.799zm-.12-.799l.222.685-.342.114.12-.799zm-.036.859v-.36h.72l-.72.36zm.72-.36l-.582.42-.21-.288.792-.133zm-.576.132l-.21.288-.583-.42.793.132zm-.793-.133h.72v.36l-.72-.36zm.54.229l.343-.108.228.684-.57-.576zm.571.576l-.588-.42.216-.294.372.714zm-.48-.714l.216.294-.589.42.373-.714zm-.373.714l.229-.684.342.108M16.74 6.614l-.342-.114.222-.685.12.799zm-.12-.799l.222.685-.342.114.12-.799zm-.036.859v-.36h.72l-.72.36zm.72-.36l-.582.42-.21-.288.792-.132zm-.576.132l-.21.288-.583-.42.793.132zm-.793-.132h.72v.36l-.72-.36zm.54.228l.343-.108.228.684-.57-.576zm.571.576l-.588-.42.216-.294.372.714zm-.48-.714l.216.294-.589.42.373-.714zm-.373.714l.229-.684.342.108M16.74 3.732l-.342-.114.222-.685.12.799zm-.12-.799l.222.685-.342.114.12-.799zm-.036.859v-.36h.72l-.72.36zm.72-.36l-.582.42-.21-.288.792-.132zm-.576.132l-.21.288-.583-.42.793.132zm-.793-.132h.72v.36l-.72-.36zm.54.228l.343-.108.228.684-.57-.576zm.571.576l-.588-.42.216-.294.372.714zm-.48-.714l.216.294-.589.42.373-.714zm-.373.714l.229-.684.342.108M19.622 9.496l-.343-.114.223-.685.12.799zm-.12-.799l.222.685-.343.114.12-.799zm-.037.859v-.36h.721l-.72.36zm.721-.36l-.582.42-.21-.288.792-.133zm-.576.132l-.21.288-.583-.42.793.132zm-.793-.133h.72v.36l-.72-.36zm.54.229l.343-.108.228.684-.57-.576zm.57.576l-.588-.42.217-.294.372.714zm-.48-.714l.217.294-.589.42.373-.714zm-.372.714l.228-.684.343.108M19.622 6.614l-.343-.114.223-.685.12.799zm-.12-.799l.222.685-.343.114.12-.799zm-.037.859v-.36h.721l-.72.36zm.721-.36l-.582.42-.21-.288.792-.132zm-.576.132l-.21.288-.583-.42.793.132zm-.793-.132h.72v.36l-.72-.36zm.54.228l.343-.108.228.684-.57-.576zm.57.576l-.588-.42.217-.294.372.714zm-.48-.714l.217.294-.589.42.373-.714zm-.372.714l.228-.684.343.108M19.622 3.732l-.343-.114.223-.685.12.799zm-.12-.799l.222.685-.343.114.12-.799zm-.037.859v-.36h.721l-.72.36zm.721-.36l-.582.42-.21-.288.792-.132zm-.576.132l-.21.288-.583-.42.793.132zm-.793-.132h.72v.36l-.72-.36zm.54.228l.343-.108.228.684-.57-.576zm.57.576l-.588-.42.217-.294.372.714zm-.48-.714l.217.294-.589.42.373-.714zm-.372.714l.228-.684.343.108M22.503 9.496l-.342-.114.222-.685.12.799zm-.12-.799l.223.685-.343.114.12-.799zm-.036.859v-.36h.72l-.72.36zm.72-.36l-.582.42-.21-.288.793-.133zm-.576.132l-.21.288-.582-.42.792.132zm-.792-.133h.72v.36l-.72-.36zm.54.229l.342-.108.229.684-.57-.576zm.57.576l-.588-.42.216-.294.373.714zm-.48-.714l.216.294-.588.42.372-.714zm-.372.714l.228-.684.343.108M22.503 6.614l-.342-.114.222-.685.12.799zm-.12-.799l.223.685-.343.114.12-.799zm-.036.859v-.36h.72l-.72.36zm.72-.36l-.582.42-.21-.288.793-.132zm-.576.132l-.21.288-.582-.42.792.132zm-.792-.132h.72v.36l-.72-.36zm.54.228l.342-.108.229.684-.57-.576zm.57.576l-.588-.42.216-.294.373.714zm-.48-.714l.216.294-.588.42.372-.714zm-.372.714l.228-.684.343.108M22.503 3.732l-.342-.114.222-.685.12.799zm-.12-.799l.223.685-.343.114.12-.799zm-.036.859v-.36h.72l-.72.36zm.72-.36l-.582.42-.21-.288.793-.132zm-.576.132l-.21.288-.582-.42.792.132zm-.792-.132h.72v.36l-.72-.36zm.54.228l.342-.108.229.684-.57-.576zm.57.576l-.588-.42.216-.294.373.714zm-.48-.714l.216.294-.588.42.372-.714zm-.372.714l.228-.684.343.108M10.976 9.496l-.342-.114.222-.685.12.799zm-.12-.799l.222.685-.342.114.12-.799zm-.036.859v-.36h.72l-.72.36zm.72-.36l-.582.42-.21-.288.792-.133zm-.576.132l-.21.288-.582-.42.792.132zm-.792-.133h.72v.36l-.72-.36zm.54.229l.342-.108.228.684-.57-.576zm.57.576l-.588-.42.216-.294.372.714zm-.48-.714l.216.294-.588.42.372-.714zM10.43 10l.228-.684.342.108M13.858 9.496l-.342-.114.222-.685.12.799zm-.12-.799l.222.685-.342.114.12-.799zm-.036.859v-.36h.72l-.72.36zm.72-.36l-.582.42-.21-.288.792-.133zm-.576.132l-.21.288-.583-.42.793.132zm-.793-.133h.72v.36l-.72-.36zm.54.229l.343-.108.228.684-.57-.576zm.571.576l-.588-.42.216-.294.372.714zm-.48-.714l.216.294-.588.42.372-.714zm-.372.714l.228-.684.342.108M13.858 6.614l-.342-.114.222-.685.12.799zm-.12-.799l.222.685-.342.114.12-.799zm-.036.859v-.36h.72l-.72.36zm.72-.36l-.582.42-.21-.288.792-.132zm-.576.132l-.21.288-.583-.42.793.132zm-.793-.132h.72v.36l-.72-.36zm.54.228l.343-.108.228.684-.57-.576zm.571.576l-.588-.42.216-.294.372.714zm-.48-.714l.216.294-.588.42.372-.714zm-.372.714l.228-.684.342.108" fill="#fff"/></svg><svg width="40" height="40" fill="none" viewBox="-5 -5 40 40" id="vn" x="160" y="160" xmlns="http://www.w3.org/2000/svg"><path d="M15 30c8.284 0 15-6.716 15-15 0-8.284-6.716-15-15-15C6.716 0 0 6.716 0 15c0 8.284 6.716 15 15 15z" fill="#DA251D"/><path d="M15 6L9.705 22.275l13.86-10.05H6.435l13.86 10.05L15 6z" fill="#FF0"/></svg></svg>