<svg xmlns="http://www.w3.org/2000/svg" viewBox="0 0 80 80"><g fill="none" stroke="#fff" stroke-width="2" stroke-miterlimit="10" stroke-linecap="round" stroke-linejoin="round"><line x1="20" x2="20" y1="1" y2="1"/><line x1="20" x2="20" y1="7" y2="7"/><line x1="20" x2="20" y1="13" y2="13"/><line x1="20" x2="20" y1="19" y2="19"/><line x1="20" x2="20" y1="25" y2="25"/><line x1="20" x2="20" y1="31" y2="31"/><line x1="20" x2="20" y1="37" y2="37"/><line x1="20" x2="20" y1="47" y2="79"/><line x1="40" x2="40" y1="1" y2="1"/><line x1="40" x2="40" y1="7" y2="7"/><line x1="40" x2="40" y1="13" y2="13"/><line x1="40" x2="40" y1="19" y2="19"/><line x1="40" x2="40" y1="25" y2="25"/><line x1="40" x2="40" y1="31" y2="31"/><line x1="40" x2="40" y1="37" y2="37"/><line x1="40" x2="40" y1="43" y2="43"/><line x1="40" x2="40" y1="53" y2="79"/><line x1="60" x2="60" y1="1" y2="31"/><line x1="60" x2="60" y1="43" y2="79"/><path d="M64.5 33c1 1.2 1.5 2.5 1.5 4 0 3.3-2.7 6-6 6-1.6 0-3-.7-4.2-1.7C52 45.3 48.4 49 42 49c-12 0-12-6-23-6S1 53 1 53v26h78V29c-6.4 0-11 1.7-14.5 4z"/><circle cx="60" cy="37" r="6"/></g></svg>