<?xml version="1.0" encoding="utf-8"?>
<!-- Generator: Adobe Illustrator 23.0.2, SVG Export Plug-In . SVG Version: 6.00 Build 0)  -->
<svg version="1.1" id="Layer_1" xmlns="http://www.w3.org/2000/svg" xmlns:xlink="http://www.w3.org/1999/xlink" x="0px" y="0px"
	 viewBox="0 0 30 60" style="enable-background:new 0 0 30 60;" xml:space="preserve">
<style type="text/css">
	
		.st0{fill:none;stroke:#000000;stroke-width:2;stroke-linecap:round;stroke-linejoin:round;stroke-miterlimit:10;stroke-opacity:0.15;}
	.st1{fill:none;stroke:#1378BF;stroke-width:2;stroke-linecap:round;stroke-linejoin:round;stroke-miterlimit:10;}
	.st2{opacity:0.15;}
	.st3{fill:#1378BF;}
</style>
<path class="st0" d="M1,27V3c0-1,1-2,2-2h24c1,0,2,1,2,2v24c0,1-1,2-2,2H3C2,29,1,28,1,27z"/>
<path class="st1" d="M1,57V33c0-1,1-2,2-2h24c1,0,2,1,2,2v24c0,1-1,2-2,2H3C2,59,1,58,1,57z"/>
<path class="st2" d="M23.8,6.7C24.1,7,24.1,7.3,24,7.6c-0.9,4.9-1.8,9.7-2.7,14.6c-0.2,1-1,1.3-1.8,0.7c-1.3-1-2.5-2-3.8-3.1
	c-0.8,0.7-1.5,1.5-2.3,2.2c-0.1,0.1-0.2,0.2-0.3,0.3c-0.3,0.2-0.5,0.2-0.7-0.1c-0.1-0.2-0.2-0.5-0.3-0.8c-0.4-1.5-0.9-3-1.3-4.5
	c-0.1-0.3-0.2-0.4-0.5-0.5C9.2,16,8.1,15.6,7,15.2c-0.1,0-0.1,0-0.2-0.1C6.4,15,6,14.8,6,14.3c0-0.4,0.4-0.6,0.7-0.7
	c2.3-1,4.6-1.9,6.9-2.9c3-1.3,6-2.5,9-3.7c0.2-0.1,0.4-0.2,0.6-0.3C23.4,6.7,23.6,6.7,23.8,6.7z M19.9,21.4
	c0.8-4.2,1.6-8.4,2.4-12.6c-4.5,1.9-8.8,3.7-13.3,5.6c1.1,0.4,2.1,0.8,3.1,1.1c0.3,0.1,0.5,0.1,0.7-0.1c2.3-1.3,4.5-2.7,6.8-4
	c0.1-0.1,0.3-0.1,0.4-0.2c0,0,0.1,0.1,0.1,0.1c-0.1,0.1-0.3,0.2-0.4,0.3c-1.6,1.5-3.2,3-4.8,4.6c-0.1,0.1-0.3,0.2-0.3,0.3
	c-0.1,0.9-0.2,1.7-0.3,2.6c0.1,0,0.1,0.1,0.2,0.1c0.4-0.4,0.7-0.9,1.1-1.3C17,19,18.4,20.1,19.9,21.4z"/>
<path class="st3" d="M23.8,36.7c0.3,0.2,0.3,0.6,0.2,0.9c-0.9,4.9-1.8,9.7-2.7,14.6c-0.2,1-1,1.3-1.8,0.7c-1.3-1-2.5-2-3.8-3.1
	c-0.8,0.7-1.5,1.5-2.3,2.2c-0.1,0.1-0.2,0.2-0.3,0.3c-0.3,0.2-0.5,0.2-0.7-0.1c-0.1-0.2-0.2-0.5-0.3-0.8c-0.4-1.5-0.9-3-1.3-4.5
	c-0.1-0.3-0.2-0.4-0.5-0.5C9.2,46,8.1,45.6,7,45.2c-0.1,0-0.1,0-0.2-0.1C6.4,45,6,44.8,6,44.3c0-0.4,0.4-0.6,0.7-0.7
	c2.3-1,4.6-1.9,6.9-2.9c3-1.3,6-2.5,9-3.7c0.2-0.1,0.4-0.2,0.6-0.3C23.4,36.7,23.6,36.7,23.8,36.7z M19.9,51.4
	c0.8-4.2,1.6-8.4,2.4-12.6c-4.5,1.9-8.8,3.7-13.3,5.6c1.1,0.4,2.1,0.8,3.1,1.1c0.3,0.1,0.5,0.1,0.7-0.1c2.3-1.3,4.5-2.7,6.8-4
	c0.1-0.1,0.3-0.1,0.4-0.2c0,0,0.1,0.1,0.1,0.1c-0.1,0.1-0.3,0.2-0.4,0.3c-1.6,1.5-3.2,3-4.8,4.6c-0.1,0.1-0.3,0.2-0.3,0.3
	c-0.1,0.9-0.2,1.7-0.3,2.6c0.1,0,0.1,0.1,0.2,0.1c0.4-0.4,0.7-0.9,1.1-1.3C17,49,18.4,50.1,19.9,51.4z"/>
</svg>
