<svg xmlns="http://www.w3.org/2000/svg" viewBox="0 0 30 60"><symbol id="a" viewBox="0 0 30 30"><g fill="none" stroke-width="2" stroke-miterlimit="10" stroke-linecap="round" stroke-linejoin="round"><path d="M3 29h24c1 0 2-1 2-2V3c0-1-1-2-2-2H3C2 1 1 2 1 3v24c0 1 1 2 2 2z"/><path d="M23 11v.5C23 16.8 18.7 23 11.2 23 9 23 6.8 22.3 5 21.2h1c2 0 3.7-.5 5-1.6-1.7 0-3.2-1.2-3.7-2.8h2c-2-.4-3.3-2-3.3-4 .5.2 1 .4 1.8.4-1-.7-1.8-2-1.8-3.4 0-.7.2-1.4.6-2 2 2.4 5 4 8.5 4.2v-1c0-2 1.8-4 4-4 1.3 0 2.3.6 3 1.4 1-.2 2-.5 2.7-1-.3 1-1 1.7-1.8 2.2.7 0 1.5-.3 2.3-.6-1 .7-1.6 1.4-2.4 2z"/></g></symbol><svg width="30" height="30" stroke="#000" stroke-opacity="0.15"><use xmlns:xlink="http://www.w3.org/1999/xlink" xlink:href="#a"/></svg><svg width="30" height="30" y="30" stroke="#1378bf"><use xmlns:xlink="http://www.w3.org/1999/xlink" xlink:href="#a"/></svg></svg>